<?xml version="1.0" encoding="utf-8"?>
<!-- Generator: Adobe Illustrator 24.1.1, SVG Export Plug-In . SVG Version: 6.00 Build 0)  -->
<svg version="1.1" xmlns="http://www.w3.org/2000/svg" xmlns:xlink="http://www.w3.org/1999/xlink" x="0px" y="0px"
	 viewBox="0 0 200 250" style="enable-background:new 0 0 200 250;" xml:space="preserve">
<style type="text/css">
	.st0{display:none;}
	.st1{display:inline;}
	.st2{fill:#E6E6E6;}
	.st3{font-family:'FontAwesome5Free-Solid';}
	.st4{font-size:175.1776px;}
	.st5{display:inline;fill:#C8FF00;}
	.st6{fill:#668481;}
	.st7{fill:#EFEFEF;}
	.st8{fill:none;stroke:#FFFFFF;stroke-width:4;stroke-miterlimit:10;}
	.st9{fill:none;stroke:#828282;stroke-width:5;stroke-linecap:round;stroke-miterlimit:10;}
	.st10{fill:#649E98;}
	.st11{fill:#67C6BF;}
	.st12{fill:none;stroke:#FFFFFF;stroke-width:6;stroke-linecap:round;stroke-miterlimit:10;}
</style>
<g id="Layer_1" class="st0">
	<g class="st1">
		<g>
			<text transform="matrix(1 0 0 1 69.5645 221.7247)" class="st2 st3 st4"></text>
		</g>
		<g>
			<text transform="matrix(1 0 0 1 69.1645 221.3247)" class="st2 st3 st4"></text>
		</g>
		<g>
			<text transform="matrix(1 0 0 1 68.7645 220.9247)" class="st2 st3 st4"></text>
		</g>
		<g>
			<text transform="matrix(1 0 0 1 68.3645 220.5247)" class="st2 st3 st4"></text>
		</g>
		<g>
			<text transform="matrix(1 0 0 1 67.9645 220.1247)" class="st2 st3 st4"></text>
		</g>
		<g>
			<text transform="matrix(1 0 0 1 67.5645 219.7247)" class="st2 st3 st4"></text>
		</g>
		<g>
			<text transform="matrix(1 0 0 1 67.1645 219.3247)" class="st2 st3 st4"></text>
		</g>
		<g>
			<text transform="matrix(1 0 0 1 66.7645 218.9247)" class="st2 st3 st4"></text>
		</g>
		<g>
			<text transform="matrix(1 0 0 1 66.3645 218.5247)" class="st2 st3 st4"></text>
		</g>
		<g>
			<text transform="matrix(1 0 0 1 65.9645 218.1247)" class="st2 st3 st4"></text>
		</g>
		<g>
			<text transform="matrix(1 0 0 1 65.5645 217.7247)" class="st2 st3 st4"></text>
		</g>
		<g>
			<text transform="matrix(1 0 0 1 65.1645 217.3247)" class="st2 st3 st4"></text>
		</g>
		<g>
			<text transform="matrix(1 0 0 1 64.7645 216.9247)" class="st2 st3 st4"></text>
		</g>
		<g>
			<text transform="matrix(1 0 0 1 64.3645 216.5247)" class="st2 st3 st4"></text>
		</g>
		<g>
			<text transform="matrix(1 0 0 1 63.9645 216.1247)" class="st2 st3 st4"></text>
		</g>
		<g>
			<text transform="matrix(1 0 0 1 63.5645 215.7247)" class="st2 st3 st4"></text>
		</g>
		<g>
			<text transform="matrix(1 0 0 1 63.1645 215.3247)" class="st2 st3 st4"></text>
		</g>
		<g>
			<text transform="matrix(1 0 0 1 62.7645 214.9247)" class="st2 st3 st4"></text>
		</g>
		<g>
			<text transform="matrix(1 0 0 1 62.3645 214.5247)" class="st2 st3 st4"></text>
		</g>
		<g>
			<text transform="matrix(1 0 0 1 61.9645 214.1247)" class="st2 st3 st4"></text>
		</g>
		<g>
			<text transform="matrix(1 0 0 1 61.5645 213.7247)" class="st2 st3 st4"></text>
		</g>
		<g>
			<text transform="matrix(1 0 0 1 61.1645 213.3247)" class="st2 st3 st4"></text>
		</g>
		<g>
			<text transform="matrix(1 0 0 1 60.7645 212.9247)" class="st2 st3 st4"></text>
		</g>
		<g>
			<text transform="matrix(1 0 0 1 60.3645 212.5247)" class="st2 st3 st4"></text>
		</g>
		<g>
			<text transform="matrix(1 0 0 1 59.9645 212.1247)" class="st2 st3 st4"></text>
		</g>
		<g>
			<text transform="matrix(1 0 0 1 59.5645 211.7247)" class="st2 st3 st4"></text>
		</g>
		<g>
			<text transform="matrix(1 0 0 1 59.1645 211.3247)" class="st2 st3 st4"></text>
		</g>
		<g>
			<text transform="matrix(1 0 0 1 58.7645 210.9247)" class="st2 st3 st4"></text>
		</g>
		<g>
			<text transform="matrix(1 0 0 1 58.3645 210.5247)" class="st2 st3 st4"></text>
		</g>
		<g>
			<text transform="matrix(1 0 0 1 57.9645 210.1247)" class="st2 st3 st4"></text>
		</g>
		<g>
			<text transform="matrix(1 0 0 1 57.5645 209.7247)" class="st2 st3 st4"></text>
		</g>
		<g>
			<text transform="matrix(1 0 0 1 57.1645 209.3247)" class="st2 st3 st4"></text>
		</g>
		<g>
			<text transform="matrix(1 0 0 1 56.7645 208.9247)" class="st2 st3 st4"></text>
		</g>
		<g>
			<text transform="matrix(1 0 0 1 56.3645 208.5247)" class="st2 st3 st4"></text>
		</g>
		<g>
			<text transform="matrix(1 0 0 1 55.9645 208.1247)" class="st2 st3 st4"></text>
		</g>
		<g>
			<text transform="matrix(1 0 0 1 55.5645 207.7247)" class="st2 st3 st4"></text>
		</g>
		<g>
			<text transform="matrix(1 0 0 1 55.1645 207.3247)" class="st2 st3 st4"></text>
		</g>
		<g>
			<text transform="matrix(1 0 0 1 54.7645 206.9247)" class="st2 st3 st4"></text>
		</g>
		<g>
			<text transform="matrix(1 0 0 1 54.3645 206.5247)" class="st2 st3 st4"></text>
		</g>
		<g>
			<text transform="matrix(1 0 0 1 53.9645 206.1247)" class="st2 st3 st4"></text>
		</g>
		<g>
			<text transform="matrix(1 0 0 1 53.5645 205.7247)" class="st2 st3 st4"></text>
		</g>
		<g>
			<text transform="matrix(1 0 0 1 53.1645 205.3246)" class="st2 st3 st4"></text>
		</g>
		<g>
			<text transform="matrix(1 0 0 1 52.7645 204.9247)" class="st2 st3 st4"></text>
		</g>
		<g>
			<text transform="matrix(1 0 0 1 52.3645 204.5247)" class="st2 st3 st4"></text>
		</g>
		<g>
			<text transform="matrix(1 0 0 1 51.9645 204.1246)" class="st2 st3 st4"></text>
		</g>
		<g>
			<text transform="matrix(1 0 0 1 51.5645 203.7246)" class="st2 st3 st4"></text>
		</g>
		<g>
			<text transform="matrix(1 0 0 1 51.1645 203.3246)" class="st2 st3 st4"></text>
		</g>
		<g>
			<text transform="matrix(1 0 0 1 50.7645 202.9247)" class="st2 st3 st4"></text>
		</g>
		<g>
			<text transform="matrix(1 0 0 1 50.3645 202.5246)" class="st2 st3 st4"></text>
		</g>
		<g>
			<text transform="matrix(1 0 0 1 49.9645 202.1246)" class="st2 st3 st4"></text>
		</g>
		<g>
			<text transform="matrix(1 0 0 1 49.5645 201.7246)" class="st2 st3 st4"></text>
		</g>
		<g>
			<text transform="matrix(1 0 0 1 49.1645 201.3246)" class="st2 st3 st4"></text>
		</g>
		<g>
			<text transform="matrix(1 0 0 1 48.7645 200.9246)" class="st2 st3 st4"></text>
		</g>
		<g>
			<text transform="matrix(1 0 0 1 48.3645 200.5246)" class="st2 st3 st4"></text>
		</g>
		<g>
			<text transform="matrix(1 0 0 1 47.9645 200.1246)" class="st2 st3 st4"></text>
		</g>
		<g>
			<text transform="matrix(1 0 0 1 47.5645 199.7246)" class="st2 st3 st4"></text>
		</g>
		<g>
			<text transform="matrix(1 0 0 1 47.1645 199.3246)" class="st2 st3 st4"></text>
		</g>
		<g>
			<text transform="matrix(1 0 0 1 46.7645 198.9246)" class="st2 st3 st4"></text>
		</g>
		<g>
			<text transform="matrix(1 0 0 1 46.3644 198.5246)" class="st2 st3 st4"></text>
		</g>
		<g>
			<text transform="matrix(1 0 0 1 45.9644 198.1246)" class="st2 st3 st4"></text>
		</g>
		<g>
			<text transform="matrix(1 0 0 1 45.5644 197.7246)" class="st2 st3 st4"></text>
		</g>
		<g>
			<text transform="matrix(1 0 0 1 45.1644 197.3246)" class="st2 st3 st4"></text>
		</g>
		<g>
			<text transform="matrix(1 0 0 1 44.7644 196.9246)" class="st2 st3 st4"></text>
		</g>
		<g>
			<text transform="matrix(1 0 0 1 44.3644 196.5246)" class="st2 st3 st4"></text>
		</g>
		<g>
			<text transform="matrix(1 0 0 1 43.9644 196.1246)" class="st2 st3 st4"></text>
		</g>
		<g>
			<text transform="matrix(1 0 0 1 43.5644 195.7246)" class="st2 st3 st4"></text>
		</g>
		<g>
			<text transform="matrix(1 0 0 1 43.1644 195.3246)" class="st2 st3 st4"></text>
		</g>
		<g>
			<text transform="matrix(1 0 0 1 42.7644 194.9246)" class="st2 st3 st4"></text>
		</g>
		<g>
			<text transform="matrix(1 0 0 1 42.3644 194.5246)" class="st2 st3 st4"></text>
		</g>
		<g>
			<text transform="matrix(1 0 0 1 41.9644 194.1246)" class="st2 st3 st4"></text>
		</g>
		<g>
			<text transform="matrix(1 0 0 1 41.5644 193.7246)" class="st2 st3 st4"></text>
		</g>
		<g>
			<text transform="matrix(1 0 0 1 41.1644 193.3246)" class="st2 st3 st4"></text>
		</g>
		<g>
			<text transform="matrix(1 0 0 1 40.7644 192.9246)" class="st2 st3 st4"></text>
		</g>
		<g>
			<text transform="matrix(1 0 0 1 40.3644 192.5246)" class="st2 st3 st4"></text>
		</g>
		<g>
			<text transform="matrix(1 0 0 1 39.9644 192.1246)" class="st2 st3 st4"></text>
		</g>
		<g>
			<text transform="matrix(1 0 0 1 39.5644 191.7246)" class="st2 st3 st4"></text>
		</g>
		<g>
			<text transform="matrix(1 0 0 1 39.1644 191.3246)" class="st2 st3 st4"></text>
		</g>
		<g>
			<text transform="matrix(1 0 0 1 38.7644 190.9246)" class="st2 st3 st4"></text>
		</g>
		<g>
			<text transform="matrix(1 0 0 1 38.3644 190.5246)" class="st2 st3 st4"></text>
		</g>
		<g>
			<text transform="matrix(1 0 0 1 37.9644 190.1246)" class="st2 st3 st4"></text>
		</g>
		<g>
			<text transform="matrix(1 0 0 1 37.5644 189.7246)" class="st2 st3 st4"></text>
		</g>
		<g>
			<text transform="matrix(1 0 0 1 37.1644 189.3246)" class="st2 st3 st4"></text>
		</g>
		<g>
			<text transform="matrix(1 0 0 1 36.7644 188.9246)" class="st2 st3 st4"></text>
		</g>
		<g>
			<text transform="matrix(1 0 0 1 36.3644 188.5246)" class="st2 st3 st4"></text>
		</g>
		<g>
			<text transform="matrix(1 0 0 1 35.9644 188.1246)" class="st2 st3 st4"></text>
		</g>
		<g>
			<text transform="matrix(1 0 0 1 35.5644 187.7246)" class="st2 st3 st4"></text>
		</g>
		<g>
			<text transform="matrix(1 0 0 1 35.1644 187.3246)" class="st2 st3 st4"></text>
		</g>
		<g>
			<text transform="matrix(1 0 0 1 34.7644 186.9246)" class="st2 st3 st4"></text>
		</g>
		<g>
			<text transform="matrix(1 0 0 1 34.3644 186.5246)" class="st2 st3 st4"></text>
		</g>
		<g>
			<text transform="matrix(1 0 0 1 33.9644 186.1246)" class="st2 st3 st4"></text>
		</g>
		<g>
			<text transform="matrix(1 0 0 1 33.5644 185.7246)" class="st2 st3 st4"></text>
		</g>
		<g>
			<text transform="matrix(1 0 0 1 33.1644 185.3246)" class="st2 st3 st4"></text>
		</g>
		<g>
			<text transform="matrix(1 0 0 1 32.7644 184.9246)" class="st2 st3 st4"></text>
		</g>
		<g>
			<text transform="matrix(1 0 0 1 32.3644 184.5246)" class="st2 st3 st4"></text>
		</g>
		<g>
			<text transform="matrix(1 0 0 1 31.9644 184.1246)" class="st2 st3 st4"></text>
		</g>
		<g>
			<text transform="matrix(1 0 0 1 31.5644 183.7246)" class="st2 st3 st4"></text>
		</g>
		<g>
			<text transform="matrix(1 0 0 1 31.1644 183.3246)" class="st2 st3 st4"></text>
		</g>
		<g>
			<text transform="matrix(1 0 0 1 30.7644 182.9246)" class="st2 st3 st4"></text>
		</g>
		<g>
			<text transform="matrix(1 0 0 1 30.3644 182.5246)" class="st2 st3 st4"></text>
		</g>
		<g>
			<text transform="matrix(1 0 0 1 29.9644 182.1246)" class="st2 st3 st4"></text>
		</g>
		<g>
			<text transform="matrix(1 0 0 1 29.5644 181.7246)" class="st2 st3 st4"></text>
		</g>
		<g>
			<text transform="matrix(1 0 0 1 29.1644 181.3246)" class="st2 st3 st4"></text>
		</g>
		<g>
			<text transform="matrix(1 0 0 1 28.7644 180.9246)" class="st2 st3 st4"></text>
		</g>
		<g>
			<text transform="matrix(1 0 0 1 28.3644 180.5246)" class="st2 st3 st4"></text>
		</g>
		<g>
			<text transform="matrix(1 0 0 1 27.9644 180.1246)" class="st2 st3 st4"></text>
		</g>
		<g>
			<text transform="matrix(1 0 0 1 27.5644 179.7246)" class="st2 st3 st4"></text>
		</g>
		<g>
			<text transform="matrix(1 0 0 1 27.1644 179.3246)" class="st2 st3 st4"></text>
		</g>
		<g>
			<text transform="matrix(1 0 0 1 26.7644 178.9246)" class="st2 st3 st4"></text>
		</g>
		<g>
			<text transform="matrix(1 0 0 1 26.3644 178.5246)" class="st2 st3 st4"></text>
		</g>
		<g>
			<text transform="matrix(1 0 0 1 25.9644 178.1246)" class="st2 st3 st4"></text>
		</g>
		<g>
			<text transform="matrix(1 0 0 1 25.5644 177.7246)" class="st2 st3 st4"></text>
		</g>
		<g>
			<text transform="matrix(1 0 0 1 25.1644 177.3246)" class="st2 st3 st4"></text>
		</g>
		<g>
			<text transform="matrix(1 0 0 1 24.7644 176.9246)" class="st2 st3 st4"></text>
		</g>
		<g>
			<text transform="matrix(1 0 0 1 24.3644 176.5246)" class="st2 st3 st4"></text>
		</g>
		<g>
			<text transform="matrix(1 0 0 1 23.9644 176.1246)" class="st2 st3 st4"></text>
		</g>
		<g>
			<text transform="matrix(1 0 0 1 23.5644 175.7246)" class="st2 st3 st4"></text>
		</g>
		<g>
			<text transform="matrix(1 0 0 1 23.1644 175.3246)" class="st2 st3 st4"></text>
		</g>
		<g>
			<text transform="matrix(1 0 0 1 22.7645 174.9246)" class="st2 st3 st4"></text>
		</g>
		<g>
			<text transform="matrix(1 0 0 1 22.3644 174.5246)" class="st2 st3 st4"></text>
		</g>
		<g>
			<text transform="matrix(1 0 0 1 21.9645 174.1246)" class="st2 st3 st4"></text>
		</g>
		<g>
			<text transform="matrix(1 0 0 1 21.5644 173.7246)" class="st2 st3 st4"></text>
		</g>
		<g>
			<text transform="matrix(1 0 0 1 21.1645 173.3246)" class="st2 st3 st4"></text>
		</g>
		<g>
			<text transform="matrix(1 0 0 1 20.7645 172.9246)" class="st2 st3 st4"></text>
		</g>
		<g>
			<text transform="matrix(1 0 0 1 20.3645 172.5246)" class="st2 st3 st4"></text>
		</g>
		<g>
			<text transform="matrix(1 0 0 1 19.9645 172.1246)" class="st2 st3 st4"></text>
		</g>
		<g>
			<text transform="matrix(1 0 0 1 19.5645 171.7246)" class="st2 st3 st4"></text>
		</g>
		<g>
			<text transform="matrix(1 0 0 1 19.1645 171.3246)" class="st2 st3 st4"></text>
		</g>
		<g>
			<text transform="matrix(1 0 0 1 18.7645 170.9246)" class="st2 st3 st4"></text>
		</g>
		<g>
			<text transform="matrix(1 0 0 1 18.3645 170.5246)" class="st2 st3 st4"></text>
		</g>
		<g>
			<text transform="matrix(1 0 0 1 17.9645 170.1246)" class="st2 st3 st4"></text>
		</g>
		<g>
			<text transform="matrix(1 0 0 1 17.5645 169.7246)" class="st2 st3 st4"></text>
		</g>
		<g>
			<text transform="matrix(1 0 0 1 17.1645 169.3246)" class="st2 st3 st4"></text>
		</g>
		<g>
			<text transform="matrix(1 0 0 1 16.7645 168.9246)" class="st2 st3 st4"></text>
		</g>
		<g>
			<text transform="matrix(1 0 0 1 16.3645 168.5246)" class="st2 st3 st4"></text>
		</g>
		<g>
			<text transform="matrix(1 0 0 1 15.9645 168.1246)" class="st2 st3 st4"></text>
		</g>
		<g>
			<text transform="matrix(1 0 0 1 15.5645 167.7246)" class="st2 st3 st4"></text>
		</g>
		<g>
			<text transform="matrix(1 0 0 1 15.1645 167.3246)" class="st2 st3 st4"></text>
		</g>
		<g>
			<text transform="matrix(1 0 0 1 14.7645 166.9246)" class="st2 st3 st4"></text>
		</g>
		<g>
			<text transform="matrix(1 0 0 1 14.3645 166.5246)" class="st2 st3 st4"></text>
		</g>
		<g>
			<text transform="matrix(1 0 0 1 13.9645 166.1246)" class="st2 st3 st4"></text>
		</g>
		<g>
			<text transform="matrix(1 0 0 1 13.5645 165.7246)" class="st2 st3 st4"></text>
		</g>
		<g>
			<text transform="matrix(1 0 0 1 13.1645 165.3246)" class="st2 st3 st4"></text>
		</g>
		<g>
			<text transform="matrix(1 0 0 1 12.7645 164.9246)" class="st2 st3 st4"></text>
		</g>
		<g>
			<text transform="matrix(1 0 0 1 12.3645 164.5246)" class="st2 st3 st4"></text>
		</g>
		<g>
			<text transform="matrix(1 0 0 1 11.9645 164.1246)" class="st2 st3 st4"></text>
		</g>
		<g>
			<text transform="matrix(1 0 0 1 11.5645 163.7246)" class="st2 st3 st4"></text>
		</g>
		<g>
			<text transform="matrix(1 0 0 1 11.1645 163.3246)" class="st2 st3 st4"></text>
		</g>
		<g>
			<text transform="matrix(1 0 0 1 10.7645 162.9246)" class="st2 st3 st4"></text>
		</g>
		<g>
			<text transform="matrix(1 0 0 1 10.3645 162.5246)" class="st2 st3 st4"></text>
		</g>
		<g>
			<text transform="matrix(1 0 0 1 9.9645 162.1246)" class="st2 st3 st4"></text>
		</g>
		<g>
			<text transform="matrix(1 0 0 1 9.5645 161.7246)" class="st2 st3 st4"></text>
		</g>
	</g>
	<text transform="matrix(1 0 0 1 9.5645 161.7246)" class="st5 st3 st4"></text>
</g>
<g id="Layer_2">
	<path class="st6" d="M84.3,220.4v17c0,7.1,7.7,10.1,17.3,10.1s17.3-3,17.3-10.1v-17H84.3z"/>
	<path class="st7" d="M86.1,186.7h43.1c2.1,0,4-1.5,4.4-3.6c2-10.6,7.1-25,16.7-34.1c0.1-0.1,0.1-0.1,0.2-0.2
		c20-15,32.8-39,32.5-65.9c-0.5-43.5-35.8-79.3-79.3-80.3C57.8,1.4,20.4,38.2,20.4,83.7c0,26.7,12.9,50.3,32.7,65.2c0,0,0,0,0,0
		c9.6,9.1,14.7,23.5,16.7,34.1c0.4,2.1,2.2,3.6,4.4,3.6H86.1"/>
	<path class="st8" d="M74.9,27.7"/>
	<path class="st8" d="M33.6,71.8"/>
	<g>
		<line class="st9" x1="90.2" y1="186.7" x2="63.6" y2="114.7"/>
		<line class="st9" x1="113.4" y1="186.7" x2="140.4" y2="113.7"/>
		<g>
			<path class="st9" d="M69.6,121.3c5.3,0,5.3,8,10.7,8c5.3,0,5.3-8,10.7-8c5.3,0,5.3,8,10.7,8c5.3,0,5.3-8,10.7-8
				c5.3,0,5.3,8,10.7,8s5.3-8,10.7-8"/>
		</g>
	</g>
	<path class="st10" d="M129.1,186.7H74.2v43.7h0c0,0.1,0,0.2,0,0.3c0,3.8,3.1,7,7,7h41c3.8,0,7-3.1,7-7c0-0.1,0-0.2,0-0.3h0V186.7z"
		/>
	<g>
		<path class="st11" d="M130.6,233.3H71.4c-3.1,0-5.7-2.6-5.7-5.7l0,0c0-3.1,2.6-5.7,5.7-5.7h59.2c3.1,0,5.7,2.6,5.7,5.7l0,0
			C136.3,230.7,133.8,233.3,130.6,233.3z"/>
		<path class="st11" d="M131.2,202.4H72c-3.1,0-5.7-2.6-5.7-5.7l0,0c0-3.1,2.6-5.7,5.7-5.7h59.2c3.1,0,5.7,2.6,5.7,5.7l0,0
			C136.9,199.8,134.4,202.4,131.2,202.4z"/>
		<path class="st11" d="M130.6,217.8H71.4c-3.1,0-5.7-2.6-5.7-5.7v0c0-3.1,2.6-5.7,5.7-5.7h59.2c3.1,0,5.7,2.6,5.7,5.7v0
			C136.3,215.2,133.8,217.8,130.6,217.8z"/>
	</g>
	<path class="st12" d="M35.5,70.5c0-20,20.1-46.2,40.5-50.5"/>
</g>
</svg>
