<svg id="Layer_1" data-name="Layer 1" xmlns="http://www.w3.org/2000/svg" xmlns:xlink="http://www.w3.org/1999/xlink" viewBox="0 0 372 290"><defs><style>.cls-1{fill:none;}.cls-2{fill:#a5a5a5;}.cls-3{fill:#e5e5e5;}.cls-4{fill:url(#linear-gradient);}.cls-5{fill:url(#linear-gradient-2);}.cls-6{stroke:#050505;stroke-miterlimit:10;stroke-width:4px;fill:url(#linear-gradient-3);}.cls-7{fill:url(#linear-gradient-4);}</style><linearGradient id="linear-gradient" x1="225.7" y1="295" x2="225.7" y2="263" gradientUnits="userSpaceOnUse"><stop offset="0" stop-color="#fff"/><stop offset="0" stop-color="gray" stop-opacity="0.4"/><stop offset="0" stop-color="#7e7e7e" stop-opacity="0.39"/><stop offset="0.11" stop-color="#393939" stop-opacity="0.18"/><stop offset="0.21" stop-color="#0f0f0f" stop-opacity="0.05"/><stop offset="0.28" stop-opacity="0"/></linearGradient><linearGradient id="linear-gradient-2" x1="225" y1="238" x2="225" y2="285" gradientUnits="userSpaceOnUse"><stop offset="0" stop-color="#fff"/><stop offset="0" stop-color="gray" stop-opacity="0.3"/><stop offset="0.06" stop-color="#4f4f4f" stop-opacity="0.19"/><stop offset="0.14" stop-color="#222" stop-opacity="0.08"/><stop offset="0.24" stop-color="#080808" stop-opacity="0.02"/><stop offset="0.44" stop-opacity="0"/></linearGradient><linearGradient id="linear-gradient-3" x1="-14.96" y1="61.92" x2="390.98" y2="142.44" gradientUnits="userSpaceOnUse"><stop offset="0" stop-color="#fff"/><stop offset="0" stop-color="#515151"/><stop offset="0.02" stop-color="#4e4e4e"/><stop offset="0.17" stop-color="#3b3b3b"/><stop offset="0.35" stop-color="#2d2d2d"/><stop offset="0.58" stop-color="#252525"/><stop offset="1" stop-color="#232323"/></linearGradient><linearGradient id="linear-gradient-4" x1="180.08" y1="206.08" x2="191.65" y2="217.65" gradientUnits="userSpaceOnUse"><stop offset="0" stop-color="#fff"/><stop offset="0" stop-color="gray" stop-opacity="0.6"/><stop offset="0.07" stop-color="#757474" stop-opacity="0.54"/><stop offset="0.59" stop-color="#242021" stop-opacity="0.1"/></linearGradient></defs><line class="cls-1" x1="182" y1="210" x2="181.08" y2="210"/><line class="cls-1" x1="182" y1="210" x2="181.08" y2="210"/><path class="cls-2" d="M272.46,285H177.54S188,252,192.3,225h65.4C262,252,272.46,285,272.46,285Z" transform="translate(-39 -11)"/><path class="cls-3" d="M272.46,285H177.54s7.45-23.48,12.35-47h70.22C265,261.52,272.46,285,272.46,285Z" transform="translate(-39 -11)"/><path class="cls-3" d="M309.4,290,235,291.81V295H217v-3.17L142,290s18.48-1.53,37.59-5c14.91-2.68,30.19-6.51,37.41-11.69V263h18v10.73c7.44,5,22.3,8.66,36.8,11.27C290.92,288.43,309.4,290,309.4,290Z" transform="translate(-39 -11)"/><path class="cls-4" d="M309.4,290,235,291.81V295H217v-3.17L142,290s18.48-1.53,37.59-5c14.91-2.68,30.19-6.51,37.41-11.69V263h18v10.73c7.44,5,22.3,8.66,36.8,11.27C290.92,288.43,309.4,290,309.4,290Z" transform="translate(-39 -11)"/><path class="cls-5" d="M272.46,285h-.66c-14.5-2.61-29.36-6.31-36.8-11.27V263H217v10.31c-7.22,5.18-22.5,9-37.41,11.69h-2.05s7.45-23.48,12.35-47h70.22C265,261.52,272.46,285,272.46,285Z" transform="translate(-39 -11)"/><rect class="cls-3" x="102" y="279" width="168" height="11"/><line class="cls-1" x1="182" y1="210" x2="181.08" y2="210"/><path class="cls-3" d="M396.59,11h-344A13.56,13.56,0,0,0,39,24.56v200A14.41,14.41,0,0,0,53.41,239H396.59A14.41,14.41,0,0,0,411,224.59V25.41h0A14.41,14.41,0,0,0,396.59,11Z" transform="translate(-39 -11)"/><path class="cls-6" d="M14.77,6H357.23A8.77,8.77,0,0,1,366,14.77V196a0,0,0,0,1,0,0H6a0,0,0,0,1,0,0V14.77A8.77,8.77,0,0,1,14.77,6Z"/><circle class="cls-7" cx="186" cy="212" r="6"/></svg>