<svg id="Layer_1" data-name="Layer 1" xmlns="http://www.w3.org/2000/svg" viewBox="0 0 205.29 82.78"><path d="M81,44.87C83.58,32,68.25,27.4,58.42,26.06,42.81,23.92,24.83,27.67,14.6,40.52c-4.81,6-8,14.79-3.24,21.84,2.43,3.61,6.15,6,10,7.91a80.53,80.53,0,0,0,13,5.18C43.09,78.22,52.31,79.8,61,83c3.8,1.4,8.2,3.45,10.17,7.22s-.38,7.71-3.51,9.89c-3.65,2.54-8.33,3.43-12.62,4.24a53.65,53.65,0,0,1-11.24,1c-7.37-.17-15.13-2-21-6.71a26.41,26.41,0,0,1-4-4c-1.22-1.5-3.33.63-2.12,2.12,10,12.38,27.72,13.12,42.09,9.9,4.16-.93,8.41-2.2,11.74-5,3-2.51,5-6.44,4.17-10.39s-4-6.75-7.35-8.63a55.58,55.58,0,0,0-12.87-4.81c-8.8-2.46-17.82-4.3-26.32-7.72-7.36-3-16.73-7.47-16.1-16.77C12.57,45.71,19,39,25.15,35.07c7.54-4.76,16.77-6.68,25.61-6.6a53.49,53.49,0,0,1,16.5,2.65c4.45,1.5,9.82,4.14,10.89,9.19a9.39,9.39,0,0,1-.06,3.77c-.38,1.88,2.51,2.69,2.89.79Z" transform="translate(-9.03 -25.49)"/><path d="M89.71,73.41c-8.32,2.07-14.88,9.45-13.65,18.32,1,7.56,7.27,12.63,14.52,14,7.54,1.4,16.22-.53,21.06-6.86a16.48,16.48,0,0,0,3.18-12.45,14.66,14.66,0,0,0-6.54-9.71,17.47,17.47,0,0,0-11.46-3.13c-4.25.46-8.55,3.27-9.45,7.7-.92,4.59,2.24,8.87,6.26,10.76A24,24,0,0,0,107,93.8c20.17-2.73,32.74-23.16,33.64-42.25.07-1.66-.08-3.61-1.45-4.76-1.77-1.48-4.35-.5-6.08.53-4.67,2.8-7.42,8-9.58,12.83-4.77,10.63-7,22.06-8.28,33.58-.32,2.84-.59,5.68-.87,8.52-.18,1.94,2.77,1.88,3,0,.28-2.18,2.45-4.29,3.88-5.79a73.08,73.08,0,0,1,5.5-5.06A28.73,28.73,0,0,1,135,86.2a18.15,18.15,0,0,1,4.65-1.12c1.44-.14,3.41-.27,2.75,1.71a19.51,19.51,0,0,1-2.3,3.81,14.14,14.14,0,0,0-2,4.83,7.23,7.23,0,0,0,3.35,7.72c5.3,3,12.45.18,17.2-2.64,6.42-3.8,11.5-9.44,16.39-15l-2.51-1.46-6.88,18.29c-.51,1.36,1.14,2.16,2.2,1.69,4.23-1.88,7.64-5.08,11.21-7.94a29.93,29.93,0,0,1,5.71-3.75,14.5,14.5,0,0,1,2.79-1c.72-.17,2.6-.7,3.16,0s-.52,2.38-.85,3.06a32.73,32.73,0,0,0-1.73,4.15c-.7,2.06-2.07,5.47.15,7.08,1.75,1.27,4.9,1,6.93.8a24.33,24.33,0,0,0,7.07-1.78,23.93,23.93,0,0,0,11.79-10.45c.93-1.7-1.66-3.21-2.59-1.52a21.27,21.27,0,0,1-17,10.81,22.31,22.31,0,0,1-3.27,0c-.35,0-1,0-1.14-.29s.29-1.63.41-2.06a29.21,29.21,0,0,1,1.38-3.94c.54-1.24,1.27-2.42,1.69-3.72.73-2.29-.18-4.68-2.66-5.26-2.12-.5-4.6.26-6.56,1.07a26.32,26.32,0,0,0-5.58,3.29c-4.08,3.05-7.72,6.79-12.43,8.89l2.2,1.69,6.88-18.29A1.51,1.51,0,0,0,173,83.4c-4.46,5.06-9.06,10.25-14.78,13.91a27.14,27.14,0,0,1-9,3.84c-2.39.49-5.87.49-7.45-1.75-2.06-2.93.55-6.64,2.19-9.06s2.81-6.15-.39-7.82c-1.52-.79-3.44-.53-5.06-.3a20.76,20.76,0,0,0-5,1.38A32.6,32.6,0,0,0,125,89a70.71,70.71,0,0,0-6.29,5.83c-1.93,2.09-3.92,4.49-4.29,7.41h3c1-10.1,2-20.18,4.91-29.95a76.69,76.69,0,0,1,5.32-13.72,28.79,28.79,0,0,1,3.88-6,14.38,14.38,0,0,1,2.4-2.21c.74-.53,2.1-1.51,3.07-1.36s.7,2.21.65,3a50.44,50.44,0,0,1-.9,6.36,50.15,50.15,0,0,1-4.27,12.55,37.24,37.24,0,0,1-17.13,17.31,28.79,28.79,0,0,1-11.28,2.85c-3.7.11-8.11-.53-11-3-3.1-2.54-3.81-6.66-.7-9.51,2.65-2.42,6.51-2.49,9.79-1.54a14.67,14.67,0,0,1,8.21,5.79,12,12,0,0,1,1,10.26c-2.19,6.72-9.1,9.94-15.76,10-5.77.09-12.14-2.07-15.1-7.36C77,89.51,79.61,82,85.55,78.33a17.76,17.76,0,0,1,5-2c1.87-.46,1.07-3.35-.8-2.89Z" transform="translate(-9.03 -25.49)"/></svg>