<svg id="Layer_1" data-name="Layer 1" xmlns="http://www.w3.org/2000/svg" viewBox="0 0 359.96 386"><defs><style>.cls-1{fill:#bfbebe;}.cls-2{fill:#eaeae9;}.cls-3{fill:#37b34a;}.cls-4{fill:#26a9e0;}.cls-5{fill:#f16228;}.cls-6{fill:#ee383b;}.cls-7{fill:#f8c414;}.cls-8{fill:#9b4d9d;}.cls-9{fill:#372c3c;}.cls-10{fill:#cececd;}.cls-11{fill:#8bc53f;}.cls-12{fill:#55c2ea;}.cls-13{fill:#f58a66;}.cls-14{fill:#f0666f;}.cls-15{fill:#ffdb7c;}.cls-16{fill:#b975b0;}.cls-17{fill:#4c434f;}.cls-18{fill:#a4a4a4;}</style></defs><path class="cls-1" d="M371.42,150.16c-18.7-49.85-59.91-91.35-107.76-113.89C188.29.75,101.35,17.22,47.51,81,30,101.69,19,128.59,22.71,156c7.71,56.28,58.53,48.63,98.64,70.42,19.21,10.44,38.48,29.77,36.64,53.31-1.76,22.44-23.75,39.31-21.33,62.44,7,66.32,107.41,57.65,148.71,36C362.82,337.47,402.25,232.34,371.42,150.16Z" transform="translate(-21.98 -8)"/><path class="cls-2" d="M371.42,140.28c-18.7-49.85-59.91-91.35-107.76-113.89-75.37-35.51-162.31-19-216.15,44.7C30,91.81,19,118.71,22.71,146.14c7.71,56.28,58.53,48.63,98.64,70.42C140.56,227,159.83,246.33,158,269.87c-1.76,22.45-23.75,39.32-21.33,62.44,7,66.32,107.41,57.66,148.71,36C362.82,327.59,402.25,222.46,371.42,140.28Z" transform="translate(-21.98 -8)"/><path class="cls-3" d="M44.27,119.89c2.44,17,16.69,32,38.26,29.81C99.11,148.06,111.81,128.21,112,112c.26-25.2-32-41-52.53-26.66A35.38,35.38,0,0,0,44.27,119.89Z" transform="translate(-21.98 -8)"/><path class="cls-4" d="M117.31,71.59c2.44,17,16.7,32,38.26,29.81,16.58-1.65,29.28-21.49,29.45-37.69.26-25.2-32-41-52.53-26.66A35.38,35.38,0,0,0,117.31,71.59Z" transform="translate(-21.98 -8)"/><path class="cls-5" d="M202.33,79.84c2.44,17,16.69,32,38.26,29.81C257.16,108,269.87,88.15,270,72c.26-25.2-32-41-52.52-26.66A35.36,35.36,0,0,0,202.33,79.84Z" transform="translate(-21.98 -8)"/><path class="cls-6" d="M270.41,132.85c2.44,17,16.69,32,38.26,29.81C325.24,161,338,141.17,338.11,125c.26-25.2-32-41-52.52-26.66A35.37,35.37,0,0,0,270.41,132.85Z" transform="translate(-21.98 -8)"/><path class="cls-7" d="M295.15,217.67c2.44,17,16.69,32,38.26,29.81,16.57-1.64,29.28-21.49,29.44-37.69.26-25.2-32-41-52.52-26.66A35.37,35.37,0,0,0,295.15,217.67Z" transform="translate(-21.98 -8)"/><path class="cls-8" d="M261.11,296.6c2.44,17,16.69,31.95,38.26,29.81,16.57-1.64,29.28-21.49,29.44-37.69.26-25.2-32-41-52.52-26.66A35.37,35.37,0,0,0,261.11,296.6Z" transform="translate(-21.98 -8)"/><path class="cls-9" d="M178.64,331.61c2.44,17,16.7,31.94,38.26,29.8,16.58-1.64,29.28-21.49,29.45-37.68.26-25.2-32-41-52.53-26.67A35.4,35.4,0,0,0,178.64,331.61Z" transform="translate(-21.98 -8)"/><path class="cls-10" d="M178.56,133.32c26.72-1.65,55.62,10.82,70.71,34.06,19.94,30.7,6.64,58.29-15.89,82.46-16.9,18.13-40.09,16.15-48.26-6-8.78-23.78-19.25-38.24-39.89-53.23-11-8-27.15-13.8-18.2-31.06,4.47-8.61,18.24-17.62,27.25-21.07A82.58,82.58,0,0,1,178.56,133.32Z" transform="translate(-21.98 -8)"/><path class="cls-11" d="M78,93.4c1,2.95,9,5.12,11.4,6.65,8.11,5.12,12.48,12.07,9.74,21.81,7.29,6.17,8.23-12.76,7-16.21C103,97.23,97.77,92.92,89.7,89.76,85.28,88,75.07,84.62,78,93.4Z" transform="translate(-21.98 -8)"/><path class="cls-12" d="M169.71,66.06c2.21,10.45,5.23,2.52,6.82-2.94,2.73-9.37-.51-15.49-9.4-20.47-4.47-2.5-15.07-2.41-10.59,6,1.17,2.21,7.1,3.44,9.26,5.68C169.57,58.19,168.7,61.3,169.71,66.06Z" transform="translate(-21.98 -8)"/><path class="cls-13" d="M252.35,94.18c-6.33-1.68,2.24-14.58,2.2-19.46-.06-8-6.39-15.54-11.88-21.23-1.38-1.42,5.92-5.15,6.73-5.54,11,4.68,15.57,15.6,15.41,27C264.73,80.8,260.91,96.44,252.35,94.18Z" transform="translate(-21.98 -8)"/><path class="cls-14" d="M329.91,132c-1.32,4-9.56,22.06-11.15,10.84-.64-4.51,3.94-7.37,5.08-11.41,1.45-5.18-.49-7-2.36-11.38-1.48-3.46-6.15-14.7,1.64-14.19C331.81,106.45,331.68,126.59,329.91,132Z" transform="translate(-21.98 -8)"/><path class="cls-15" d="M344.09,234.84c-4.34-4.8,6.12-17.57,6.26-24.26.09-4.56-6.49-30.89,4.6-14.08C363,208.65,357.87,229.29,344.09,234.84Z" transform="translate(-21.98 -8)"/><path class="cls-16" d="M320.54,297.75c-.87,4.19-8.05,21.77-15.78,15-3.32-2.91,6.13-15.8,7.28-20.3,2.48-9.73-2.53-13.21-5.55-22C320.32,258,321.85,291.47,320.54,297.75Z" transform="translate(-21.98 -8)"/><path class="cls-17" d="M234.7,340.76c-2.95,4.13-17.6,13.48-17.31,3.94.08-2.67,6.36-6.44,7.87-8.64,3.28-4.8,2.57-7.37,2.55-12.37,0-3.42.73-10.47,5.38-10.94C244.55,311.63,237.41,337,234.7,340.76Z" transform="translate(-21.98 -8)"/><path class="cls-18" d="M249.29,208.41c-3.27,13.37-14.9,31.23-25.39,36-5,2.25-13.58,3-15.9-3.14-2.72-7.22,7.75-12.45,11.78-17.25,8.52-10.15,12.75-22.52,11.36-35.39-1.22-11.31-9.41-15.93-14.53-24.92s4.57-11.72,11.22-7.95c15.57,8.85,23,29.61,22.34,46.9A30,30,0,0,1,249.29,208.41Z" transform="translate(-21.98 -8)"/></svg>