<svg xmlns="http://www.w3.org/2000/svg" viewBox="0 0 324.79 377.56"><defs><style>.cls-1{isolation:isolate;}.cls-2{fill:#5f3814;}.cls-3{fill:#c3975c;}.cls-3,.cls-6{mix-blend-mode:multiply;}.cls-4{fill:#e93e48;}.cls-5{fill:#fff;mix-blend-mode:soft-light;}.cls-6{fill:#dbb8c9;}.cls-7{fill:#579b43;}.cls-8{fill:#94c847;}</style></defs><g class="cls-1"><g id="Layer_2" data-name="Layer 2"><path class="cls-2" d="M224.64,129.8s-18.29-82.19,1.25-117.46c0,0-23.79-10.48-51.68,11.33,0,0,20.2,88.28,17.84,106.38Z" transform="translate(-37.65 -7.44)"/><path class="cls-3" d="M225.89,12.34s-6.95-3.06-17.74-2.43c0,0-2.32,37-2.71,50.09-.5,16.29-8.6,64.28-13.35,69.56a4,4,0,0,1,0,.49l32.59-.25S206.35,47.61,225.89,12.34Z" transform="translate(-37.65 -7.44)"/><path class="cls-4" d="M362.44,222.61a162.4,162.4,0,0,1-324.79,0c0-60.32,17-95.22,66.95-118.25,60-27.66,73.18,8.17,102.54,8.17,35.76,0,67.34-31.31,103.55-6.47C348.49,132,362.44,176.07,362.44,222.61Z" transform="translate(-37.65 -7.44)"/><path class="cls-5" d="M87.32,251.63c8-4.32,14.11-10.42,17.37-19,3-8,4.07-16.53,4.75-25,1.11-14,1.4-28.33,4.49-42.13,2.33-10.42,6.51-20.67,14.59-28,7.09-6.39,15.83-10.21,24.95-12.73-11-5.52-23.81-11.14-49.45.67C70.8,140.79,59.54,164,59.54,204.07A107.39,107.39,0,0,0,73,256.19,46.08,46.08,0,0,0,87.32,251.63Z" transform="translate(-37.65 -7.44)"/><path class="cls-6" d="M310.69,106.06c-19.85-13.61-38.29-10.36-56.81-4.63,2.74,2.21,5.41,4.5,7.93,6.92,18.2,17.52,62.64,77.05,38.9,153.25-37.88,121.63-200.48,86-211.85,79L88,340A162.34,162.34,0,0,0,362.44,222.61C362.44,176.07,348.49,132,310.69,106.06Z" transform="translate(-37.65 -7.44)"/><path class="cls-7" d="M280.37,7.44s8.47,59.1-62.8,86.44C217.57,93.88,221.2,15.14,280.37,7.44Z" transform="translate(-37.65 -7.44)"/><path class="cls-8" d="M217.72,93.82c71.11-27.37,62.65-86.38,62.65-86.38l-.51.08Z" transform="translate(-37.65 -7.44)"/></g></g></svg>