<svg id="Layer_1" data-name="Layer 1" xmlns="http://www.w3.org/2000/svg" viewBox="0 0 295.69 383"><defs><style>.cls-1{fill:#d14758;}.cls-2{fill:#f16b79;}.cls-3{fill:#26292c;}.cls-4{fill:#f6901e;}.cls-5{fill:#f8c414;}</style></defs><path class="cls-1" d="M80.74,38.18s3.82-3.5,7.69,6.6l15.47,40L93.48,89.16Z" transform="translate(-55.78 -9)"/><path class="cls-2" d="M66.43,96.76,56.56,73.3a10.92,10.92,0,0,1,.8-9.79L80.74,38.18l16.31,45.7Z" transform="translate(-55.78 -9)"/><path d="M172.34,166.68l-13.6-32.36-6.62-2.24s-23.44,4.83-33.42-20.26L106,81.65l-8.19-.48L86,123l51.39,41.34Z" transform="translate(-55.78 -9)"/><path class="cls-1" d="M172.34,166.68l68.38,178.73s6.19,20.19-13.09,28.29-7.09,3-7.09,3l-21.83,9.17s-29.3,19.34-41.9-10.63L128.42,147.07Z" transform="translate(-55.78 -9)"/><path class="cls-3" d="M71.59,202.24l93.5-39.32-13-30.84s-25.47,9.57-36.16-13.16L97.82,81.17l-35.66,15L78,133.76s10.85,20.4-20.71,37.07Z" transform="translate(-55.78 -9)"/><path class="cls-2" d="M165.09,162.92l68.38,178.74s6.19,20.18-13.09,28.29l-7.09,3-21.83,9.18s-29.3,19.33-41.91-10.64l-78-169.23Z" transform="translate(-55.78 -9)"/><path class="cls-1" d="M151.24,168.75,216,334s6.17,18.54-7.39,24.24l-5,2.1-15.36,6.46s-20.06,14.94-31.75-12.86l-71-157.51Z" transform="translate(-55.78 -9)"/><path class="cls-4" d="M294.2,9.17s4.72-2.14,5.28,8.65l2.36,42.83-11.27,1Z" transform="translate(-55.78 -9)"/><path class="cls-5" d="M262.49,60.47l-2.13-25.36a10.89,10.89,0,0,1,3.78-9.06L294.2,9.17l1.4,48.51Z" transform="translate(-55.78 -9)"/><path d="M341.64,159.68l-2.95-35-5.6-4.18s-23.78-2.65-25.53-29.59L304.8,58.32l-7.63-3L273,91.41l36.11,55.2Z" transform="translate(-55.78 -9)"/><path class="cls-4" d="M341.64,159.68l9.83,191.12s-.35,21.11-21.19,22.86l-7.67.65-23.59,2s-33.84,9.33-36.57-23.06l43.47-225.77Z" transform="translate(-55.78 -9)"/><path class="cls-3" d="M234.83,162.38l101.07-8.51-2.81-33.34s-27.18,1.24-30.33-23.68l-5.59-41.51-38.55,3.25L262,99.23s4,22.75-31.15,28.86Z" transform="translate(-55.78 -9)"/><path class="cls-5" d="M335.9,153.87,345.73,345s-.35,21.1-21.19,22.86l-7.66.64-23.6,2s-33.84,9.34-36.57-23.05l-21.88-185Z" transform="translate(-55.78 -9)"/><path class="cls-4" d="M320.93,155.13l10.51,177.14s.15,19.54-14.52,20.78l-5.39.45-16.61,1.4s-23.69,8-26.22-22L249.8,161.12Z" transform="translate(-55.78 -9)"/></svg>