<svg xmlns="http://www.w3.org/2000/svg" viewBox="0 0 381.03 236.3"><defs><style>.cls-1{isolation:isolate;}.cls-2{fill:#ffcc41;}.cls-3{mix-blend-mode:soft-light;}.cls-4{fill:#fff;}.cls-5{fill:#5f3814;}.cls-6{mix-blend-mode:multiply;}.cls-7{fill:#ffd493;}</style></defs><g class="cls-1"><g id="Layer_2" data-name="Layer 2"><path class="cls-2" d="M70.5,158.65c24.36,19.11,50.86,61.16,122,81.4,73.21,20.82,166.8-8.85,181.83,21.82,18.38,37.53-101.74,85.42-209.77,62.43-52-11.08-123.78-60.58-136.52-142.14-3.57-22.81,10.82-28.24-2.27-58.48l15.78-6.78S34,130,70.5,158.65Z" transform="translate(-9.97 -94)"/><g class="cls-3"><path class="cls-4" d="M241.09,258.46c-2.46,1.45-5.53,3.33-6.82,5.9-2.41,4.78,3.24,7.83,7.4,9.06,7.22,2.12,14.92,2.5,22.38,3.17,9.16.83,18-.47,27-1.91,7.92-1.28,16-3,23.24-6.2,6-2.68,13.25-6.24,14.51-13.11.06-.34.05-.65.08-1-20.8-1.34-49.31,1.43-78.54.49A33,33,0,0,0,241.09,258.46Z" transform="translate(-9.97 -94)"/></g><path class="cls-5" d="M366.8,288.48s14.64-11.11,7.54-26.61c-3.77-8.2-12.94-10.75-17.95-12.12,0,0,6.74,10,9.11,17.4C368.18,275.44,366.8,288.48,366.8,288.48Z" transform="translate(-9.97 -94)"/><g class="cls-6"><path class="cls-7" d="M374.34,261.87c18.38,37.53-101.74,85.42-209.77,62.43-52-11.08-123.78-60.58-136.52-142.14-3.57-22.81,10.82-28.24-2.27-58.48C25.78,123.68,57,254,166,283.82,293.11,318.66,374.34,261.87,374.34,261.87Z" transform="translate(-9.97 -94)"/></g><path class="cls-2" d="M65.17,133.63c28.72,12.79,65.92,48.58,140,49.34,76.18.79,157.88-56.13,180.87-28.8,28.13,33.42-74,116.55-184.26,123.36C148.62,280.8,65.88,250.1,30.9,169.79c-9.79-22.46,2.53-32.11-18.48-59.53L25.7,98.84S22.14,114.47,65.17,133.63Z" transform="translate(-9.97 -94)"/><g class="cls-3"><path class="cls-4" d="M257,188.23c-2,2.18-4.39,5-4.92,8-1,5.59,5.3,7.14,9.65,7.22,7.52.16,15-1.62,22.38-3,9.05-1.74,17.19-5.55,25.41-9.57,7.26-3.55,14.54-7.56,20.62-12.93,5.06-4.47,11-10.15,10.29-17.58,0-.36-.13-.69-.19-1-20.37,4.49-47,15.37-75.37,22.65A32,32,0,0,0,257,188.23Z" transform="translate(-9.97 -94)"/></g><path class="cls-5" d="M386.18,183.67s11-15.57-.18-29.5c-5.9-7.38-15.43-7.42-20.62-7.42,0,0,9.26,8.42,13.6,15.34C383.87,169.86,386.18,183.67,386.18,183.67Z" transform="translate(-9.97 -94)"/><g class="cls-6"><path class="cls-7" d="M386,154.17c28.13,33.42-74,116.55-184.26,123.36C148.62,280.8,65.88,250.1,30.9,169.79c-9.79-22.46,2.53-32.11-18.48-59.53,0,0,66.3,125.23,179.39,125.23C323.73,235.49,386,154.17,386,154.17Z" transform="translate(-9.97 -94)"/></g><path class="cls-5" d="M28.18,162.05s5.69-21.59,33.24-30c0,0-15.9-7.36-24.74-17.08-4.31-4.74-7.74-20-14-21C18.57,93.35,10,105,10,105,24.24,130.13,21.88,146.75,28.18,162.05Z" transform="translate(-9.97 -94)"/></g></g></svg>