<svg id="Layer_1" data-name="Layer 1" xmlns="http://www.w3.org/2000/svg" viewBox="0 0 254.96 397"><defs><style>.cls-1{fill:#dbb06c;}.cls-2{fill:#23454e;}.cls-3{fill:#e2ce96;}.cls-4{fill:#fff;}.cls-5{fill:#26192a;}</style></defs><path class="cls-1" d="M283.05,139.86s36.6,25.72,38,59.68L280.48,174Z" transform="translate(-66.16 -1)"/><path class="cls-2" d="M277.58,132.84s-6,69.4,14.41,95.17C292,228,308,166.16,277.58,132.84Z" transform="translate(-66.16 -1)"/><path class="cls-2" d="M113.87,136.37s-24.38-.69-38.82,29.79S61,275.59,97.51,266.25,135.83,128.14,113.87,136.37Z" transform="translate(-66.16 -1)"/><path class="cls-3" d="M295.09,278.19S289.91,25.57,200.83,17c-91.75-8.82-78.51,130.84-93.51,168.65s-35,145,50.28,151.56C227.3,342.55,301.85,347,295.09,278.19Z" transform="translate(-66.16 -1)"/><path class="cls-4" d="M188,67.77s10.91-28.26,47-6.47c18.2,11,20.44,42.52,0,54S185.92,79.49,188,67.77Z" transform="translate(-66.16 -1)"/><path class="cls-5" d="M216.74,69.72s8.8,11.7,13.82,11.9,7.62-17.71,7.62-17.71S228,62,216.74,69.72Z" transform="translate(-66.16 -1)"/><path class="cls-5" d="M229.25,105.21c-4.94,0-10.6-12.88-11.25-14.39a.74.74,0,0,1,.39-1,.73.73,0,0,1,1,.39c2.36,5.5,7.24,14,10.13,13.47,3.42-.65,6.92-10.4,8-14.1a.74.74,0,1,1,1.42.4c-.41,1.45-4.2,14.22-9.13,15.15A2.94,2.94,0,0,1,229.25,105.21Z" transform="translate(-66.16 -1)"/><path class="cls-5" d="M229.63,105.17a.74.74,0,0,1-.74-.74v-23a.74.74,0,1,1,1.47,0v23A.74.74,0,0,1,229.63,105.17Z" transform="translate(-66.16 -1)"/><path class="cls-5" d="M184.33,57.89c-5,0-9.4-11.75-9.91-13.17a.73.73,0,0,1,1.38-.5c1.88,5.15,6,13,9,12.13a1.31,1.31,0,0,0,.86-.78c1.28-2.88-2.23-11.25-3.69-14.23a.74.74,0,0,1,1.33-.65c.57,1.16,5.5,11.45,3.71,15.48a2.74,2.74,0,0,1-1.8,1.59A2.91,2.91,0,0,1,184.33,57.89Z" transform="translate(-66.16 -1)"/><path class="cls-5" d="M212.47,49.82c-5.43,0-7.07-13.66-7.24-15.23a.74.74,0,0,1,.65-.82.72.72,0,0,1,.81.66c.59,5.4,2.67,13.92,5.78,13.92h.06a1.3,1.3,0,0,0,1-.56c1.93-2.49.52-11.45-.19-14.69a.74.74,0,1,1,1.44-.31c.28,1.26,2.62,12.42-.08,15.91a2.76,2.76,0,0,1-2.13,1.12Z" transform="translate(-66.16 -1)"/><path class="cls-3" d="M153.11,34.18s-15.8-16.39-24.62-12.74S139.4,52.27,139.4,52.27Z" transform="translate(-66.16 -1)"/><path class="cls-5" d="M145,36.89a.74.74,0,0,1-.65-.4c-5.34-10.06-9.78-8.49-9.82-8.47a.76.76,0,0,1-1-.41.73.73,0,0,1,.39-.95c.24-.1,5.65-2.24,11.69,9.14a.74.74,0,0,1-.3,1A.73.73,0,0,1,145,36.89Z" transform="translate(-66.16 -1)"/><path class="cls-3" d="M208.66,18.59S215.49-.79,222.8,1.13,226.63,27,226.63,27Z" transform="translate(-66.16 -1)"/><path class="cls-5" d="M217.65,23.53h0a.75.75,0,0,1-.7-.78C217.53,11,221.38,7,221.54,6.87a.74.74,0,0,1,1,0,.73.73,0,0,1,0,1h0s-3.61,3.78-4.2,14.91A.74.74,0,0,1,217.65,23.53Z" transform="translate(-66.16 -1)"/><path class="cls-4" d="M275.48,290.87s-3.19-149.48-52.39-145.94c-43.75,3.16-47.85,128.36-36,156.71C195.84,322.37,271.07,325.28,275.48,290.87Z" transform="translate(-66.16 -1)"/><path class="cls-3" d="M181.22,338.71s-41.83,45.51-61.14,43.85c0,0-4.56-.24-14.33-9.3s31.53-69.43,31.53-69.43S170.71,331.94,181.22,338.71Z" transform="translate(-66.16 -1)"/><path class="cls-3" d="M275.55,317.68s-10.3,60.95-27.4,70.06c0,0-4,2.28-17.08,0s-12-54.18-12-54.18S263.06,317.72,275.55,317.68Z" transform="translate(-66.16 -1)"/><path class="cls-5" d="M130.12,87.08a.74.74,0,0,1-.71-.55c-.52-1.94,1.23-6.82,1.43-7.37a.74.74,0,0,1,1.39.5c-.7,1.91-1.69,5.36-1.4,6.49a.73.73,0,0,1-.52.9A.63.63,0,0,1,130.12,87.08Z" transform="translate(-66.16 -1)"/><path class="cls-5" d="M173.56,28l-.16,0c-2-.41-5.54-.91-6.62-.45a.73.73,0,0,1-1-.39.75.75,0,0,1,.39-1c1.85-.78,6.93.25,7.51.37a.74.74,0,0,1-.15,1.46Z" transform="translate(-66.16 -1)"/><path class="cls-5" d="M186.76,26.18a.73.73,0,0,1-.61-.33c-1.14-1.68-3.37-4.5-4.46-4.92a.73.73,0,0,1-.42-.95.74.74,0,0,1,.95-.43c1.88.72,4.82,5,5.15,5.47a.74.74,0,0,1-.2,1A.76.76,0,0,1,186.76,26.18Z" transform="translate(-66.16 -1)"/><path class="cls-5" d="M191.46,36.28a.74.74,0,0,1-.61-.32c-1.14-1.69-3.36-4.51-4.46-4.93a.73.73,0,1,1,.53-1.37c1.88.72,4.82,5,5.15,5.47a.74.74,0,0,1-.61,1.15Z" transform="translate(-66.16 -1)"/><path class="cls-5" d="M181.45,28.12a.75.75,0,0,1-.5-.19c-1.51-1.35-4.34-3.56-5.51-3.7a.74.74,0,0,1,.18-1.46c2,.24,5.88,3.68,6.32,4.07a.74.74,0,0,1,.06,1A.75.75,0,0,1,181.45,28.12Z" transform="translate(-66.16 -1)"/><path class="cls-5" d="M197,38a.74.74,0,0,1-.74-.69c-.13-2-.61-5.59-1.34-6.5a.74.74,0,1,1,1.15-.92c1.26,1.57,1.63,6.74,1.67,7.33A.75.75,0,0,1,197,38Z" transform="translate(-66.16 -1)"/><path class="cls-5" d="M192.21,27a.72.72,0,0,1-.73-.68c-.14-2-.62-5.59-1.35-6.51a.74.74,0,0,1,1.15-.92c1.26,1.58,1.63,6.75,1.67,7.33a.73.73,0,0,1-.69.78Z" transform="translate(-66.16 -1)"/><path class="cls-5" d="M199.34,27a.63.63,0,0,1-.19,0,.73.73,0,0,1-.52-.9c.53-2,1.22-5.49.83-6.59a.74.74,0,0,1,1.39-.5c.68,1.9-.64,6.91-.8,7.47A.73.73,0,0,1,199.34,27Z" transform="translate(-66.16 -1)"/><path class="cls-5" d="M135.16,94a.74.74,0,0,1-.71-.55c-.51-1.94,1.23-6.82,1.43-7.37a.75.75,0,0,1,1-.44.73.73,0,0,1,.44.94c-.7,1.91-1.69,5.37-1.39,6.5a.74.74,0,0,1-.53.9A.58.58,0,0,1,135.16,94Z" transform="translate(-66.16 -1)"/><path class="cls-5" d="M135.91,107.5a.73.73,0,0,1-.71-.55c-.52-2,1.23-6.83,1.43-7.38a.74.74,0,0,1,1.38.51c-.69,1.91-1.69,5.36-1.39,6.49a.73.73,0,0,1-.52.9Z" transform="translate(-66.16 -1)"/><path class="cls-5" d="M124.27,116.07a.74.74,0,0,1-.71-.55c-.51-1.94,1.23-6.82,1.43-7.37a.74.74,0,0,1,1.39.5c-.7,1.91-1.69,5.36-1.39,6.49a.75.75,0,0,1-.53.91Z" transform="translate(-66.16 -1)"/><path class="cls-5" d="M130.12,116.07a.74.74,0,0,1-.71-.55c-.52-1.94,1.23-6.82,1.43-7.37a.74.74,0,0,1,1.39.5c-.7,1.91-1.69,5.36-1.4,6.49a.74.74,0,0,1-.52.91Z" transform="translate(-66.16 -1)"/><path class="cls-5" d="M257.64,250.27h-.05a.74.74,0,0,1-.69-.78c.14-2,.13-5.62-.47-6.63a.74.74,0,0,1,1.26-.76c1,1.73.72,6.9.68,7.49A.72.72,0,0,1,257.64,250.27Z" transform="translate(-66.16 -1)"/><path class="cls-5" d="M261.63,237.31h-.05a.75.75,0,0,1-.69-.79c.14-2,.13-5.62-.47-6.62a.74.74,0,0,1,.25-1,.75.75,0,0,1,1,.25c1,1.73.72,6.9.67,7.48A.73.73,0,0,1,261.63,237.31Z" transform="translate(-66.16 -1)"/><path class="cls-5" d="M253.17,270.42h0a.74.74,0,0,1-.69-.79c.14-2,.13-5.61-.47-6.62a.74.74,0,1,1,1.26-.76c1,1.73.72,6.9.68,7.48A.74.74,0,0,1,253.17,270.42Z" transform="translate(-66.16 -1)"/><path class="cls-5" d="M267.79,271.28h-.05a.73.73,0,0,1-.69-.78c.14-2,.13-5.62-.47-6.62a.75.75,0,0,1,.25-1,.73.73,0,0,1,1,.26c1,1.72.72,6.89.68,7.48A.73.73,0,0,1,267.79,271.28Z" transform="translate(-66.16 -1)"/><path class="cls-5" d="M255.83,307a.75.75,0,0,1-.44-.15.74.74,0,0,1-.15-1c1.22-1.63,3.15-4.65,3.19-5.82a.71.71,0,0,1,.76-.72.74.74,0,0,1,.71.76c-.06,2-3.13,6.19-3.47,6.66A.74.74,0,0,1,255.83,307Z" transform="translate(-66.16 -1)"/><path class="cls-5" d="M258,280.32h0a.73.73,0,0,1-.69-.78c.14-2,.13-5.62-.47-6.62a.74.74,0,0,1,1.27-.76c1,1.72.71,6.9.67,7.48A.73.73,0,0,1,258,280.32Z" transform="translate(-66.16 -1)"/><path class="cls-5" d="M262,263.14h-.05a.74.74,0,0,1-.68-.79c.14-2,.13-5.62-.47-6.62a.73.73,0,0,1,.25-1,.72.72,0,0,1,1,.25c1,1.72.72,6.9.68,7.48A.74.74,0,0,1,262,263.14Z" transform="translate(-66.16 -1)"/><path class="cls-5" d="M269.11,283.84h-.05a.74.74,0,0,1-.69-.78c.14-2,.13-5.62-.47-6.63a.74.74,0,1,1,1.26-.76c1,1.73.72,6.9.68,7.49A.72.72,0,0,1,269.11,283.84Z" transform="translate(-66.16 -1)"/><path class="cls-5" d="M266.05,299.81a.7.7,0,0,1-.46-.16.73.73,0,0,1-.12-1c1.27-1.59,3.32-4.54,3.4-5.71a.75.75,0,0,1,.78-.69.74.74,0,0,1,.69.79c-.14,2-3.35,6.07-3.72,6.53A.72.72,0,0,1,266.05,299.81Z" transform="translate(-66.16 -1)"/><path class="cls-5" d="M260.49,292.85a.71.71,0,0,1-.28-.06.73.73,0,0,1-.4-1c.77-1.88,1.91-5.29,1.66-6.43a.74.74,0,1,1,1.44-.32c.44,2-1.51,6.77-1.74,7.31A.75.75,0,0,1,260.49,292.85Z" transform="translate(-66.16 -1)"/><path class="cls-5" d="M253.53,295.67h-.05a.74.74,0,0,1-.69-.78c.14-2,.13-5.62-.47-6.63a.74.74,0,0,1,.25-1,.75.75,0,0,1,1,.25c1,1.73.72,6.9.68,7.49A.73.73,0,0,1,253.53,295.67Z" transform="translate(-66.16 -1)"/><path class="cls-5" d="M130.87,128.9a.74.74,0,0,1-.72-.54c-.51-2,1.23-6.83,1.44-7.38a.74.74,0,1,1,1.38.51c-.7,1.91-1.69,5.36-1.39,6.49a.74.74,0,0,1-.52.9A.65.65,0,0,1,130.87,128.9Z" transform="translate(-66.16 -1)"/><path class="cls-5" d="M124.27,131.28a.74.74,0,0,1-.71-.55c-.51-1.95,1.23-6.83,1.43-7.38a.75.75,0,0,1,1-.44.75.75,0,0,1,.44,1c-.7,1.91-1.69,5.36-1.39,6.49a.74.74,0,0,1-.53.9A.58.58,0,0,1,124.27,131.28Z" transform="translate(-66.16 -1)"/><path class="cls-5" d="M128.63,101.57a.74.74,0,0,1-.71-.54c-.51-2,1.23-6.83,1.43-7.38a.74.74,0,1,1,1.39.51c-.7,1.91-1.69,5.36-1.39,6.49a.74.74,0,0,1-.53.9A.58.58,0,0,1,128.63,101.57Z" transform="translate(-66.16 -1)"/><path class="cls-5" d="M104.14,280.84a.72.72,0,0,1-.52-.22c-1.43-1.41-2.4-6.5-2.51-7.08a.74.74,0,0,1,.59-.86.73.73,0,0,1,.86.59c.37,2,1.27,5.48,2.1,6.3a.75.75,0,0,1-.52,1.27Z" transform="translate(-66.16 -1)"/><path class="cls-5" d="M112,284.25a.77.77,0,0,1-.52-.21c-1.43-1.42-2.4-6.51-2.5-7.08a.73.73,0,0,1,.59-.86.74.74,0,0,1,.86.59c.37,2,1.26,5.48,2.09,6.3a.74.74,0,0,1-.52,1.26Z" transform="translate(-66.16 -1)"/><path class="cls-5" d="M119.49,295.49a.73.73,0,0,1-.52-.21c-1.43-1.42-2.4-6.51-2.51-7.08a.74.74,0,0,1,.59-.86.73.73,0,0,1,.86.59c.37,2,1.27,5.48,2.1,6.3a.73.73,0,0,1,0,1A.7.7,0,0,1,119.49,295.49Z" transform="translate(-66.16 -1)"/><path class="cls-5" d="M112,308.78a.77.77,0,0,1-.52-.21c-1.43-1.42-2.4-6.51-2.5-7.08a.73.73,0,0,1,.59-.86.74.74,0,0,1,.86.59c.37,2,1.26,5.48,2.09,6.3a.74.74,0,0,1-.52,1.26Z" transform="translate(-66.16 -1)"/><path class="cls-5" d="M118.85,305.82a.78.78,0,0,1-.52-.22c-1.43-1.41-2.4-6.5-2.5-7.08a.74.74,0,1,1,1.45-.27c.37,2,1.26,5.48,2.09,6.3a.75.75,0,0,1,0,1.05A.79.79,0,0,1,118.85,305.82Z" transform="translate(-66.16 -1)"/><path class="cls-5" d="M126,316.5a.7.7,0,0,1-.52-.22c-1.43-1.41-2.4-6.5-2.51-7.08a.74.74,0,1,1,1.45-.26c.37,2,1.26,5.47,2.1,6.3a.73.73,0,0,1,0,1A.74.74,0,0,1,126,316.5Z" transform="translate(-66.16 -1)"/><path class="cls-5" d="M122.62,321.26a.8.8,0,0,1-.3-.06c-1.84-.83-4.53-5.26-4.83-5.76a.74.74,0,0,1,1.27-.76c1,1.75,3.1,4.69,4.16,5.17a.74.74,0,0,1-.3,1.41Z" transform="translate(-66.16 -1)"/><path class="cls-5" d="M109.06,295.49a.73.73,0,0,1-.51-.21c-1.44-1.42-2.41-6.51-2.51-7.08a.74.74,0,0,1,1.45-.27c.37,2,1.26,5.48,2.09,6.3a.74.74,0,0,1-.52,1.26Z" transform="translate(-66.16 -1)"/><path class="cls-5" d="M111.89,357.28a.74.74,0,0,1-.74-.67c-.18-2,2.35-6.52,2.64-7a.74.74,0,1,1,1.28.73c-1,1.76-2.56,5-2.45,6.17a.74.74,0,0,1-.66.8Z" transform="translate(-66.16 -1)"/><path class="cls-5" d="M119.1,357.26a.74.74,0,0,1-.73-.67c-.18-2,2.35-6.53,2.64-7a.74.74,0,0,1,1.28.73c-1,1.77-2.56,5-2.45,6.17a.73.73,0,0,1-.67.8Z" transform="translate(-66.16 -1)"/><path class="cls-5" d="M118.22,347.26a.73.73,0,0,1-.73-.67c-.19-2,2.34-6.53,2.63-7a.74.74,0,1,1,1.29.73c-1,1.77-2.56,5-2.45,6.17a.75.75,0,0,1-.67.8Z" transform="translate(-66.16 -1)"/><path class="cls-5" d="M124.91,345.85a.74.74,0,0,1-.73-.67c-.18-2,2.35-6.52,2.64-7a.74.74,0,1,1,1.28.73c-1,1.76-2.56,5-2.45,6.17a.74.74,0,0,1-.67.8Z" transform="translate(-66.16 -1)"/><path class="cls-5" d="M224.52,350.79a.73.73,0,0,1-.67-.43c-.85-1.82,0-6.93.13-7.51a.74.74,0,0,1,1.45.26c-.36,2-.73,5.57-.24,6.63a.74.74,0,0,1-.36,1A.7.7,0,0,1,224.52,350.79Z" transform="translate(-66.16 -1)"/><path class="cls-5" d="M228.49,354.19a.74.74,0,0,1-.67-.43c-.84-1.82,0-6.93.13-7.51a.76.76,0,0,1,.86-.6.74.74,0,0,1,.59.86c-.35,2-.73,5.57-.24,6.63a.74.74,0,0,1-.36,1A.7.7,0,0,1,228.49,354.19Z" transform="translate(-66.16 -1)"/><path class="cls-5" d="M224.76,364.36a.74.74,0,0,1-.67-.43c-.84-1.83,0-6.94.13-7.51a.75.75,0,0,1,.85-.6.73.73,0,0,1,.6.85c-.35,2-.73,5.58-.24,6.64a.74.74,0,0,1-.36,1A.82.82,0,0,1,224.76,364.36Z" transform="translate(-66.16 -1)"/><path class="cls-5" d="M231.28,364.36a.74.74,0,0,1-.67-.43c-.85-1.83,0-6.94.13-7.51a.75.75,0,0,1,.85-.6.73.73,0,0,1,.6.85c-.35,2-.73,5.58-.24,6.64a.74.74,0,0,1-.36,1A.87.87,0,0,1,231.28,364.36Z" transform="translate(-66.16 -1)"/><path class="cls-5" d="M228.25,373.53a.72.72,0,0,1-.67-.42c-.85-1.83,0-6.94.13-7.51a.74.74,0,0,1,1.45.25c-.36,2-.73,5.58-.24,6.64a.74.74,0,0,1-.36,1A.85.85,0,0,1,228.25,373.53Z" transform="translate(-66.16 -1)"/><path class="cls-2" d="M111.18,147.6s54.51,22.1,55.76,50.16-21.17,56.91-75.57,61.12V267s79.65.42,87.76-54c7.56-50.79-65.26-76.67-65.26-76.67A40.61,40.61,0,0,0,111.18,147.6Z" transform="translate(-66.16 -1)"/><path class="cls-1" d="M114.48,149s7.31,46.38,28.26,44.77,17.33-23.94,36-8.35,9,48.89-30.1,61.75S98,225.6,97.56,220.47C93.93,181.53,107.47,153.11,114.48,149Z" transform="translate(-66.16 -1)"/><path class="cls-1" d="M311.3,177.73s-18.1-21.08-31.1-18.48-17.41,42.36,26.29,55.92C325.05,220.93,325.16,190.36,311.3,177.73Z" transform="translate(-66.16 -1)"/><path class="cls-5" d="M273.6,181.16a.81.81,0,0,1-.31-.06c-1.43-.66-14-6.52-12.53-11.89a2.39,2.39,0,0,1,1.59-1.76c1.65-.55,4.35.49,6.91,1.89-2.85-3.17-5.31-6.81-3.78-8.75a2.23,2.23,0,0,1,1.73-.86c2.23-.09,5.74,2.54,8.36,4.87-2.27-4.41-4-8.66-3-9.78a2.93,2.93,0,0,1,2.64-1.06c4.08.5,8.79,9.36,9.31,10.37a.73.73,0,1,1-1.3.68c-1.33-2.55-5.39-9.24-8.2-9.59a1.46,1.46,0,0,0-1.34.58c-.31,1,2.58,7.15,5.46,12.26a.74.74,0,0,1-1.18.87c-2.86-3-8.22-7.73-10.59-7.73h-.07a.74.74,0,0,0-.64.29c-1.25,1.58,3.87,7.59,9.32,12.26a.74.74,0,0,1-.93,1.14c-3.54-2.74-10-6.8-12.21-6.05a1,1,0,0,0-.64.74c-.84,3.14,6.75,7.9,11.72,10.16a.74.74,0,0,1,.37,1A.73.73,0,0,1,273.6,181.16Z" transform="translate(-66.16 -1)"/><path class="cls-5" d="M183.73,195.58a.74.74,0,0,1-.4-1.36c2.43-1.54,8.74-6.17,8.84-9a1.45,1.45,0,0,0-.69-1.29c-1-.2-6.9,3.2-11.73,6.52a.75.75,0,0,1-1-.12.73.73,0,0,1,0-1c2.77-3.15,7.06-9,6.75-11.3a.79.79,0,0,0-.35-.62c-1.68-1.09-7.22,4.53-11.39,10.37a.75.75,0,0,1-1,.18.73.73,0,0,1-.2-1c2.42-3.76,5.9-10.54,5-12.69a.94.94,0,0,0-.8-.57c-3.22-.56-7.27,7.41-9.09,12.56a.73.73,0,0,1-.94.45.72.72,0,0,1-.45-.94c.52-1.48,5.27-14.48,10.74-13.53a2.42,2.42,0,0,1,1.89,1.43c.7,1.61-.1,4.38-1.27,7.06,2.9-3.12,6.32-5.89,8.38-4.54a2.25,2.25,0,0,1,1,1.65c.3,2.23-2,5.94-4.11,8.76,4.19-2.65,8.27-4.76,9.48-3.87a2.94,2.94,0,0,1,1.28,2.53c-.14,4.11-8.55,9.59-9.51,10.2A.83.83,0,0,1,183.73,195.58Z" transform="translate(-66.16 -1)"/><path class="cls-5" d="M239.89,398c-5.14,0-11.38-11.54-12.11-12.94a.73.73,0,0,1,.31-1,.75.75,0,0,1,1,.31c2.73,5.18,8.21,13,11.32,12.07.79-.25,1-.66,1.07-.95.49-1.76-2-5.48-3.77-7.57l-.18-.22a.73.73,0,0,1,1.11-1l.16.17c2.57,2.95,9.9,10.15,12.68,7.84a2,2,0,0,0,.81-1.65c0-2.17-2.78-5.13-4.56-6.75l-.92-.79a.74.74,0,0,1,1-1.12s.41.33.92.79c3.14,2.61,8,5.69,10,4.59.25-.13.25-.25.26-.31,0-1.21-3.37-4.21-6.57-6.3a.74.74,0,0,1,.81-1.23c1.23.8,7.34,4.94,7.23,7.58a1.8,1.8,0,0,1-1,1.56c-1.75,1-4.33,0-6.7-1.3a6.57,6.57,0,0,1,1.1,3.27,3.45,3.45,0,0,1-1.34,2.8c-2.54,2.1-6.66-.43-9.93-3.23a5.31,5.31,0,0,1,.41,3.23,2.83,2.83,0,0,1-2.05,2A3.2,3.2,0,0,1,239.89,398Z" transform="translate(-66.16 -1)"/><path class="cls-5" d="M118.14,394.38a2.41,2.41,0,0,1-.9-.18c-2.09-.87-2.68-4.25-2.71-7.69-1.08,2.95-2.53,5.73-4.3,6.47a1.51,1.51,0,0,1-1.65-.19c-1.62-1.34-.9-7.56-.12-12.1-2.1,3.11-5.34,7.07-8,6.89a1.63,1.63,0,0,1-1.28-.79c-1.9-3,3.34-16.65,4.41-19.34a.73.73,0,0,1,.95-.42.74.74,0,0,1,.42,1c-2.55,6.42-5.63,16.25-4.53,18,2.5.27,6.73-5.69,8.84-9.49a.74.74,0,0,1,1.37.51c-1.56,7.24-2.09,14.07-1.14,14.63,2.52-1,4.85-8.79,5.76-13.45a.72.72,0,0,1,.86-.58.74.74,0,0,1,.59.85c-.9,5-1.4,13.33,1.07,14.35a.73.73,0,0,0,.73-.05c1.84-1.12,3.1-8,3.45-12.07a.75.75,0,0,1,.8-.67.74.74,0,0,1,.67.8c-.1,1.16-1.07,11.33-4.16,13.2A2.17,2.17,0,0,1,118.14,394.38Z" transform="translate(-66.16 -1)"/><path class="cls-5" d="M115.65,240.22a.67.67,0,0,1-.24,0c-1.91-.64-5-4.79-5.36-5.26a.73.73,0,0,1,.15-1,.74.74,0,0,1,1,.16c1.21,1.63,3.54,4.36,4.65,4.73a.74.74,0,0,1-.23,1.44Z" transform="translate(-66.16 -1)"/><path class="cls-5" d="M114.51,231.25a1,1,0,0,1-.24,0c-1.9-.64-5-4.79-5.36-5.26a.73.73,0,0,1,.15-1,.73.73,0,0,1,1,.15c1.21,1.64,3.55,4.37,4.65,4.74a.74.74,0,0,1,.47.93A.75.75,0,0,1,114.51,231.25Z" transform="translate(-66.16 -1)"/><path class="cls-5" d="M129.11,246.74c-2.14,0-6.31-2.15-6.8-2.41a.76.76,0,0,1-.32-1,.74.74,0,0,1,1-.31c1.8.94,5.08,2.39,6.25,2.23a.76.76,0,0,1,.83.64.75.75,0,0,1-.64.83Z" transform="translate(-66.16 -1)"/><path class="cls-5" d="M132,241.9h0a.74.74,0,1,1,0-1.47h0c2,0,5.6-.25,6.56-.92a.74.74,0,1,1,.85,1.21C137.78,241.87,132.64,241.9,132,241.9Z" transform="translate(-66.16 -1)"/><path class="cls-5" d="M307.43,208.54c-2.1,0-6.32-2.34-6.81-2.62a.74.74,0,1,1,.73-1.28c1.77,1,5,2.53,6.17,2.42a.75.75,0,0,1,.81.67.74.74,0,0,1-.67.8Z" transform="translate(-66.16 -1)"/><path class="cls-5" d="M299.33,200.83c-2.1,0-6.32-2.34-6.81-2.62a.74.74,0,1,1,.73-1.28c1.77,1,5,2.53,6.17,2.43a.73.73,0,1,1,.15,1.46Z" transform="translate(-66.16 -1)"/><path class="cls-5" d="M312.34,201.54c-2.1,0-6.32-2.34-6.81-2.62a.73.73,0,0,1,.72-1.28c1.77,1,5,2.56,6.18,2.43a.73.73,0,0,1,.14,1.46Z" transform="translate(-66.16 -1)"/><path class="cls-5" d="M314.05,207.28c-2.1,0-6.33-2.35-6.82-2.62a.74.74,0,0,1,.73-1.29c1.77,1,5,2.54,6.18,2.43a.74.74,0,0,1,.14,1.47Z" transform="translate(-66.16 -1)"/><path class="cls-5" d="M298.66,207.28c-2.1,0-6.32-2.35-6.81-2.62a.74.74,0,0,1,.72-1.29c1.77,1,5,2.52,6.18,2.43a.74.74,0,1,1,.14,1.47Z" transform="translate(-66.16 -1)"/><path class="cls-5" d="M142.59,237.26h0a.74.74,0,1,1,0-1.47h0c2,0,5.61-.25,6.57-.92a.74.74,0,1,1,.85,1.21C148.36,237.23,143.21,237.26,142.59,237.26Z" transform="translate(-66.16 -1)"/><path class="cls-5" d="M156.66,235.61a.74.74,0,0,1-.08-1.47c2-.23,5.55-.87,6.43-1.65a.74.74,0,0,1,1,.07.73.73,0,0,1-.07,1c-1.51,1.33-6.66,1.94-7.24,2Z" transform="translate(-66.16 -1)"/><path class="cls-5" d="M149.58,242.29a.74.74,0,0,1-.08-1.47c2-.23,5.56-.88,6.43-1.65a.74.74,0,0,1,1,1.11c-1.52,1.33-6.66,1.94-7.24,2Z" transform="translate(-66.16 -1)"/><path class="cls-5" d="M127.86,238.72c-2.18,0-6.24-1.83-6.73-2.05a.74.74,0,1,1,.62-1.34c1.85.84,5.21,2.11,6.36,1.9a.74.74,0,1,1,.26,1.45A2.64,2.64,0,0,1,127.86,238.72Z" transform="translate(-66.16 -1)"/><path class="cls-5" d="M129,232.24c-2.19,0-6.24-1.83-6.74-2.05a.75.75,0,0,1-.36-1,.74.74,0,0,1,1-.37c1.85.85,5.23,2.12,6.36,1.9a.76.76,0,0,1,.86.6.74.74,0,0,1-.6.86A3.75,3.75,0,0,1,129,232.24Z" transform="translate(-66.16 -1)"/><path class="cls-5" d="M141.42,246H141a.74.74,0,0,1-.73-.75.7.7,0,0,1,.75-.73c2,0,5.62-.15,6.59-.81a.74.74,0,0,1,.82,1.23C147,245.94,142.87,246,141.42,246Z" transform="translate(-66.16 -1)"/><path class="cls-5" d="M105.94,229.3a.65.65,0,0,1-.4-.12c-1.69-1.1-3.65-5.89-3.87-6.44a.74.74,0,1,1,1.37-.55c.76,1.89,2.32,5.12,3.3,5.76a.74.74,0,0,1,.22,1A.73.73,0,0,1,105.94,229.3Z" transform="translate(-66.16 -1)"/><path class="cls-5" d="M267.47,253.8h-.06a.74.74,0,0,1-.68-.79c.14-2,.13-5.62-.47-6.62a.74.74,0,1,1,1.26-.76c1,1.73.72,6.9.68,7.48A.74.74,0,0,1,267.47,253.8Z" transform="translate(-66.16 -1)"/></svg>