<svg id="Layer_1" data-name="Layer 1" xmlns="http://www.w3.org/2000/svg" viewBox="0 0 231.39 394.46"><defs><style>.cls-1{fill:#fab217;}.cls-2{fill:#fff;}.cls-3{fill:#26192a;}.cls-4{fill:#bb7a46;}.cls-5{fill:#f8c19a;}.cls-6{fill:#98d5cc;}.cls-7{fill:#f58a28;}.cls-8{fill:#db6362;}.cls-9{fill:#6ab0a0;}</style></defs><path class="cls-1" d="M222.15,173.05s21-20.46,55.82,14.59c45.17,45.54-6.68,83.68-6.68,83.68S202.89,220.33,222.15,173.05Z" transform="translate(-79.61 -2)"/><path class="cls-2" d="M200.36,77.07s81.52-7.21,90.32-40.56S284.59-2.12,277.8,6.17,279,44.7,259.94,47.75c-11.61,1.85,17.56-29,6.4-33.82s-13.41,41.5-20.19,38.86,10.33-31.71-3.32-26.28-.6,35-18.14,36.69c-2.13.2,5.61-19.56-2-17.22s7.72,19.5-29.64,28.7C193,74.68,193.59,81,200.36,77.07Z" transform="translate(-79.61 -2)"/><path class="cls-3" d="M196.51,79.08h0c-3,0-4-2.84-4.18-4.34a.71.71,0,0,1,.53-.75c25.25-6.21,25.93-15.87,26.38-22.26.21-3,.39-5.55,3.22-6.42a3,3,0,0,1,3.42.71c1.75,2.12.72,7.35-.18,12a29.63,29.63,0,0,0-.69,4.46c8.4-1,9-9.24,9.63-17.94.57-7.84,1.16-16,7.93-18.65,2.75-1.1,4.57-.95,5.6.38,1.75,2.26.38,7.55-1.08,13.15S244,51.2,246.41,52.13a.8.8,0,0,0,.3.06c2.12,0,4.27-8.39,6.16-15.8,3-11.56,6-23.52,11.87-23.52a4.76,4.76,0,0,1,1.88.41,4.69,4.69,0,0,1,2.71,2.86c1.51,4.46-2.81,12.28-6.63,19.17-2.6,4.69-5.55,10-4.7,11.44.05.09.21.37,1,.37h0a6.19,6.19,0,0,0,.8-.07c11.63-1.86,12.74-14.49,13.72-25.63.57-6.44,1.1-12.53,3.7-15.7A9.44,9.44,0,0,1,284.38,2a8,8,0,0,1,6.3,3.34c2.49,3.23,5.89,11.6.68,31.35C287.64,50.78,271.17,62,242.41,70a268.05,268.05,0,0,1-41.83,7.78A8.56,8.56,0,0,1,196.51,79.08Zm-2.66-3.87a2.82,2.82,0,0,0,2.66,2.45h0a7.31,7.31,0,0,0,3.49-1.2.63.63,0,0,1,.29-.1c.81-.07,81.13-7.54,89.7-40,5.06-19.16,1.9-27.1-.43-30.13a6.48,6.48,0,0,0-5.18-2.78,8,8,0,0,0-6,3.2C276,9.45,275.51,15.33,275,21.54c-1,11.66-2.18,24.87-14.9,26.91a6.73,6.73,0,0,1-1,.09h0a2.39,2.39,0,0,1-2.25-1.07c-1.2-2,1-6.2,4.68-12.85,3.49-6.31,7.84-14.15,6.53-18a3.32,3.32,0,0,0-1.93-2,3.43,3.43,0,0,0-1.32-.29c-4.74,0-7.93,12.45-10.49,22.45-2.68,10.46-4.48,16.87-7.54,16.87h0a2.39,2.39,0,0,1-.82-.16c-3.55-1.39-1.91-7.72-.17-14.42,1.24-4.79,2.65-10.21,1.33-11.93a1.56,1.56,0,0,0-1.37-.55,7.5,7.5,0,0,0-2.59.62c-5.94,2.37-6.47,9.69-7,17.44-.65,9-1.33,18.33-11.29,19.29a1,1,0,0,1-.85-.35c-.58-.7-.29-2.29.4-5.83s1.8-9.19.47-10.8c-.38-.47-1-.54-1.9-.26-1.83.56-2,2.07-2.23,5.17C220.2,58.16,219.46,68.73,193.85,75.21Z" transform="translate(-79.61 -2)"/><path class="cls-2" d="M176.34,81.42s-81.29-9.5-89.15-43.09,7.18-38.44,13.73-30S98.6,46.85,117.6,50.43c11.56,2.18-16.73-29.44-5.44-34s12.24,41.86,19.08,39.41-9.42-32,4.06-26.17-.38,35,17.1,37.18c2.13.26-5.05-19.71,2.51-17.15S146.64,69,183.72,79.24C183.72,79.24,183,85.57,176.34,81.42Z" transform="translate(-79.61 -2)"/><path class="cls-3" d="M180.26,83.54a8.23,8.23,0,0,1-4.16-1.44,266.87,266.87,0,0,1-41.6-8.95C106,64.34,89.82,52.68,86.5,38.49c-4.61-19.72-1.06-28,1.47-31.2A8,8,0,0,1,94.26,4a9.34,9.34,0,0,1,7.23,3.92c2.5,3.25,2.87,9.34,3.25,15.8.66,11.16,1.42,23.82,13,26a4.4,4.4,0,0,0,.89.1c.75,0,.91-.26,1-.35.86-1.42-1.93-6.81-4.39-11.56-3.62-7-7.72-14.93-6.08-19.35a4.71,4.71,0,0,1,2.78-2.78,4.79,4.79,0,0,1,1.78-.36c5.92,0,8.66,12.12,11.31,23.85,1.62,7.11,3.62,16,5.74,16a.74.74,0,0,0,.28-.06c2.41-.86,1-7.18-.32-12.75s-2.51-10.92-.73-13.15c1.06-1.32,2.89-1.44,5.63-.25,6.7,2.88,7.06,11,7.4,18.87.39,8.7.75,16.92,9.13,18.2a30.32,30.32,0,0,0-.57-4.47c-.77-4.62-1.64-9.85.14-12a3,3,0,0,1,3.46-.64c2.81,1,2.91,3.52,3,6.51.27,6.4.67,16.07,25.73,23a.7.7,0,0,1,.52.76C184.26,80.78,183.17,83.54,180.26,83.54Zm-86-78.11a6.59,6.59,0,0,0-5.18,2.74c-2.37,3-5.67,10.86-1.2,30,7.66,32.72,87.73,42.45,88.54,42.55a.63.63,0,0,1,.29.1,7.18,7.18,0,0,0,3.55,1.3,2.84,2.84,0,0,0,2.64-2.37C157.47,72.55,157,62,156.76,55.62c-.13-3.1-.27-4.62-2.08-5.23-.9-.3-1.52-.25-1.92.22-1.35,1.59-.43,7.13.18,10.79s.83,5.14.24,5.83a.94.94,0,0,1-.74.35C142.38,66.33,142,57,141.57,48c-.35-7.76-.67-15.1-6.55-17.63a7,7,0,0,0-2.66-.7,1.49,1.49,0,0,0-1.3.54c-1.35,1.69-.1,7.14,1,11.94,1.55,6.75,3,13.12-.58,14.41a2.21,2.21,0,0,1-.76.13c-3.1,0-4.72-6.48-7.12-17.07-2.29-10.13-5.14-22.74-9.93-22.74a3.22,3.22,0,0,0-1.25.26,3.28,3.28,0,0,0-2,2c-1.42,3.83,2.7,11.79,6,18.2,3.48,6.72,5.56,10.95,4.34,12.95-.55.91-1.58,1.23-3.32.91C104.81,48.74,104,35.5,103.33,23.81c-.37-6.23-.72-12.11-3-15A7.91,7.91,0,0,0,94.26,5.43Z" transform="translate(-79.61 -2)"/><path class="cls-4" d="M238.1,197.37s.17-118.3-21.61-131.73-106.08,20.8-104.21,53.89,68.35,8.41,68.35,8.41L174.07,202Z" transform="translate(-79.61 -2)"/><path class="cls-4" d="M218.39,74.94S263.78,75,267.06,90C267.06,90,237.68,117.4,218.39,74.94Z" transform="translate(-79.61 -2)"/><path class="cls-5" d="M135.09,86.83s19.25,25.58,14.52,49c0,0-32.8,8.57-39.61-11.87S135.09,86.83,135.09,86.83Z" transform="translate(-79.61 -2)"/><path class="cls-3" d="M131.29,136.89c-2.5,0-5.12-7.14-6.15-10.28a.72.72,0,0,1,.45-.9.71.71,0,0,1,.89.45c1.78,5.4,4,9.4,4.79,9.31.06,0,1.53-.39,1.37-12.31a.7.7,0,0,1,.7-.71.67.67,0,0,1,.72.7c.15,11.69-1.21,13.49-2.56,13.72Z" transform="translate(-79.61 -2)"/><path class="cls-3" d="M123.86,94.35s7,34.92-13.86,17.86C110,112.21,111.14,102.91,123.86,94.35Z" transform="translate(-79.61 -2)"/><path class="cls-3" d="M193.08,95.33A2.11,2.11,0,0,1,192,95c-3-1.9-2.55-12.4-2.44-14.48a.71.71,0,0,1,1.42.08c-.25,4.5,0,12.08,1.78,13.2.17.11.43.2.93-.07C197.9,91.45,198,81.89,198,81.79a.7.7,0,0,1,.7-.71h0a.71.71,0,0,1,.71.71c0,.43,0,10.5-5,13.19A2.74,2.74,0,0,1,193.08,95.33Z" transform="translate(-79.61 -2)"/><path class="cls-3" d="M161.59,90.12a2,2,0,0,1-1.13-.35c-2.62-1.8-1.63-10.61-1.4-12.36a.7.7,0,0,1,.79-.61.72.72,0,0,1,.62.8c-.52,4-.61,10,.79,11,.1.06.35.24,1-.12,4.28-2.3,5.1-10.39,5.1-10.47a.71.71,0,0,1,.78-.64.7.7,0,0,1,.63.77c0,.36-.89,8.93-5.83,11.59A2.93,2.93,0,0,1,161.59,90.12Z" transform="translate(-79.61 -2)"/><path class="cls-3" d="M251.66,89.82a.72.72,0,0,1-.34-.09,54.3,54.3,0,0,0-24.76-6h0a.71.71,0,0,1,0-1.42A56.48,56.48,0,0,1,252,88.49a.72.72,0,0,1,.27,1A.71.71,0,0,1,251.66,89.82Z" transform="translate(-79.61 -2)"/><path class="cls-4" d="M237.81,179.44s42.59,50.4,31.7,113.63-88.87,53.05-112.13,29.64c-38-38.26,18.49-140.92,18.49-140.92Z" transform="translate(-79.61 -2)"/><path class="cls-4" d="M189,321.9s-.51,29.77,3.36,74.56H171.24s-9.21-38.95-6.88-74.56Z" transform="translate(-79.61 -2)"/><path class="cls-4" d="M243.94,190.56s35.32-.35,40.67-31.2c2.58-14.86-11.67-29.69-11.67-29.69l18.68-10.14s23.48,24.27,14,54.69c-11.09,35.61-49.39,44.36-49.39,44.36Z" transform="translate(-79.61 -2)"/><path class="cls-4" d="M175.89,181.47s-21.24,28.22-49.24,14.23c-13.5-6.75-17-27-17-27l-19.24,9S96,211,126.13,221.43c35.25,12.2,65-13.43,65-13.43Z" transform="translate(-79.61 -2)"/><path class="cls-4" d="M240.71,324.58S220.94,351,235.36,360s22.74,2.75,22.74,2.75L259,380.4s-19.84,6.33-34.8-3.84c-30.86-21-14.84-53.75-14.84-53.75Z" transform="translate(-79.61 -2)"/><path class="cls-5" d="M166.39,309.59s-13.3-23.74-8.93-53.12,19.64-69,47.7-47.47,37.37,95.69,13.22,108.1C178.1,337.81,166.39,309.59,166.39,309.59Z" transform="translate(-79.61 -2)"/><path class="cls-1" d="M247.42,190.3s-4.89,60.48,27.06,67.51c0,0-3.09,7.64-3.19,13.51,0,0-24.44-7.53-33.19-33.21s-.4-62.19-.4-62.19S247.9,187.36,247.42,190.3Z" transform="translate(-79.61 -2)"/><path class="cls-1" d="M175.89,181.47s-23.49,50-30.45,86.56c0,0-6.18-6.59-3.1-28.59C145.18,219.22,160.07,183.56,175.89,181.47Z" transform="translate(-79.61 -2)"/><path class="cls-4" d="M248.07,316.28,279,319.07s-14.83,31.48-34.85,11.65S248.07,316.28,248.07,316.28Z" transform="translate(-79.61 -2)"/><path class="cls-6" d="M158.53,62.43C142.87,63.42,140.64,74,140.64,74S133,100.8,161.05,98.58C187.26,96.51,177.58,61.23,158.53,62.43Zm1.64,30.18c-18.76,1.48-13.65-16.45-13.65-16.45s1.49-7.06,12-7.72C171.21,67.64,177.68,91.22,160.17,92.61Z" transform="translate(-79.61 -2)"/><path class="cls-6" d="M198.81,68.7c-15.66,1-17.89,11.55-17.89,11.55s-7.65,26.82,20.41,24.6C227.54,102.78,217.86,67.5,198.81,68.7Zm1.64,30.18c-18.76,1.48-13.65-16.45-13.65-16.45s1.49-7.06,12-7.72C211.49,73.91,218,97.49,200.45,98.88Z" transform="translate(-79.61 -2)"/><polygon class="cls-6" points="136.59 80.21 151.69 73.59 149.16 69.09 132.23 75.5 136.59 80.21"/><path class="cls-6" d="M174.09,83.46s5.45-.34,8.37,2.59l2.14-5.49A8.14,8.14,0,0,0,174.09,78Z" transform="translate(-79.61 -2)"/><polygon class="cls-3" points="202.13 140.75 220.98 130.35 212.79 114.9 193.33 127.67 202.13 140.75"/><path class="cls-3" d="M229,124.92a.71.71,0,0,1-.71-.71,41.88,41.88,0,0,0-.76-5.7.7.7,0,0,1,.55-.83.71.71,0,0,1,.84.55,43,43,0,0,1,.79,6A.71.71,0,0,1,229,124.92Z" transform="translate(-79.61 -2)"/><path class="cls-3" d="M224,129.7a.71.71,0,0,1-.71-.71,41.39,41.39,0,0,0-.77-5.7.72.72,0,0,1,.56-.83.7.7,0,0,1,.83.56,40.67,40.67,0,0,1,.8,6A.71.71,0,0,1,224,129.7Z" transform="translate(-79.61 -2)"/><path class="cls-3" d="M229.74,136a.7.7,0,0,1-.71-.7,41.63,41.63,0,0,0-.76-5.7.71.71,0,0,1,.55-.84.73.73,0,0,1,.84.56,42.56,42.56,0,0,1,.79,6A.7.7,0,0,1,229.74,136Z" transform="translate(-79.61 -2)"/><path class="cls-3" d="M223.56,142.72a.7.7,0,0,1-.71-.7,41.14,41.14,0,0,0-.77-5.7.72.72,0,0,1,.56-.84.71.71,0,0,1,.83.56,40.65,40.65,0,0,1,.8,6A.7.7,0,0,1,223.56,142.72Z" transform="translate(-79.61 -2)"/><path class="cls-3" d="M229.74,146.38a.71.71,0,0,1-.71-.71,41.88,41.88,0,0,0-.76-5.7.7.7,0,0,1,.55-.83.71.71,0,0,1,.84.55,43,43,0,0,1,.79,6A.71.71,0,0,1,229.74,146.38Z" transform="translate(-79.61 -2)"/><path class="cls-3" d="M223.17,156.31a.71.71,0,0,1-.71-.71,40.93,40.93,0,0,0-.77-5.69.72.72,0,0,1,.56-.84.71.71,0,0,1,.84.56,42.58,42.58,0,0,1,.79,6A.71.71,0,0,1,223.17,156.31Z" transform="translate(-79.61 -2)"/><path class="cls-3" d="M231,159.23a.71.71,0,0,1-.71-.71,41.88,41.88,0,0,0-.76-5.7.71.71,0,1,1,1.39-.27,42.58,42.58,0,0,1,.79,6A.71.71,0,0,1,231,159.23Z" transform="translate(-79.61 -2)"/><path class="cls-3" d="M224.73,167.84a.71.71,0,0,1-.71-.71,41.39,41.39,0,0,0-.77-5.7.72.72,0,0,1,.56-.83.7.7,0,0,1,.83.56,42.58,42.58,0,0,1,.79,6A.7.7,0,0,1,224.73,167.84Z" transform="translate(-79.61 -2)"/><path class="cls-3" d="M231.42,170.76a.71.71,0,0,1-.71-.71,41.88,41.88,0,0,0-.76-5.7.7.7,0,0,1,.55-.83.71.71,0,0,1,.84.55,43,43,0,0,1,.79,6A.71.71,0,0,1,231.42,170.76Z" transform="translate(-79.61 -2)"/><path class="cls-3" d="M222.78,115.84a.71.71,0,0,1-.71-.71,43.34,43.34,0,0,0-.76-5.7.7.7,0,0,1,.55-.83.71.71,0,0,1,.84.55,42.79,42.79,0,0,1,.79,6A.71.71,0,0,1,222.78,115.84Z" transform="translate(-79.61 -2)"/><path class="cls-3" d="M226.94,110.52a.71.71,0,0,1-.71-.71,43.34,43.34,0,0,0-.76-5.7.7.7,0,0,1,.55-.83.71.71,0,0,1,.84.55,43,43,0,0,1,.79,6A.71.71,0,0,1,226.94,110.52Z" transform="translate(-79.61 -2)"/><path class="cls-3" d="M171.24,396.46h21.14l-1.23-15.73s-19.45-1.49-23,0Z" transform="translate(-79.61 -2)"/><polygon class="cls-7" points="0 175.51 175.4 106 228.27 103.63 192.76 139.93 12.65 212.13 0 175.51"/><polygon class="cls-8" points="33.55 162.21 45.37 200.04 12.65 212.13 0 175.51 33.55 162.21"/><polygon class="cls-5" points="175.4 106 168.81 117.53 182.15 122.21 174.68 135.59 192.76 139.93 228.27 103.63 175.4 106"/><polygon class="cls-3" points="201.83 104.81 210.14 123.03 228.27 103.63 201.83 104.81"/><path class="cls-3" d="M129.59,199.87a.71.71,0,0,1-.68-.48l-12.1-36.67a.71.71,0,0,1,1.35-.44l12.1,36.66a.71.71,0,0,1-.45.9Z" transform="translate(-79.61 -2)"/><path class="cls-3" d="M121.17,169.39a.7.7,0,0,1-.66-.45.71.71,0,0,1,.4-.92l127.26-49.15a.7.7,0,0,1,.91.4.71.71,0,0,1-.4.92L121.42,169.34A.74.74,0,0,1,121.17,169.39Z" transform="translate(-79.61 -2)"/><path class="cls-3" d="M125,185.9a.71.71,0,0,1-.24-1.38L254,136.93a.71.71,0,0,1,.49,1.33L125.22,185.85A.7.7,0,0,1,125,185.9Z" transform="translate(-79.61 -2)"/><path class="cls-3" d="M279.45,204.88a.71.71,0,0,1-.15-1.41c1.1-.23,3.62-2.59,4.95-4a.71.71,0,1,1,1,1c-.38.41-3.8,4-5.69,4.44Z" transform="translate(-79.61 -2)"/><path class="cls-3" d="M279.36,197.41a.7.7,0,0,1-.69-.56.71.71,0,0,1,.54-.84c1.1-.23,3.62-2.59,5-4a.71.71,0,0,1,1,1c-.38.41-3.8,4-5.69,4.44Z" transform="translate(-79.61 -2)"/><path class="cls-3" d="M288.22,195a.72.72,0,0,1-.63-.38.7.7,0,0,1,.3-1c1-.53,2.78-3.48,3.68-5.22a.7.7,0,0,1,1.25.65c-.25.5-2.56,4.91-4.27,5.82A.76.76,0,0,1,288.22,195Z" transform="translate(-79.61 -2)"/><path class="cls-3" d="M286.82,186.68a.72.72,0,0,1-.63-.38.72.72,0,0,1,.3-1c1-.52,2.78-3.47,3.68-5.21a.7.7,0,0,1,1.25.65c-.25.5-2.56,4.91-4.27,5.82A.76.76,0,0,1,286.82,186.68Z" transform="translate(-79.61 -2)"/><path class="cls-3" d="M295.39,184.94a.72.72,0,0,1-.63-.38.71.71,0,0,1,.3-1c1-.52,2.78-3.47,3.67-5.21A.71.71,0,1,1,300,179c-.25.5-2.56,4.91-4.27,5.81A.68.68,0,0,1,295.39,184.94Z" transform="translate(-79.61 -2)"/><path class="cls-3" d="M294.21,177.68a.71.71,0,0,1-.63-.38.7.7,0,0,1,.3-1c1-.53,2.78-3.48,3.67-5.22a.72.72,0,0,1,1-.3.71.71,0,0,1,.3.95c-.25.5-2.56,4.92-4.27,5.82A.8.8,0,0,1,294.21,177.68Z" transform="translate(-79.61 -2)"/><path class="cls-3" d="M301.25,173.12a.72.72,0,0,1-.55-.26.7.7,0,0,1,.1-1c.86-.72,2-4,2.54-5.85a.71.71,0,1,1,1.36.38c-.15.54-1.51,5.33-3,6.56A.69.69,0,0,1,301.25,173.12Z" transform="translate(-79.61 -2)"/><path class="cls-3" d="M256.3,317.19a.69.69,0,0,1-.55-.27.7.7,0,0,1,.12-1c.88-.7,2.11-3.92,2.68-5.79a.71.71,0,1,1,1.35.42c-.16.53-1.64,5.29-3.16,6.48A.71.71,0,0,1,256.3,317.19Z" transform="translate(-79.61 -2)"/><path class="cls-3" d="M252.94,310.53a.7.7,0,0,1-.55-.27.71.71,0,0,1,.12-1c.88-.69,2.11-3.91,2.68-5.78a.71.71,0,0,1,1.35.41c-.16.54-1.64,5.29-3.16,6.49A.71.71,0,0,1,252.94,310.53Z" transform="translate(-79.61 -2)"/><path class="cls-3" d="M259.83,304.44a.7.7,0,0,1-.58-1.12c.66-.91,1-4.35,1-6.3a.67.67,0,0,1,.72-.69.7.7,0,0,1,.69.72c0,.56-.14,5.54-1.28,7.1A.7.7,0,0,1,259.83,304.44Z" transform="translate(-79.61 -2)"/><path class="cls-3" d="M254.92,297.61a.64.64,0,0,1-.41-.14.71.71,0,0,1-.16-1c.66-.91,1-4.34,1-6.29a.72.72,0,0,1,.71-.7h0a.71.71,0,0,1,.69.73c0,.56-.14,5.54-1.28,7.1A.72.72,0,0,1,254.92,297.61Z" transform="translate(-79.61 -2)"/><path class="cls-3" d="M261.86,292.28a.72.72,0,0,1-.58-1.13c.66-.91,1-4.34,1-6.29a.72.72,0,0,1,.71-.7h0a.71.71,0,0,1,.69.73c0,.56-.14,5.53-1.28,7.1A.72.72,0,0,1,261.86,292.28Z" transform="translate(-79.61 -2)"/><path class="cls-3" d="M257.6,286.28a.69.69,0,0,1-.41-.13.71.71,0,0,1-.16-1c.66-.91,1-4.35,1-6.3a.68.68,0,0,1,.73-.7.71.71,0,0,1,.69.73c0,.56-.14,5.54-1.28,7.1A.72.72,0,0,1,257.6,286.28Z" transform="translate(-79.61 -2)"/><path class="cls-3" d="M261.93,279.09a.8.8,0,0,1-.3-.06.71.71,0,0,1-.35-.94c.46-1,.07-4.45-.29-6.37a.71.71,0,1,1,1.39-.26c.1.55,1,5.45.19,7.21A.69.69,0,0,1,261.93,279.09Z" transform="translate(-79.61 -2)"/><path class="cls-3" d="M258.1,362.73,259,380.4s-3.63.75-15,2.2l-.64-18.88S252.91,364,258.1,362.73Z" transform="translate(-79.61 -2)"/><polygon class="cls-9" points="217 321.77 216.29 314.86 222.07 318.34 227.78 315.71 226.06 322.14 231.39 327.85 223.68 326.44 222.03 334.07 218.02 326.08 210.57 326.56 217 321.77"/><path class="cls-3" d="M162.56,264.3a.71.71,0,0,1-.68-.52,25.69,25.69,0,0,1-.67-7.16A.68.68,0,0,1,162,256a.71.71,0,0,1,.67.74,25.11,25.11,0,0,0,.62,6.7.71.71,0,0,1-.48.88Z" transform="translate(-79.61 -2)"/><path class="cls-3" d="M162.23,279.22a.73.73,0,0,1-.69-.51,25.93,25.93,0,0,1-.66-7.16.66.66,0,0,1,.74-.67.71.71,0,0,1,.67.74,25.11,25.11,0,0,0,.62,6.7.71.71,0,0,1-.49.88A.62.62,0,0,1,162.23,279.22Z" transform="translate(-79.61 -2)"/><path class="cls-3" d="M169.16,275.49a.7.7,0,0,1-.68-.51,25.69,25.69,0,0,1-.67-7.16.68.68,0,0,1,.74-.67.72.72,0,0,1,.68.74,24.48,24.48,0,0,0,.61,6.7.7.7,0,0,1-.48.87Z" transform="translate(-79.61 -2)"/><path class="cls-3" d="M169.49,290.12a.7.7,0,0,1-.68-.51,26.13,26.13,0,0,1-.67-7.16.68.68,0,0,1,.74-.68.72.72,0,0,1,.68.75,24.43,24.43,0,0,0,.61,6.69.71.71,0,0,1-.48.88Z" transform="translate(-79.61 -2)"/><path class="cls-3" d="M176.23,293.58a.72.72,0,0,1-.69-.51,25.93,25.93,0,0,1-.66-7.16.71.71,0,0,1,1.41.07,25.11,25.11,0,0,0,.62,6.7.72.72,0,0,1-.49.88Z" transform="translate(-79.61 -2)"/><path class="cls-3" d="M174.64,302.92a.73.73,0,0,1-.64-.41,26,26,0,0,1-1.77-7,.71.71,0,0,1,.63-.78.69.69,0,0,1,.78.63,24.79,24.79,0,0,0,1.65,6.52.71.71,0,0,1-.35.94A.73.73,0,0,1,174.64,302.92Z" transform="translate(-79.61 -2)"/><path class="cls-3" d="M172.06,313.08a.71.71,0,0,1-.65-.41,25.93,25.93,0,0,1-1.77-7,.71.71,0,0,1,.63-.78.7.7,0,0,1,.78.63,24.69,24.69,0,0,0,1.65,6.52.71.71,0,0,1-.34.94A.66.66,0,0,1,172.06,313.08Z" transform="translate(-79.61 -2)"/><path class="cls-3" d="M170,262.41a.71.71,0,0,1-.7-.65,26.09,26.09,0,0,1,.68-7.16.71.71,0,0,1,.85-.52.72.72,0,0,1,.53.86,24.81,24.81,0,0,0-.65,6.69.71.71,0,0,1-.64.77Z" transform="translate(-79.61 -2)"/><path class="cls-3" d="M165.1,250.13a.71.71,0,0,1-.7-.65,25.67,25.67,0,0,1,.68-7.16.71.71,0,1,1,1.37.34,25,25,0,0,0-.64,6.69.71.71,0,0,1-.64.77Z" transform="translate(-79.61 -2)"/><path class="cls-3" d="M181.18,309.71a.71.71,0,0,1-.65-.41,25.93,25.93,0,0,1-1.77-7,.71.71,0,0,1,.63-.78.7.7,0,0,1,.78.63,24.69,24.69,0,0,0,1.65,6.52.72.72,0,0,1-.34.94A.66.66,0,0,1,181.18,309.71Z" transform="translate(-79.61 -2)"/><path class="cls-3" d="M179.84,318a.71.71,0,0,1-.55-.26,26,26,0,0,1-3.43-6.32.71.71,0,0,1,1.33-.5,24.69,24.69,0,0,0,3.2,5.92.72.72,0,0,1-.1,1A.69.69,0,0,1,179.84,318Z" transform="translate(-79.61 -2)"/><path class="cls-3" d="M165.41,298.14a.71.71,0,0,1-.65-.41,26.19,26.19,0,0,1-1.76-7,.71.71,0,0,1,1.41-.14,25.38,25.38,0,0,0,1.64,6.52.71.71,0,0,1-.34.94A.66.66,0,0,1,165.41,298.14Z" transform="translate(-79.61 -2)"/><path class="cls-3" d="M249.18,257.37a.73.73,0,0,1-.58-.3l-7.66-10.7a.73.73,0,0,1-.12-.57.73.73,0,0,1,.35-.46l11.42-6.51a.72.72,0,0,1,.94.21l6.88,10a.66.66,0,0,1,.11.53.69.69,0,0,1-.29.45l-10.65,7.24A.66.66,0,0,1,249.18,257.37Zm-6.63-11.19,6.8,9.5,9.49-6.45-6.11-8.85Z" transform="translate(-79.61 -2)"/><path class="cls-3" d="M150.05,246.66a.72.72,0,0,1-.29-.06l-7.71-3.46a.72.72,0,0,1-.41-.76l1.9-11.68a.69.69,0,0,1,.83-.58L154.2,232a.7.7,0,0,1,.47.33.67.67,0,0,1,.07.57l-4,13.23a.72.72,0,0,1-.38.44A.79.79,0,0,1,150.05,246.66Zm-6.92-4.59L149.6,245l3.56-11.71-8.34-1.62Z" transform="translate(-79.61 -2)"/></svg>