<?xml version="1.0" encoding="utf-8"?>
<!-- Generator: Adobe Illustrator 24.1.2, SVG Export Plug-In . SVG Version: 6.00 Build 0)  -->
<svg version="1.1" id="Layer_1" xmlns="http://www.w3.org/2000/svg" xmlns:xlink="http://www.w3.org/1999/xlink" x="0px" y="0px"
	 viewBox="0 0 1375.8 482.2" style="enable-background:new 0 0 1375.8 482.2;" xml:space="preserve">
<style type="text/css">
	.st0{fill:url(#SVGID_1_);}
	.st1{fill:url(#SVGID_2_);}
	.st2{fill:url(#SVGID_3_);}
	.st3{fill:url(#SVGID_4_);}
	.st4{fill:url(#SVGID_5_);}
	.st5{fill:url(#SVGID_6_);}
	.st6{fill:url(#SVGID_7_);}
	.st7{fill:url(#SVGID_8_);}
	.st8{fill:url(#SVGID_9_);}
	.st9{fill:url(#SVGID_10_);}
	.st10{fill:url(#SVGID_11_);}
	.st11{fill:url(#SVGID_12_);}
	.st12{fill:url(#SVGID_13_);}
	.st13{fill:url(#SVGID_14_);}
	.st14{fill:url(#SVGID_15_);}
	.st15{fill:url(#SVGID_16_);}
	.st16{fill:url(#SVGID_17_);}
	.st17{fill:url(#SVGID_18_);}
	.st18{fill:url(#SVGID_19_);}
	.st19{fill:url(#SVGID_20_);}
	.st20{fill:url(#SVGID_21_);}
	.st21{fill:url(#SVGID_22_);}
	.st22{fill:url(#SVGID_23_);}
	.st23{fill:url(#SVGID_24_);}
	.st24{fill:url(#SVGID_25_);}
	.st25{fill:url(#SVGID_26_);}
	.st26{fill:url(#SVGID_27_);}
	.st27{fill:url(#SVGID_28_);}
	.st28{fill:url(#SVGID_29_);}
	.st29{fill:#FFFFFF;}
	.st30{fill:url(#SVGID_30_);}
	.st31{fill:url(#SVGID_31_);}
	.st32{fill:url(#SVGID_32_);}
	.st33{fill:url(#SVGID_33_);}
	.st34{fill:url(#SVGID_34_);}
	.st35{fill:url(#SVGID_35_);}
	.st36{fill:url(#SVGID_36_);}
	.st37{fill:#2ABC45;}
	.st38{fill:url(#SVGID_37_);}
</style>
<linearGradient id="SVGID_1_" gradientUnits="userSpaceOnUse" x1="1362.0599" y1="754" x2="1362.0599" y2="439.69" gradientTransform="matrix(1 0 0 1 9.39 -439.69)">
	<stop  offset="0" style="stop-color:#FFFFFF;stop-opacity:0"/>
	<stop  offset="0.84" style="stop-color:#BBEF16"/>
</linearGradient>
<path class="st0" d="M1372.1,15l-1.3-0.7l0.2,0.1L1372.1,15z"/>
<linearGradient id="SVGID_2_" gradientUnits="userSpaceOnUse" x1="1365.11" y1="754" x2="1365.11" y2="439.69" gradientTransform="matrix(1 0 0 1 9.39 -439.69)">
	<stop  offset="0" style="stop-color:#FFFFFF;stop-opacity:0"/>
	<stop  offset="0.84" style="stop-color:#BBEF16"/>
</linearGradient>
<path class="st1" d="M1373.6,15.8l1.8,1l0,0C1374.8,16.5,1374.2,16.1,1373.6,15.8z"/>
<linearGradient id="SVGID_3_" gradientUnits="userSpaceOnUse" x1="1362.71" y1="454.69" x2="1362.71" y2="454.69" gradientTransform="matrix(1 0 0 1 9.39 -439.69)">
	<stop  offset="0" style="stop-color:#FFFFFF;stop-opacity:0"/>
	<stop  offset="0.84" style="stop-color:#BBEF16"/>
</linearGradient>
<path class="st2" d="M1372.1,15L1372.1,15L1372.1,15z"/>
<radialGradient id="SVGID_4_" cx="1362.71" cy="454.69" r="0" gradientTransform="matrix(1 0 0 1 9.39 -439.69)" gradientUnits="userSpaceOnUse">
	<stop  offset="0.44" style="stop-color:#FFFFFF;stop-opacity:0"/>
	<stop  offset="0.84" style="stop-color:#2ABC45"/>
</radialGradient>
<path class="st3" d="M1372.1,15L1372.1,15L1372.1,15z"/>
<linearGradient id="SVGID_5_" gradientUnits="userSpaceOnUse" x1="1362.71" y1="454.69" x2="1362.71" y2="454.69" gradientTransform="matrix(1 0 0 1 9.39 -439.69)">
	<stop  offset="0" style="stop-color:#FFFFFF;stop-opacity:0"/>
	<stop  offset="0.84" style="stop-color:#BBEF16"/>
</linearGradient>
<path class="st4" d="M1372.1,15L1372.1,15L1372.1,15z"/>
<radialGradient id="SVGID_6_" cx="166.0089" cy="483.31" r="4.46" gradientTransform="matrix(1.0073 0 0 1 -4.4691 -439.69)" gradientUnits="userSpaceOnUse">
	<stop  offset="0.44" style="stop-color:#FFFFFF;stop-opacity:0"/>
	<stop  offset="0.84" style="stop-color:#2ABC45"/>
</radialGradient>
<path class="st5" d="M169,44.8c-3-0.7-6.1-1.4-9.3-1.9C162.8,43.4,166,44.1,169,44.8z"/>
<radialGradient id="SVGID_7_" cx="167.5957" cy="483.55" r="3.3251" gradientTransform="matrix(1.0073 0 0 1 -4.4691 -439.69)" gradientUnits="userSpaceOnUse">
	<stop  offset="0.44" style="stop-color:#FFFFFF;stop-opacity:0"/>
	<stop  offset="0.84" style="stop-color:#2ABC45"/>
</radialGradient>
<path class="st6" d="M169,44.8c-3-0.7-6.1-1.4-9.3-1.9C162.8,43.4,166,44.1,169,44.8z"/>
<linearGradient id="SVGID_8_" gradientUnits="userSpaceOnUse" x1="154.96" y1="754" x2="154.96" y2="439.69" gradientTransform="matrix(1 0 0 1 9.39 -439.69)">
	<stop  offset="0" style="stop-color:#FFFFFF;stop-opacity:0"/>
	<stop  offset="0.84" style="stop-color:#BBEF16"/>
</linearGradient>
<path class="st7" d="M169,44.8c-3-0.7-6.1-1.4-9.3-1.9C162.8,43.4,166,44.1,169,44.8z"/>
<radialGradient id="SVGID_9_" cx="112.4689" cy="484.18" r="7.6868" gradientTransform="matrix(1.0073 0 0 1 -4.4691 -439.69)" gradientUnits="userSpaceOnUse">
	<stop  offset="0.44" style="stop-color:#FFFFFF;stop-opacity:0"/>
	<stop  offset="0.84" style="stop-color:#2ABC45"/>
</radialGradient>
<path class="st8" d="M119.5,42.3c-2.5,0.3-5,0.8-7.6,1.2C114.5,43.1,117,42.6,119.5,42.3z"/>
<radialGradient id="SVGID_10_" cx="119.3289" cy="482.61" r="2.72" gradientTransform="matrix(1.0073 0 0 1 -4.4691 -439.69)" gradientUnits="userSpaceOnUse">
	<stop  offset="0.44" style="stop-color:#FFFFFF;stop-opacity:0"/>
	<stop  offset="0.84" style="stop-color:#2ABC45"/>
</radialGradient>
<path class="st9" d="M119.5,42.3c-2.5,0.3-5,0.8-7.6,1.2C114.5,43.1,117,42.6,119.5,42.3z"/>
<linearGradient id="SVGID_11_" gradientUnits="userSpaceOnUse" x1="106.31" y1="754" x2="106.31" y2="439.69" gradientTransform="matrix(1 0 0 1 9.39 -439.69)">
	<stop  offset="0" style="stop-color:#FFFFFF;stop-opacity:0"/>
	<stop  offset="0.84" style="stop-color:#BBEF16"/>
</linearGradient>
<path class="st10" d="M119.5,42.3c-2.5,0.3-5,0.8-7.6,1.2C114.5,43.1,117,42.6,119.5,42.3z"/>
<linearGradient id="SVGID_12_" gradientUnits="userSpaceOnUse" x1="1364.4601" y1="754" x2="1364.4601" y2="439.69" gradientTransform="matrix(1 0 0 1 9.39 -439.69)">
	<stop  offset="0" style="stop-color:#FFFFFF;stop-opacity:0"/>
	<stop  offset="0.84" style="stop-color:#BBEF16"/>
</linearGradient>
<path class="st11" d="M1372.4,15.1l-0.2-0.1c1.1,0.6,2.2,1.2,3.3,1.8l-1.8-1L1372.4,15.1z"/>
<radialGradient id="SVGID_13_" cx="1659.65" cy="346.91" r="0.5" gradientTransform="matrix(1 0 0 1 9.39 -439.69)" gradientUnits="userSpaceOnUse">
	<stop  offset="0.44" style="stop-color:#FFFFFF;stop-opacity:0"/>
	<stop  offset="0.84" style="stop-color:#2ABC45"/>
</radialGradient>
<path class="st12" d="M1372.4,15.1l-0.2-0.1c1.1,0.6,2.2,1.2,3.3,1.8l-1.8-1L1372.4,15.1z"/>
<linearGradient id="SVGID_14_" gradientUnits="userSpaceOnUse" x1="1364.4601" y1="754" x2="1364.4601" y2="439.69" gradientTransform="matrix(1 0 0 1 9.39 -439.69)">
	<stop  offset="0" style="stop-color:#FFFFFF;stop-opacity:0"/>
	<stop  offset="0.84" style="stop-color:#BBEF16"/>
</linearGradient>
<path class="st13" d="M1372.4,15.1l-0.2-0.1c1.1,0.6,2.2,1.2,3.3,1.8l-1.8-1L1372.4,15.1z"/>
<linearGradient id="SVGID_15_" gradientUnits="userSpaceOnUse" x1="1362.91" y1="754" x2="1362.91" y2="439.69" gradientTransform="matrix(1 0 0 1 9.39 -439.69)">
	<stop  offset="0" style="stop-color:#FFFFFF;stop-opacity:0"/>
	<stop  offset="0.84" style="stop-color:#BBEF16"/>
</linearGradient>
<path class="st14" d="M1372.4,15.1l-0.2-0.1l0,0L1372.4,15.1z"/>
<linearGradient id="SVGID_16_" gradientUnits="userSpaceOnUse" x1="1362.91" y1="754" x2="1362.91" y2="439.69" gradientTransform="matrix(1 0 0 1 9.39 -439.69)">
	<stop  offset="0" style="stop-color:#FFFFFF;stop-opacity:0"/>
	<stop  offset="0.84" style="stop-color:#BBEF16"/>
</linearGradient>
<path class="st15" d="M1372.4,15.1l-0.2-0.1l0,0L1372.4,15.1z"/>
<radialGradient id="SVGID_17_" cx="1659.65" cy="346.91" r="0.5" gradientTransform="matrix(1 0 0 1 9.39 -439.69)" gradientUnits="userSpaceOnUse">
	<stop  offset="0.44" style="stop-color:#FFFFFF;stop-opacity:0"/>
	<stop  offset="0.84" style="stop-color:#2ABC45"/>
</radialGradient>
<path class="st16" d="M1372.4,15.1l-0.2-0.1l0,0L1372.4,15.1z"/>
<linearGradient id="SVGID_18_" gradientUnits="userSpaceOnUse" x1="1362.91" y1="754" x2="1362.91" y2="439.69" gradientTransform="matrix(1 0 0 1 9.39 -439.69)">
	<stop  offset="0" style="stop-color:#FFFFFF;stop-opacity:0"/>
	<stop  offset="0.84" style="stop-color:#BBEF16"/>
</linearGradient>
<path class="st17" d="M1372.4,15.1l-0.2-0.1l0,0L1372.4,15.1z"/>
<linearGradient id="SVGID_19_" gradientUnits="userSpaceOnUse" x1="1360.11" y1="754" x2="1360.11" y2="439.69" gradientTransform="matrix(1 0 0 1 9.39 -439.69)">
	<stop  offset="0" style="stop-color:#FFFFFF;stop-opacity:0"/>
	<stop  offset="0.84" style="stop-color:#BBEF16"/>
</linearGradient>
<path class="st18" d="M1371,14.4l-0.2-0.1c-0.9-0.5-1.8-1-2.8-1.4C1369,13.3,1370,13.9,1371,14.4z"/>
<radialGradient id="SVGID_20_" cx="1659.65" cy="346.91" r="0.5" gradientTransform="matrix(1 0 0 1 9.39 -439.69)" gradientUnits="userSpaceOnUse">
	<stop  offset="0.44" style="stop-color:#FFFFFF;stop-opacity:0"/>
	<stop  offset="0.84" style="stop-color:#2ABC45"/>
</radialGradient>
<path class="st19" d="M1371,14.4l-0.2-0.1c-0.9-0.5-1.8-1-2.8-1.4C1369,13.3,1370,13.9,1371,14.4z"/>
<linearGradient id="SVGID_21_" gradientUnits="userSpaceOnUse" x1="1360.11" y1="754" x2="1360.11" y2="439.69" gradientTransform="matrix(1 0 0 1 9.39 -439.69)">
	<stop  offset="0" style="stop-color:#FFFFFF;stop-opacity:0"/>
	<stop  offset="0.84" style="stop-color:#BBEF16"/>
</linearGradient>
<path class="st20" d="M1371,14.4l-0.2-0.1c-0.9-0.5-1.8-1-2.8-1.4C1369,13.3,1370,13.9,1371,14.4z"/>
<radialGradient id="SVGID_22_" cx="108.6758" cy="484.79" r="4.9783" gradientTransform="matrix(1.0073 0 0 1 -4.4691 -439.69)" gradientUnits="userSpaceOnUse">
	<stop  offset="0.44" style="stop-color:#FFFFFF;stop-opacity:0"/>
	<stop  offset="0.84" style="stop-color:#2ABC45"/>
</radialGradient>
<path class="st21" d="M111.9,43.5c-4.5,0.8-9.1,1.9-13.8,3.1C102.8,45.4,107.4,44.4,111.9,43.5z"/>
<linearGradient id="SVGID_23_" gradientUnits="userSpaceOnUse" x1="95.61" y1="754" x2="95.61" y2="439.69" gradientTransform="matrix(1 0 0 1 9.39 -439.69)">
	<stop  offset="0" style="stop-color:#FFFFFF;stop-opacity:0"/>
	<stop  offset="0.84" style="stop-color:#BBEF16"/>
</linearGradient>
<path class="st22" d="M111.9,43.5c-4.5,0.8-9.1,1.9-13.8,3.1C102.8,45.4,107.4,44.4,111.9,43.5z"/>
<radialGradient id="SVGID_24_" cx="112.4689" cy="484.18" r="7.69" gradientTransform="matrix(1.0073 0 0 1 -4.4691 -439.69)" gradientUnits="userSpaceOnUse">
	<stop  offset="0.44" style="stop-color:#FFFFFF;stop-opacity:0"/>
	<stop  offset="0.84" style="stop-color:#2ABC45"/>
</radialGradient>
<path class="st23" d="M111.9,43.5c-4.5,0.8-9.1,1.9-13.8,3.1C102.8,45.4,107.4,44.4,111.9,43.5z"/>
<radialGradient id="SVGID_25_" cx="108.6758" cy="484.79" r="4.9783" gradientTransform="matrix(1.0073 0 0 1 -4.4691 -439.69)" gradientUnits="userSpaceOnUse">
	<stop  offset="0.44" style="stop-color:#FFFFFF;stop-opacity:0"/>
	<stop  offset="0.84" style="stop-color:#2ABC45"/>
</radialGradient>
<path class="st24" d="M111.9,43.5c-4.5,0.8-9.1,1.9-13.8,3.1C102.8,45.4,107.4,44.4,111.9,43.5z"/>
<linearGradient id="SVGID_26_" gradientUnits="userSpaceOnUse" x1="95.61" y1="754" x2="95.61" y2="439.69" gradientTransform="matrix(1 0 0 1 9.39 -439.69)">
	<stop  offset="0" style="stop-color:#FFFFFF;stop-opacity:0"/>
	<stop  offset="0.84" style="stop-color:#BBEF16"/>
</linearGradient>
<path class="st25" d="M111.9,43.5c-4.5,0.8-9.1,1.9-13.8,3.1C102.8,45.4,107.4,44.4,111.9,43.5z"/>
<radialGradient id="SVGID_27_" cx="33.4089" cy="524.02" r="33.38" gradientTransform="matrix(1.0073 0 0 1 -4.4691 -439.69)" gradientUnits="userSpaceOnUse">
	<stop  offset="0.44" style="stop-color:#FFFFFF;stop-opacity:0"/>
	<stop  offset="0.84" style="stop-color:#2ABC45"/>
</radialGradient>
<path class="st26" d="M-0.2,102.6l-0.3,0.2l0,0L-0.2,102.6z"/>
<radialGradient id="SVGID_28_" cx="4.0489" cy="542.4" r="0.14" gradientTransform="matrix(1.0073 0 0 1 -4.4691 -439.69)" gradientUnits="userSpaceOnUse">
	<stop  offset="0.44" style="stop-color:#FFFFFF;stop-opacity:0"/>
	<stop  offset="0.84" style="stop-color:#2ABC45"/>
</radialGradient>
<path class="st27" d="M-0.2,102.6l-0.3,0.2l0,0L-0.2,102.6z"/>
<linearGradient id="SVGID_29_" gradientUnits="userSpaceOnUse" x1="-9.74" y1="754" x2="-9.74" y2="439.69" gradientTransform="matrix(1 0 0 1 9.39 -439.69)">
	<stop  offset="0" style="stop-color:#FFFFFF;stop-opacity:0"/>
	<stop  offset="0.84" style="stop-color:#BBEF16"/>
</linearGradient>
<path class="st28" d="M-0.2,102.6l-0.3,0.2l0,0L-0.2,102.6z"/>
<path class="st29" d="M1375.4,16.8L1375.4,16.8l0.4,0.3L1375.4,16.8z"/>
<path d="M1375.4,16.8L1375.4,16.8l0.4,0.3L1375.4,16.8L1375.4,16.8z"/>
<linearGradient id="SVGID_30_" gradientUnits="userSpaceOnUse" x1="1366.2101" y1="742.03" x2="1366.2101" y2="408.64" gradientTransform="matrix(1 0 0 1 9.39 -439.69)">
	<stop  offset="0" style="stop-color:#FFFFFF;stop-opacity:0"/>
	<stop  offset="0.84" style="stop-color:#BBEF16"/>
</linearGradient>
<path class="st30" d="M1375.4,16.8L1375.4,16.8l0.4,0.3L1375.4,16.8z"/>
<path class="st29" d="M-0.5,102.8c-0.3,0.3-0.7,0.6-1,0.9L-0.5,102.8L-0.5,102.8L-0.5,102.8z"/>
<path d="M-0.5,102.8c-0.3,0.3-0.7,0.6-1,0.9L-0.5,102.8L-0.5,102.8L-0.5,102.8z"/>
<radialGradient id="SVGID_31_" cx="18.5889" cy="533.26" r="16.65" gradientTransform="matrix(1.0073 0 0 1 -4.4691 -439.69)" gradientUnits="userSpaceOnUse">
	<stop  offset="0.44" style="stop-color:#FFFFFF;stop-opacity:0"/>
	<stop  offset="0.84" style="stop-color:#2ABC45"/>
</radialGradient>
<path class="st31" d="M-0.5,102.8c-0.3,0.3-0.7,0.6-1,0.9L-0.5,102.8L-0.5,102.8L-0.5,102.8z"/>
<radialGradient id="SVGID_32_" cx="3.3989" cy="542.95" r="0.47" gradientTransform="matrix(1.0073 0 0 1 -4.4691 -439.69)" gradientUnits="userSpaceOnUse">
	<stop  offset="0.44" style="stop-color:#FFFFFF;stop-opacity:0"/>
	<stop  offset="0.84" style="stop-color:#2ABC45"/>
</radialGradient>
<path class="st32" d="M-0.5,102.8c-0.3,0.3-0.7,0.6-1,0.9L-0.5,102.8L-0.5,102.8L-0.5,102.8z"/>
<linearGradient id="SVGID_33_" gradientUnits="userSpaceOnUse" x1="-10.39" y1="643.18" x2="-10.39" y2="475.36" gradientTransform="matrix(1 0 0 1 9.39 -439.69)">
	<stop  offset="0" style="stop-color:#FFFFFF;stop-opacity:0"/>
	<stop  offset="0.84" style="stop-color:#BBEF16"/>
</linearGradient>
<path class="st33" d="M-0.5,102.8c-0.3,0.3-0.7,0.6-1,0.9L-0.5,102.8L-0.5,102.8L-0.5,102.8z"/>
<path class="st29" d="M-5.1,106.7c-1.6,1.4-3.3,2.9-4.9,4.4C-8.3,109.6-6.7,108.1-5.1,106.7z"/>
<path d="M-5.1,106.7c-1.6,1.4-3.3,2.9-4.9,4.4C-8.3,109.6-6.7,108.1-5.1,106.7z"/>
<radialGradient id="SVGID_34_" cx="33.3989" cy="523.98" r="33.4" gradientTransform="matrix(1.0073 0 0 1 -4.4691 -439.69)" gradientUnits="userSpaceOnUse">
	<stop  offset="0.44" style="stop-color:#FFFFFF;stop-opacity:0"/>
	<stop  offset="0.84" style="stop-color:#2ABC45"/>
</radialGradient>
<path class="st34" d="M-5.1,106.7c-1.6,1.4-3.3,2.9-4.9,4.4C-8.3,109.6-6.7,108.1-5.1,106.7z"/>
<radialGradient id="SVGID_35_" cx="-3.0411" cy="548.58" r="2.3189" gradientTransform="matrix(1.0073 0 0 1 -4.4691 -439.69)" gradientUnits="userSpaceOnUse">
	<stop  offset="0.44" style="stop-color:#FFFFFF;stop-opacity:0"/>
	<stop  offset="0.84" style="stop-color:#2ABC45"/>
</radialGradient>
<path class="st35" d="M-5.1,106.7c-1.6,1.4-3.3,2.9-4.9,4.4C-8.3,109.6-6.7,108.1-5.1,106.7z"/>
<linearGradient id="SVGID_36_" gradientUnits="userSpaceOnUse" x1="-16.94" y1="743.92" x2="-16.94" y2="408.13" gradientTransform="matrix(1 0 0 1 9.39 -439.69)">
	<stop  offset="0" style="stop-color:#FFFFFF;stop-opacity:0"/>
	<stop  offset="0.84" style="stop-color:#BBEF16"/>
</linearGradient>
<path class="st36" d="M-5.1,106.7c-1.6,1.4-3.3,2.9-4.9,4.4C-8.3,109.6-6.7,108.1-5.1,106.7z"/>
<path class="st37" d="M1375.3,314.3V16.8c-1-0.6-2.1-1.2-3.2-1.8l-1.1-0.6c-0.5-0.2-1-0.5-1.5-0.8c0.4,0.2,0.8,0.4,1.3,0.6l-0.9-0.5
	l-1.9-1c-0.8-0.4-1.7-0.8-2.5-1.2l-0.4-0.2l-2.2-1l-0.5-0.2l-2-0.9l-0.5-0.2c-0.7-0.3-1.3-0.6-2-0.8l-0.5-0.2l-2.2-0.8l-0.3-0.1
	c-2.6-1-5.1-1.8-7.7-2.5h-0.1c-0.8-0.2-1.6-0.5-2.4-0.7l-0.4-0.1c-0.7-0.2-1.4-0.4-2-0.5l-0.5-0.1l-2-0.5l-0.6-0.1l-2-0.4l-0.5-0.1
	c-0.7-0.1-1.4-0.3-2.1-0.4l-0.3-0.1c-2.5-0.4-5-0.8-7.5-1h-0.1l-2.3-0.2h-0.4c-0.7,0-1.3-0.1-2-0.1h-0.5l-1.9-0.1h-0.6h-1.9h-2.9
	c-2.4,0-4.8,0.1-7.2,0.3h-0.1c-0.7,0-1.5,0.1-2.2,0.2h-0.4l-1.9,0.2l-0.5,0.1l-1.8,0.2l-0.5,0.1c-0.6,0.1-1.2,0.2-1.8,0.2l-0.5,0.1
	l-1.9,0.3L1295,2c-2.3,0.4-4.5,0.8-6.8,1.4h-0.1l-2,0.5l-0.4,0.1c-0.6,0.1-1.2,0.3-1.8,0.5l-0.5,0.1l-1.7,0.5l-0.5,0.1l-1.7,0.5
	l-0.5,0.1l-1.8,0.5l-0.4,0.1c-2.2,0.7-4.3,1.4-6.4,2.2h-0.1l-1.9,0.7l-0.4,0.2l-1.6,0.6l-0.5,0.2l-1.5,0.6l-0.5,0.2l-1.5,0.7
	l-0.5,0.2l-1.6,0.7l-0.3,0.2c-2,0.9-4,1.9-5.9,2.8l-0.1,0.1l-1.7,0.9l-0.4,0.2l-1.5,0.8l-0.5,0.2l-1.4,0.8L1248,19l-1.4,0.8
	l-0.4,0.2l-1.5,0.9l-0.3,0.2l-1.7,1c-1.2,0.7-2.4,1.5-3.6,2.2l-0.1,0.1l-1.6,1l-0.3,0.2l-1.4,0.9l-0.4,0.3l-1.3,0.8l-0.4,0.3
	l-1.2,0.8L1232,29l-1.3,0.9l-0.3,0.2c-0.5,0.4-1,0.7-1.5,1.1h-0.1c-1.1,0.8-2.1,1.5-3.2,2.3l-0.1,0.1l-1.4,1l-0.3,0.2l-1.2,0.9
	l-0.4,0.3l-1.1,0.8l-0.4,0.3l-1.1,0.9l-0.4,0.3l-1.1,0.9l-0.3,0.2c-0.4,0.3-0.8,0.7-1.3,1l-0.1,0.1c-0.9,0.8-1.9,1.5-2.7,2.3
	l-0.1,0.1l-1.2,1l-0.3,0.2l-1,0.9l-0.3,0.3l-0.9,0.8l-0.4,0.3l-0.9,0.8l-0.3,0.3l-0.9,0.8l-0.3,0.2l-1.1,1l-0.1,0.1
	c-0.8,0.7-1.5,1.4-2.3,2.1l-0.2,0.1l-0.9,0.9l-0.3,0.2l-0.8,0.8l-0.3,0.3l-0.7,0.7l-0.3,0.3l-0.7,0.7l-0.3,0.3l-0.7,0.7l-0.2,0.2
	l-0.8,0.8l-0.1,0.1l-1.8,1.8l-0.1,0.1l-0.7,0.7l-0.2,0.2l-0.6,0.6l-0.2,0.3l-0.5,0.5c-0.1,0.1-0.2,0.2-0.3,0.3l-0.5,0.5l-0.3,0.3
	c-0.2,0.2-0.3,0.3-0.5,0.5l-0.2,0.2l-0.5,0.6l-0.1,0.1L1190,66l-0.1,0.1l-0.4,0.5l-0.2,0.2l-0.3,0.4l-0.2,0.2
	c-0.1,0.1-0.2,0.2-0.3,0.3l-0.2,0.2c-0.1,0.1-0.2,0.2-0.3,0.3l-0.2,0.2c-0.1,0.1-0.2,0.2-0.3,0.3l-0.1,0.2l-0.3,0.3l-0.1,0.1
	l-0.6,0.7l-0.1,0.1l-0.2,0.2l-0.1,0.1l-0.1,0.2l-0.1,0.1l-0.1,0.1c0,0,0,0.1-0.1,0.1l-0.1,0.1v0.1c0,0,0,0,0,0.1
	c-112.8-57-143,53-143,53c-90.7-35-148.1,47-148.1,47c-86.6-120-206.5-16-206.5-16c-61.4-94-150.1-4-150.1-4c-90.7-62-144,4-144,4
	c-66.5-65-120.9-3-120.9-3c-0.1-0.5-0.1-0.9-0.2-1.4c0-0.2-0.1-0.3-0.1-0.4l-0.2-1c0-0.2-0.1-0.4-0.1-0.5c0-0.1-0.1-0.6-0.2-0.9
	c-0.1-0.3-0.1-0.4-0.1-0.6c-0.1-0.2-0.1-0.6-0.2-0.9c-0.1-0.3-0.1-0.4-0.2-0.6l-0.2-0.9c0-0.2-0.1-0.4-0.2-0.6
	c-0.1-0.2-0.2-0.6-0.2-0.9l-0.2-0.7c-0.1-0.3-0.2-0.6-0.3-0.9s-0.1-0.5-0.2-0.7l-0.3-0.9c-0.1-0.2-0.1-0.5-0.2-0.7
	c-0.1-0.2-0.2-0.6-0.3-0.9l-0.2-0.7l-0.3-0.9l-0.3-0.7l-0.3-0.9c-0.1-0.2-0.2-0.5-0.3-0.7s-0.2-0.6-0.3-0.9
	c-0.1-0.3-0.2-0.5-0.3-0.7s-0.2-0.6-0.4-0.9c-0.2-0.3-0.2-0.5-0.3-0.7l-0.4-1c-0.1-0.2-0.2-0.5-0.3-0.7l-0.4-1
	c-0.1-0.2-0.2-0.5-0.3-0.7l-0.5-1.1c-0.1-0.2-0.2-0.4-0.3-0.6l-0.5-1.2c-0.1-0.2-0.2-0.4-0.3-0.5l-0.8-1.6l-0.1-0.2
	c-0.3-0.6-0.6-1.1-0.9-1.7c-0.1-0.2-0.2-0.3-0.3-0.5c-0.2-0.4-0.4-0.8-0.6-1.2c-0.1-0.2-0.2-0.5-0.4-0.7l-0.6-1l-0.4-0.8
	c-0.2-0.3-0.4-0.7-0.6-1s-0.3-0.5-0.4-0.8c-0.2-0.3-0.4-0.7-0.6-1s-0.3-0.5-0.5-0.8l-0.6-1l-0.5-0.8l-0.6-0.9l-0.5-0.8
	c-0.2-0.3-0.4-0.6-0.6-0.9l-0.5-0.9c-0.2-0.3-0.4-0.6-0.6-0.9c-0.2-0.3-0.4-0.6-0.6-0.9l-0.6-0.9l-0.6-0.9l-0.6-0.9l-0.6-0.9
	l-0.6-0.9l-0.6-0.9l-0.6-0.9l-0.6-0.9l-0.7-0.9c-0.2-0.3-0.4-0.6-0.7-0.9l-0.7-0.9l-0.7-0.9l-0.7-0.8c-0.2-0.3-0.5-0.6-0.7-0.9
	l-0.7-0.8l-0.8-0.9l-0.6-0.7c-1-1.2-2.1-2.4-3.1-3.6l-0.6-0.7c-0.3-0.3-0.6-0.6-0.9-0.9s-0.5-0.5-0.7-0.7c-0.2-0.2-0.6-0.6-0.9-0.9
	l-0.7-0.7l-0.9-0.9l-0.7-0.7l-0.9-0.9l-0.7-0.7l-0.9-0.9l-0.7-0.7l-0.9-0.9l-0.7-0.7l-1-0.9l-0.8-0.7l-1-0.9l-0.8-0.7l-1-0.9
	l-0.8-0.7l-1-0.9c-0.3-0.2-0.5-0.4-0.8-0.6l-1.3-0.7l-0.8-0.6l-1.1-0.9l-0.8-0.6l-1.1-0.9l-0.8-0.6l-1.2-0.9l-0.7-0.5l-1.3-0.9
	l-0.6-0.4c-0.5-0.3-0.9-0.6-1.4-1l-0.3-0.2c-2.4-1.6-4.8-3.1-7.3-4.6l-0.5-0.3l-1.5-0.9l-0.7-0.4l-1.4-0.8l-0.7-0.4l-1.4-0.7
	l-0.8-0.4l-1.4-0.7l-0.8-0.4l-1.4-0.7l-0.9-0.4l-1.4-0.6l-0.9-0.4l-1.4-0.6l-0.9-0.4l-1.5-0.6l-0.9-0.4l-1.5-0.6l-0.9-0.3l-1.5-0.6
	l-0.9-0.3l-1.6-0.5l-0.8-0.3l-1.6-0.5l-0.8-0.2l-1.7-0.5l-0.7-0.2c-0.6-0.2-1.2-0.4-1.8-0.5l-0.5-0.1l-2.1-0.5
	c-3-0.7-6.1-1.4-9.3-1.9c-1.1-0.2-2.1-0.3-3.2-0.5l-0.4-0.1c-0.7-0.1-1.4-0.2-2.1-0.3l-0.6-0.1l-2-0.2l-0.7-0.1
	c-0.7-0.1-1.3-0.1-2-0.2l-0.8-0.1l-2-0.1H144l-2-0.1h-0.9h-2h-3.7h-2h-0.8l-2.1,0.1h-0.8l-2.2,0.1h-0.7c-0.8,0.1-1.5,0.1-2.3,0.2
	l-0.6,0.1l-2.4,0.2h-0.4c-0.9,0.1-1.8,0.2-2.6,0.3h-0.1c-2.5,0.3-5,0.8-7.6,1.2c-4.5,0.8-9.1,1.9-13.8,3.1l-3,0.8l-0.3,0.1
	c-1,0.3-1.9,0.6-2.9,0.9l-0.4,0.1c-0.9,0.3-1.9,0.6-2.8,0.9l-0.5,0.2l-2.8,1l0.7,0.8l-2.8,1l-0.5,0.2c-0.9,0.4-1.9,0.7-2.8,1.1
	l-0.5,0.2l-2.9,1.2L75,54.6c-1,0.4-2,0.8-3,1.3L71.6,56c-1,0.5-2,0.9-3.1,1.4l-0.2,0.1c-1.4,0.7-2.9,1.3-4.3,2l-1.6,0.8
	c-0.9,0.5-1.9,0.9-2.8,1.4l-1.3,0.7l-0.5,0.3l-2,1.1L55.2,64l-2,1.1l-2.4,1.5l-2,1.2l-2.5,1.4l-0.6,0.3l-1.5,0.9l-2.5,1.5L41,72.3
	l-1.3,0.8l-2.3,1.5L37,74.8L35.2,76c-1.3,0.9-2.7,1.8-4,2.7L30,79.5l-0.9,0.6c-1,0.7-2,1.4-3,2.1L24,83.7l-0.7,0.5l-1.9,1.3
	l-1.6,1.2l-0.7,0.5c-0.8,0.6-1.6,1.2-2.4,1.8c-0.6,0.5-1.2,0.9-1.9,1.4l-0.5,0.4l-2.4,1.8l-1,0.8l-1.4,1.1L8,95.7l-0.9,0.7l-2.5,2
	l-0.4,0.3l-1.9,1.6c-0.9,0.7-1.8,1.4-2.6,2.2l-0.3,0.3v211.5v167.9h1376.4V314.3H1375.3z M169,44.8c-3-0.7-6.2-1.4-9.3-1.9
	C162.9,43.4,166,44.1,169,44.8z M117.4,42.6c-1.8,0.3-3.7,0.6-5.5,0.9C113.8,43.1,115.6,42.8,117.4,42.6z"/>
<linearGradient id="SVGID_37_" gradientUnits="userSpaceOnUse" x1="687.6" y1="456.2334" x2="687.6" y2="-28.8792">
	<stop  offset="0" style="stop-color:#FFFFFF;stop-opacity:0"/>
	<stop  offset="1" style="stop-color:#E6EF20"/>
</linearGradient>
<path class="st38" d="M1375.3,314.3V16.8c-1-0.6-2.1-1.2-3.2-1.8l-1.1-0.6c-0.5-0.2-1-0.5-1.5-0.8c0.4,0.2,0.8,0.4,1.3,0.6l-0.9-0.5
	l-1.9-1c-0.8-0.4-1.7-0.8-2.5-1.2l-0.4-0.2l-2.2-1l-0.5-0.2l-2-0.9l-0.5-0.2c-0.7-0.3-1.3-0.6-2-0.8l-0.5-0.2l-2.2-0.8l-0.3-0.1
	c-2.6-1-5.1-1.8-7.7-2.5h-0.1c-0.8-0.2-1.6-0.5-2.4-0.7l-0.4-0.1c-0.7-0.2-1.4-0.4-2-0.5l-0.5-0.1l-2-0.5l-0.6-0.1l-2-0.4l-0.5-0.1
	c-0.7-0.1-1.4-0.3-2.1-0.4l-0.3-0.1c-2.5-0.4-5-0.8-7.5-1h-0.1l-2.3-0.2h-0.4c-0.7,0-1.3-0.1-2-0.1h-0.5l-1.9-0.1h-0.6h-1.9h-2.9
	c-2.4,0-4.8,0.1-7.2,0.3h-0.1c-0.7,0-1.5,0.1-2.2,0.2h-0.4l-1.9,0.2l-0.5,0.1l-1.8,0.2l-0.5,0.1c-0.6,0.1-1.2,0.2-1.8,0.2l-0.5,0.1
	l-1.9,0.3L1295,2c-2.3,0.4-4.5,0.8-6.8,1.4h-0.1l-2,0.5l-0.4,0.1c-0.6,0.1-1.2,0.3-1.8,0.5l-0.5,0.1l-1.7,0.5l-0.5,0.1l-1.7,0.5
	l-0.5,0.1l-1.8,0.5l-0.4,0.1c-2.2,0.7-4.3,1.4-6.4,2.2h-0.1l-1.9,0.7l-0.4,0.2l-1.6,0.6l-0.5,0.2l-1.5,0.6l-0.5,0.2l-1.5,0.7
	l-0.5,0.2l-1.6,0.7l-0.3,0.2c-2,0.9-4,1.9-5.9,2.8l-0.1,0.1l-1.7,0.9l-0.4,0.2l-1.5,0.8l-0.5,0.2l-1.4,0.8L1248,19l-1.4,0.8
	l-0.4,0.2l-1.5,0.9l-0.3,0.2l-1.7,1c-1.2,0.7-2.4,1.5-3.6,2.2l-0.1,0.1l-1.6,1l-0.3,0.2l-1.4,0.9l-0.4,0.3l-1.3,0.8l-0.4,0.3
	l-1.2,0.8L1232,29l-1.3,0.9l-0.3,0.2c-0.5,0.4-1,0.7-1.5,1.1h-0.1c-1.1,0.8-2.1,1.5-3.2,2.3l-0.1,0.1l-1.4,1l-0.3,0.2l-1.2,0.9
	l-0.4,0.3l-1.1,0.8l-0.4,0.3l-1.1,0.9l-0.4,0.3l-1.1,0.9l-0.3,0.2c-0.4,0.3-0.8,0.7-1.3,1l-0.1,0.1c-0.9,0.8-1.9,1.5-2.7,2.3
	l-0.1,0.1l-1.2,1l-0.3,0.2l-1,0.9l-0.3,0.3l-0.9,0.8l-0.4,0.3l-0.9,0.8l-0.3,0.3l-0.9,0.8l-0.3,0.2l-1.1,1l-0.1,0.1
	c-0.8,0.7-1.5,1.4-2.3,2.1l-0.2,0.1l-0.9,0.9l-0.3,0.2l-0.8,0.8l-0.3,0.3l-0.7,0.7l-0.3,0.3l-0.7,0.7l-0.3,0.3l-0.7,0.7l-0.2,0.2
	l-0.8,0.8l-0.1,0.1l-1.8,1.8l-0.1,0.1l-0.7,0.7l-0.2,0.2l-0.6,0.6l-0.2,0.3l-0.5,0.5c-0.1,0.1-0.2,0.2-0.3,0.3l-0.5,0.5l-0.3,0.3
	c-0.2,0.2-0.3,0.3-0.5,0.5l-0.2,0.2l-0.5,0.6l-0.1,0.1L1190,66l-0.1,0.1l-0.4,0.5l-0.2,0.2l-0.3,0.4l-0.2,0.2
	c-0.1,0.1-0.2,0.2-0.3,0.3l-0.2,0.2c-0.1,0.1-0.2,0.2-0.3,0.3l-0.2,0.2c-0.1,0.1-0.2,0.2-0.3,0.3l-0.1,0.2l-0.3,0.3l-0.1,0.1
	l-0.6,0.7l-0.1,0.1l-0.2,0.2l-0.1,0.1l-0.1,0.2l-0.1,0.1l-0.1,0.1c0,0,0,0.1-0.1,0.1l-0.1,0.1v0.1c0,0,0,0,0,0.1
	c-112.8-57-143,53-143,53c-90.7-35-148.1,47-148.1,47c-86.6-120-206.5-16-206.5-16c-61.4-94-150.1-4-150.1-4c-90.7-62-144,4-144,4
	c-66.5-65-120.9-3-120.9-3c-0.1-0.5-0.1-0.9-0.2-1.4c0-0.2-0.1-0.3-0.1-0.4l-0.2-1c0-0.2-0.1-0.4-0.1-0.5c0-0.1-0.1-0.6-0.2-0.9
	c-0.1-0.3-0.1-0.4-0.1-0.6c-0.1-0.2-0.1-0.6-0.2-0.9c-0.1-0.3-0.1-0.4-0.2-0.6l-0.2-0.9c0-0.2-0.1-0.4-0.2-0.6
	c-0.1-0.2-0.2-0.6-0.2-0.9l-0.2-0.7c-0.1-0.3-0.2-0.6-0.3-0.9s-0.1-0.5-0.2-0.7l-0.3-0.9c-0.1-0.2-0.1-0.5-0.2-0.7
	c-0.1-0.2-0.2-0.6-0.3-0.9l-0.2-0.7l-0.3-0.9l-0.3-0.7l-0.3-0.9c-0.1-0.2-0.2-0.5-0.3-0.7s-0.2-0.6-0.3-0.9
	c-0.1-0.3-0.2-0.5-0.3-0.7s-0.2-0.6-0.4-0.9c-0.2-0.3-0.2-0.5-0.3-0.7l-0.4-1c-0.1-0.2-0.2-0.5-0.3-0.7l-0.4-1
	c-0.1-0.2-0.2-0.5-0.3-0.7l-0.5-1.1c-0.1-0.2-0.2-0.4-0.3-0.6l-0.5-1.2c-0.1-0.2-0.2-0.4-0.3-0.5l-0.8-1.6l-0.1-0.2
	c-0.3-0.6-0.6-1.1-0.9-1.7c-0.1-0.2-0.2-0.3-0.3-0.5c-0.2-0.4-0.4-0.8-0.6-1.2c-0.1-0.2-0.2-0.5-0.4-0.7l-0.6-1l-0.4-0.8
	c-0.2-0.3-0.4-0.7-0.6-1s-0.3-0.5-0.4-0.8c-0.2-0.3-0.4-0.7-0.6-1s-0.3-0.5-0.5-0.8l-0.6-1l-0.5-0.8l-0.6-0.9l-0.5-0.8
	c-0.2-0.3-0.4-0.6-0.6-0.9l-0.5-0.9c-0.2-0.3-0.4-0.6-0.6-0.9c-0.2-0.3-0.4-0.6-0.6-0.9l-0.6-0.9l-0.6-0.9l-0.6-0.9l-0.6-0.9
	l-0.6-0.9l-0.6-0.9l-0.6-0.9l-0.6-0.9l-0.7-0.9c-0.2-0.3-0.4-0.6-0.7-0.9l-0.7-0.9l-0.7-0.9l-0.7-0.8c-0.2-0.3-0.5-0.6-0.7-0.9
	l-0.7-0.8l-0.8-0.9l-0.6-0.7c-1-1.2-2.1-2.4-3.1-3.6l-0.6-0.7c-0.3-0.3-0.6-0.6-0.9-0.9s-0.5-0.5-0.7-0.7c-0.2-0.2-0.6-0.6-0.9-0.9
	l-0.7-0.7l-0.9-0.9l-0.7-0.7l-0.9-0.9l-0.7-0.7l-0.9-0.9l-0.7-0.7l-0.9-0.9l-0.7-0.7l-1-0.9l-0.8-0.7l-1-0.9l-0.8-0.7l-1-0.9
	l-0.8-0.7l-1-0.9c-0.3-0.2-0.5-0.4-0.8-0.6l-1.3-0.7l-0.8-0.6l-1.1-0.9l-0.8-0.6l-1.1-0.9l-0.8-0.6l-1.2-0.9l-0.7-0.5l-1.3-0.9
	l-0.6-0.4c-0.5-0.3-0.9-0.6-1.4-1l-0.3-0.2c-2.4-1.6-4.8-3.1-7.3-4.6l-0.5-0.3l-1.5-0.9l-0.7-0.4l-1.4-0.8l-0.7-0.4l-1.4-0.7
	l-0.8-0.4l-1.4-0.7l-0.8-0.4l-1.4-0.7l-0.9-0.4l-1.4-0.6l-0.9-0.4l-1.4-0.6l-0.9-0.4l-1.5-0.6l-0.9-0.4l-1.5-0.6l-0.9-0.3l-1.5-0.6
	l-0.9-0.3l-1.6-0.5l-0.8-0.3l-1.6-0.5l-0.8-0.2l-1.7-0.5l-0.7-0.2c-0.6-0.2-1.2-0.4-1.8-0.5l-0.5-0.1l-2.1-0.5
	c-3-0.7-6.1-1.4-9.3-1.9c-1.1-0.2-2.1-0.3-3.2-0.5l-0.4-0.1c-0.7-0.1-1.4-0.2-2.1-0.3l-0.6-0.1l-2-0.2l-0.7-0.1
	c-0.7-0.1-1.3-0.1-2-0.2l-0.8-0.1l-2-0.1H144l-2-0.1h-0.9h-2h-3.7h-2h-0.8l-2.1,0.1h-0.8l-2.2,0.1h-0.7c-0.8,0.1-1.5,0.1-2.3,0.2
	l-0.6,0.1l-2.4,0.2h-0.4c-0.9,0.1-1.8,0.2-2.6,0.3h-0.1c-2.5,0.3-5,0.8-7.6,1.2c-4.5,0.8-9.1,1.9-13.8,3.1l-3,0.8l-0.3,0.1
	c-1,0.3-1.9,0.6-2.9,0.9l-0.4,0.1c-0.9,0.3-1.9,0.6-2.8,0.9l-0.5,0.2l-2.8,1l0.7,0.8l-2.8,1l-0.5,0.2c-0.9,0.4-1.9,0.7-2.8,1.1
	l-0.5,0.2l-2.9,1.2L75,54.6c-1,0.4-2,0.8-3,1.3L71.6,56c-1,0.5-2,0.9-3.1,1.4l-0.2,0.1c-1.4,0.7-2.9,1.3-4.3,2l-1.6,0.8
	c-0.9,0.5-1.9,0.9-2.8,1.4l-1.3,0.7l-0.5,0.3l-2,1.1L55.2,64l-2,1.1l-2.4,1.5l-2,1.2l-2.5,1.4l-0.6,0.3l-1.5,0.9l-2.5,1.5L41,72.3
	l-1.3,0.8l-2.3,1.5L37,74.8L35.2,76c-1.3,0.9-2.7,1.8-4,2.7L30,79.5l-0.9,0.6c-1,0.7-2,1.4-3,2.1L24,83.7l-0.7,0.5l-1.9,1.3
	l-1.6,1.2l-0.7,0.5c-0.8,0.6-1.6,1.2-2.4,1.8c-0.6,0.5-1.2,0.9-1.9,1.4l-0.5,0.4l-2.4,1.8l-1,0.8l-1.4,1.1L8,95.7l-0.9,0.7l-2.5,2
	l-0.4,0.3l-1.9,1.6c-0.9,0.7-1.8,1.4-2.6,2.2l-0.3,0.3v211.5v167.9h1376.4V314.3H1375.3z M169,44.8c-3-0.7-6.2-1.4-9.3-1.9
	C162.9,43.4,166,44.1,169,44.8z M117.4,42.6c-1.8,0.3-3.7,0.6-5.5,0.9C113.8,43.1,115.6,42.8,117.4,42.6z"/>
</svg>
