<svg xmlns="http://www.w3.org/2000/svg" viewBox="0 0 391.52 274.29"><defs><style>.cls-1{fill:#303030;}</style></defs><g id="Layer_1" data-name="Layer 1"><path class="cls-1" d="M57.49,74.27c40.56-5,81.24-8.86,121.94-12.4,35.84-3.12,71.78-5.46,107.52-9.56,13.37-1.53,26.94-2.84,40.4-1.67,11.68,1,24,4.24,32.28,13.08,9.21,9.84,12.59,24.4,14.51,37.33,2.2,14.76,2.3,29.76,2.6,44.65.3,14.48,1.68,28.88,2.07,43.34a148.17,148.17,0,0,1-.92,24c-.88,6.45-2.41,13-5.75,18.72-5.38,9.12-14.75,15.09-24.35,19-11.45,4.72-23.78,7.19-36,8.94-11.34,1.63-22.77,2.48-34.18,3.48-6.71.59-13.4,1.42-20.12,1.95-10.19.8-20.4,1.14-30.62,1.29-20.08.29-40.19-.13-60.26.9-5.2.27-10.37.33-15.57.43-16.75.34-33.74,1.16-50.18,4.55-10.09,2.08-31.29,7.52-26.57,22.21A25.41,25.41,0,0,0,80,303.62l2.65-4.56c-18.91-2.91-36.61-11.13-48.4-26.61-10.95-14.39-16-32.33-18.86-49.94-3-18.94-3.51-38.2-4.06-57.34-.27-9.46-.74-18.85-1.51-28.28-.93-11.29-1.8-22.76-.54-34.06A43.3,43.3,0,0,1,13,88.55a18.3,18.3,0,0,1,9.22-8.86c9.3-4.32,20.41-4.45,30.45-5.1,2.29-.15,4.58-.31,6.86-.54a2.79,2.79,0,0,0,2.72-2.72,2.74,2.74,0,0,0-2.72-2.73c-10.74,1.1-21.65,1-32.18,3.62-5,1.28-10,3.26-14,6.7C9.73,82.13,7.54,86.8,6.1,91.38c-3.44,11-3.12,23.13-2.48,34.51.58,10.36,1.72,20.66,2.06,31,.63,19.73.84,39.53,3.36,59.14,2.42,18.81,6.79,38.06,17.14,54.23,10.74,16.79,27.43,27.81,46.72,32.4,2.76.66,5.54,1.19,8.35,1.62,2.61.4,4.6-2.42,2.65-4.56a21.21,21.21,0,0,1-3.15-4.12,15.77,15.77,0,0,1-1-2c.28.66-.1-.29-.16-.47-.12-.36-.21-.73-.3-1.09s-.17-1.2-.09-.34c0-.28,0-.57-.06-.85s0-.56,0-.84c0-.64-.16.41.07-.4.07-.26.13-.52.2-.77s.44-1,.08-.26a13.56,13.56,0,0,1,.9-1.57c.4-.63-.3.3.2-.27.2-.22.39-.44.6-.65a14.33,14.33,0,0,1,1.53-1.38c-.59.47.28-.2.4-.28.28-.2.57-.39.86-.57.67-.43,1.37-.82,2.08-1.19s1.39-.69,2.09-1a6.4,6.4,0,0,1,.7-.3l1.41-.54c1.76-.65,3.56-1.21,5.37-1.71,16.26-4.5,33.36-5.32,50.27-5.82,22.15-.66,44.3-1.27,66.47-1.34a576.92,576.92,0,0,0,58.2-2.69c10.88-1.14,21.8-1.82,32.66-3.06,12.51-1.42,25.06-3.35,37.11-7.06,10.93-3.37,21.92-8.29,30.1-16.5,9.48-9.51,12.48-22.42,13.48-35.44,1.2-15.63-.44-31.25-1.27-46.85-.76-14.33-.48-28.7-1.41-43-1-14.72-2.83-29.8-8.8-43.43a47.14,47.14,0,0,0-10.77-15.91,45.07,45.07,0,0,0-15.59-9.13C333.71,44.53,320,44.33,307,45c-12.7.71-25.28,2.64-37.94,3.84-19.85,1.86-39.75,3.31-59.62,5-40.75,3.42-81.5,7-122.15,11.48Q72.4,67,57.49,68.82a2.81,2.81,0,0,0-2.72,2.72,2.73,2.73,0,0,0,2.72,2.73Z" transform="translate(-3.21 -44.73)"/><path class="cls-1" d="M67.87,74.57c40.55-5,81.23-8.86,121.94-12.4,35.84-3.11,71.77-5.46,107.51-9.55,13.38-1.54,26.94-2.85,40.4-1.68,11.68,1,24,4.25,32.28,13.08,9.21,9.84,12.59,24.4,14.52,37.33,2.2,14.76,2.3,29.77,2.6,44.66.29,14.47,1.67,28.87,2.06,43.33a148.12,148.12,0,0,1-.92,24c-.88,6.46-2.41,13.06-5.75,18.72-5.37,9.12-14.75,15.1-24.34,19.05-11.46,4.71-23.78,7.18-36,8.94-11.34,1.63-22.77,2.48-34.17,3.48-6.72.59-13.41,1.42-20.13,1.95-10.18.79-20.4,1.13-30.61,1.28-20.09.3-40.2-.13-60.27.91-5.19.26-10.37.32-15.57.43-16.74.33-33.73,1.15-50.18,4.54-10.09,2.08-31.29,7.52-26.57,22.22a25.17,25.17,0,0,0,5.75,9.05l2.65-4.55c-18.91-2.92-36.61-11.14-48.4-26.62-11-14.38-16-32.33-18.87-49.93-3.05-18.94-3.51-38.21-4.06-57.35-.27-9.46-.74-18.85-1.51-28.28-.93-11.29-1.79-22.76-.53-34.06a43.28,43.28,0,0,1,3.7-14.28A18.29,18.29,0,0,1,32.63,80c9.3-4.33,20.4-4.45,30.45-5.11,2.28-.15,4.57-.3,6.85-.54a2.81,2.81,0,0,0,2.73-2.72,2.74,2.74,0,0,0-2.73-2.72C59.2,70,48.28,69.85,37.76,72.52c-5,1.28-10,3.26-14,6.71-3.67,3.21-5.87,7.87-7.3,12.45-3.45,11-3.13,23.14-2.49,34.52.59,10.35,1.73,20.66,2.06,31,.63,19.73.85,39.53,3.37,59.14,2.41,18.81,6.79,38.06,17.13,54.23C47.29,287.39,64,298.41,83.27,303c2.76.66,5.55,1.19,8.35,1.62,2.62.4,4.61-2.41,2.65-4.55A21.93,21.93,0,0,1,91.12,296a18.14,18.14,0,0,1-1-2c.28.65-.09-.29-.15-.48-.12-.36-.22-.72-.31-1.09-.05-.21-.17-1.2-.08-.33a8.28,8.28,0,0,1-.06-.86c0-.28,0-.55,0-.83,0-.65-.16.4.06-.4l.21-.78c.06-.22.44-1,.07-.25a13.69,13.69,0,0,1,.9-1.58c.4-.63-.3.3.2-.26.2-.22.39-.45.6-.66a18.15,18.15,0,0,1,1.53-1.38c-.58.47.28-.19.41-.28s.56-.38.85-.57c.68-.43,1.37-.82,2.08-1.19s1.39-.68,2.1-1a7.13,7.13,0,0,1,.69-.29q.7-.28,1.41-.54c1.77-.66,3.56-1.22,5.37-1.72,16.26-4.5,33.36-5.31,50.27-5.82,22.16-.66,44.31-1.26,66.48-1.34A576.72,576.72,0,0,0,281,269.65c10.88-1.14,21.8-1.81,32.67-3,12.5-1.43,25.05-3.36,37.11-7.07,10.93-3.36,21.92-8.28,30.1-16.49,9.48-9.52,12.47-22.43,13.47-35.45,1.21-15.63-.44-31.25-1.27-46.85-.76-14.33-.48-28.7-1.41-43-.95-14.73-2.83-29.81-8.79-43.44a47.41,47.41,0,0,0-10.78-15.91,45,45,0,0,0-15.58-9.13c-12.39-4.41-26.09-4.61-39.07-3.89-12.71.7-25.28,2.64-37.94,3.83-19.86,1.87-39.76,3.32-59.63,5-40.75,3.42-81.49,7-122.14,11.49Q82.76,67.3,67.87,69.12a2.82,2.82,0,0,0-2.73,2.73,2.74,2.74,0,0,0,2.73,2.72Z" transform="translate(-3.21 -44.73)"/><path class="cls-1" d="M373,129.71c-1.09,17,2.3,34,3.6,51,.33,4.27.55,8.56.54,12.84,0,2.07-.07,4.14-.2,6.2-.06,1-.14,1.93-.23,2.9-.05.43-.09.86-.14,1.3,0,.25-.06.51-.1.77s0,.34,0,.05c0,.17-.05.34-.07.51a54.38,54.38,0,0,1-2.71,11c-.17.46-.34.92-.53,1.38-.3.75.22-.49-.1.25l-.2.45c-.4.89-.83,1.77-1.29,2.63a39.4,39.4,0,0,1-3,4.76s-.53.68-.18.24c-.18.22-.36.45-.55.67-.34.42-.7.83-1.06,1.24-.75.82-1.53,1.61-2.34,2.36s-1.78,1.56-2.34,2-1.77,1.29-2.63,1.85a52.69,52.69,0,0,1-14.51,6.39c-3.37,1-1.94,6.23,1.44,5.26,9-2.62,17.84-6.94,24.23-14a45.08,45.08,0,0,0,10.37-21.21c3.58-17.12.62-35-1.21-52.1-1-9.5-1.93-19.1-1.32-28.66a2.74,2.74,0,0,0-2.72-2.72,2.78,2.78,0,0,0-2.73,2.72Z" transform="translate(-3.21 -44.73)"/><path class="cls-1" d="M328.83,245a7.93,7.93,0,0,1,.6,1.11l-.28-.65a.78.78,0,0,1,.09.27l-.1-.73a.06.06,0,0,1,0,.06l.1-.72v0l.28-.65h0l.43-.55h0l.55-.43h0l.65-.27h0l.72-.1h0l.73.1-.06,0,.65.28a1.25,1.25,0,0,1-.24-.16l.55.43c-.12-.09-.23-.19-.34-.29a2,2,0,0,0-.87-.57,2.12,2.12,0,0,0-1-.23,2.08,2.08,0,0,0-1.05.23,2,2,0,0,0-.88.57l-.43.55a2.73,2.73,0,0,0-.37,1.37l.1.73a2.71,2.71,0,0,0,.7,1.2l.26.23.65.5.09.07.08.05h.05l.65.28h.05l.74.1a2.48,2.48,0,0,0,.76-.1l.65-.28h0l.56-.43s.41-.52.43-.56a2.72,2.72,0,0,0,.14-.34,2.05,2.05,0,0,0,.14-.34s.1-.71.1-.73h0v0a3.5,3.5,0,0,0-.11-.79,1.52,1.52,0,0,0-.06-.2c-.13-.3-.25-.61-.39-.9s-.32-.59-.49-.88a3.07,3.07,0,0,0-1.63-1.25,3.06,3.06,0,0,0-2.1.27l-.55.43a2.71,2.71,0,0,0-.7,1.2l-.1.73a2.73,2.73,0,0,0,.37,1.37Z" transform="translate(-3.21 -44.73)"/><path class="cls-1" d="M325.63,245.48v0h-5.45c0,.19,0,.39,0,.58l0,.93v.21a2,2,0,0,0,.23,1,2.11,2.11,0,0,0,.56.88,3.11,3.11,0,0,0,1.93.8l.73-.1a2.71,2.71,0,0,0,1.2-.7l.42-.55a2.78,2.78,0,0,0,.38-1.38c0-.22,0-.45,0-.67a2.08,2.08,0,0,0-.24-1,2.4,2.4,0,0,0-1.44-1.44,2,2,0,0,0-1.05-.23l-.72.09a2.84,2.84,0,0,0-1.21.7l-.42.55a2.7,2.7,0,0,0-.37,1.38c0,.22,0,.45,0,.67h5.45c0-.19,0-.38,0-.57l0-.94a1.48,1.48,0,0,1,0-.21,2.08,2.08,0,0,0-.24-1.05A2.4,2.4,0,0,0,324,243a2.08,2.08,0,0,0-1.05-.24l-.72.1a2.74,2.74,0,0,0-1.21.7l-.42.55a2.7,2.7,0,0,0-.37,1.38v0a2,2,0,0,0,.23,1.05,2.4,2.4,0,0,0,1.44,1.44,2.13,2.13,0,0,0,1,.24l.72-.1a2.68,2.68,0,0,0,1.21-.7l.42-.55a2.81,2.81,0,0,0,.38-1.38Z" transform="translate(-3.21 -44.73)"/><path class="cls-1" d="M310.57,247.53a4.87,4.87,0,0,0,0,.54s0,.07,0,.11c0,.27.07.55.11.82l0,.15s0,0,0,.06v0c.05.14.22.53.28.66v0a2.54,2.54,0,0,0,.47.62c.07.07.5.39.29.22a1.93,1.93,0,0,0,.28.22,2.9,2.9,0,0,0,.68.29,3.2,3.2,0,0,0,.75.09s.71-.08.74-.1h0a2.53,2.53,0,0,0,.68-.3h0l.56-.43,0,0,0,0,.23-.3.24-.31a1.94,1.94,0,0,0,.32-1,2,2,0,0,0,0-1.09,2.14,2.14,0,0,0-.49-.93,2.08,2.08,0,0,0-.77-.7l-.65-.27a2.74,2.74,0,0,0-1.45,0l-.65.27a2.68,2.68,0,0,0-1,1l0,0,.43-.55-.09.1.55-.43-.05,0,.65-.28h0l.73-.09h0l.72.1h0l.65.27h0l.55.42a0,0,0,0,1,0,0l.42.55a.3.3,0,0,1,0-.08l.28.65a1,1,0,0,1-.07-.28l.09.72a5.47,5.47,0,0,1,0-.7,2.62,2.62,0,0,0-1.68-2.49,2,2,0,0,0-1-.23l-.72.09a2.84,2.84,0,0,0-1.21.7l-.42.55a2.7,2.7,0,0,0-.37,1.38Z" transform="translate(-3.21 -44.73)"/><path class="cls-1" d="M263.21,63.73a375.47,375.47,0,0,0-52.45,3c-17.62,2.11-35.15,4.95-52.68,7.68-17.28,2.68-34.58,5.14-52,6.73-8.94.82-17.9,1.47-26.85,2.07-7.87.53-15.94.24-23.68,1.94a32.19,32.19,0,0,0-17.12,9.74,30.63,30.63,0,0,0-7.14,16.84,42,42,0,0,0-.28,4.75c0,3.51,5.44,3.51,5.45,0,0-5.72,1.19-11.21,4.43-16a25.59,25.59,0,0,1,13.69-9.5c7.17-2.14,14.79-1.73,22.18-2.21,8.71-.56,17.42-1.19,26.12-1.95,17.28-1.5,34.46-3.81,51.61-6.43,17-2.6,33.93-5.43,51-7.6a409,409,0,0,1,51.27-3.76q3.24,0,6.48.06c3.51.08,3.51-5.37,0-5.44Z" transform="translate(-3.21 -44.73)"/><path class="cls-1" d="M35.34,122.68l-2.79-.08a2,2,0,0,0-1,.23,2.4,2.4,0,0,0-1.44,1.44,2.08,2.08,0,0,0-.24,1l.1.72a2.68,2.68,0,0,0,.7,1.21l.55.42a2.7,2.7,0,0,0,1.38.37l2.79.09a2.13,2.13,0,0,0,1-.24,2,2,0,0,0,.87-.56,2,2,0,0,0,.57-.88,2,2,0,0,0,.23-1l-.09-.72a2.76,2.76,0,0,0-.71-1.21l-.55-.42a2.63,2.63,0,0,0-1.37-.37Z" transform="translate(-3.21 -44.73)"/><path class="cls-1" d="M36.05,130.14l-3.25-.09a2,2,0,0,0-1,.23,2,2,0,0,0-.88.57,1.93,1.93,0,0,0-.56.87,2.13,2.13,0,0,0-.24,1.05,2.72,2.72,0,0,0,.8,1.93,2.88,2.88,0,0,0,1.93.8l3.25.09a2,2,0,0,0,1.05-.23,2,2,0,0,0,.88-.57,2.07,2.07,0,0,0,.56-.87,2.13,2.13,0,0,0,.24-1,2.81,2.81,0,0,0-.8-1.93,2.88,2.88,0,0,0-1.93-.8Z" transform="translate(-3.21 -44.73)"/><path class="cls-1" d="M35.85,137.12l-.67,0h0a2,2,0,0,0-1,.23,2.4,2.4,0,0,0-1.44,1.44,2,2,0,0,0-.23,1l.09.73a2.8,2.8,0,0,0,.7,1.2l.56.42a2.74,2.74,0,0,0,1.37.38h.23a2,2,0,0,0,1-.23,2,2,0,0,0,.88-.57,2,2,0,0,0,.56-.87,2.13,2.13,0,0,0,.24-1l-.1-.73a2.71,2.71,0,0,0-.7-1.2l-.55-.42a2.71,2.71,0,0,0-1.38-.38h-.23v5.45h.7a2.13,2.13,0,0,0,1-.24,2.07,2.07,0,0,0,.87-.56,2,2,0,0,0,.57-.88,2,2,0,0,0,.23-1l-.1-.72a2.74,2.74,0,0,0-.7-1.21l-.55-.42a2.63,2.63,0,0,0-1.37-.37Z" transform="translate(-3.21 -44.73)"/><path class="cls-1" d="M62.34,308.06a68.43,68.43,0,0,1-22.56-13.17,75.39,75.39,0,0,1-17.5-21.23,50.28,50.28,0,0,1-5-13.53A2.72,2.72,0,1,0,12,261.58c2,9.42,6.79,18,12.7,25.49A84.55,84.55,0,0,0,46.5,306.52a68.38,68.38,0,0,0,14.39,6.8c3.33,1.1,4.76-4.16,1.45-5.26Z" transform="translate(-3.21 -44.73)"/><path class="cls-1" d="M387.29,223.73c-.16,1.25-.18,2.51-.25,3.76,0,.81-.09,1.62-.17,2.43q0,.6-.12,1.2c0,.22-.05.45-.08.68-.06.52.09-.6,0-.23,0,.17,0,.33-.07.5a36.33,36.33,0,0,1-1.49,6.09c-.18.53-.38,1-.58,1.56-.28.73.18-.36-.15.36l-.39.84a33.72,33.72,0,0,1-1.91,3.43c-.38.59-.77,1.17-1.19,1.73-.11.16-.6.8-.44.6l-.63.77a40,40,0,0,1-3.3,3.47,46.24,46.24,0,0,1-8.76,6.38c-9.5,5.54-20.27,8.69-31,11-30.26,6.42-61.4,8.2-92.25,8.93-15.42.36-30.84.43-46.26.58-13.41.13-26.8.85-40.17,1.85s-26.49,2.24-39.72,3.52a102.67,102.67,0,0,0-13.76,2c-4.53,1.07-9.27,2.69-12.77,5.87a11.71,11.71,0,0,0-3.41,5.42c-1,3.37,4.29,4.82,5.25,1.45a7,7,0,0,1,2.79-3.65,21.62,21.62,0,0,1,5.79-2.78,60.2,60.2,0,0,1,12.44-2.47q19.45-2,38.95-3.53c13.27-1.05,26.56-1.93,39.86-2.14,15.44-.25,30.89-.22,46.33-.53,31.07-.62,62.23-2.36,92.83-8.12,11.78-2.22,23.56-5.25,34.3-10.7,6.61-3.35,12.92-7.78,17.53-13.66A36,36,0,0,0,391.41,236a65.39,65.39,0,0,0,1.19-10.63c0-.56.07-1.12.14-1.68.19-1.46-1.39-2.73-2.72-2.73a2.8,2.8,0,0,0-2.73,2.73Z" transform="translate(-3.21 -44.73)"/><path class="cls-1" d="M322.87,272.49a33.82,33.82,0,0,0-1.26-7.6,2.75,2.75,0,0,0-3.36-1.9,2.79,2.79,0,0,0-1.9,3.35c.37,1.64.81,3.28,1,5l-.1-.73a13.8,13.8,0,0,1,.13,1.93,2.73,2.73,0,0,0,5.45,0Z" transform="translate(-3.21 -44.73)"/><path class="cls-1" d="M310,274.84c.07-2.73-.26-5.47-.22-8.2a2.74,2.74,0,0,0-2.72-2.73,2.78,2.78,0,0,0-2.72,2.73c-.05,2.73.28,5.47.21,8.2a2.73,2.73,0,1,0,5.45,0Z" transform="translate(-3.21 -44.73)"/><path class="cls-1" d="M298.05,275.6a92.69,92.69,0,0,1-2-9.18,2.75,2.75,0,0,0-1.25-1.63,2.81,2.81,0,0,0-2.1-.27,2.73,2.73,0,0,0-1.63,1.25,3,3,0,0,0-.27,2.1,89.74,89.74,0,0,0,2,9.17,2.72,2.72,0,1,0,5.25-1.44Z" transform="translate(-3.21 -44.73)"/><path class="cls-1" d="M118.72,285a19.77,19.77,0,0,0,.34-3.6c0-1,0-2-.07-3a2.83,2.83,0,0,0-.8-1.93,2.76,2.76,0,0,0-1.92-.8,2.72,2.72,0,0,0-1.93.8,2.77,2.77,0,0,0-.8,1.93,32.86,32.86,0,0,1-.07,5.25l.1-.72c0,.22-.06.44-.1.66a2.9,2.9,0,0,0,.27,2.1,2.8,2.8,0,0,0,1.63,1.25,2.75,2.75,0,0,0,2.1-.27,2.69,2.69,0,0,0,1.25-1.63Z" transform="translate(-3.21 -44.73)"/><path class="cls-1" d="M131.58,284.21a32.74,32.74,0,0,1-.13-7.47l-.1.73a18.55,18.55,0,0,1,.41-2.1,2.72,2.72,0,1,0-5.25-1.44,28.42,28.42,0,0,0-.38,10.28,3,3,0,0,0,.8,1.93,2.78,2.78,0,0,0,1.93.8c1.35-.06,2.88-1.21,2.72-2.73Z" transform="translate(-3.21 -44.73)"/><path class="cls-1" d="M145.82,284.65c1.73-3.9.6-8.21.69-12.31a2.75,2.75,0,0,0-2.72-2.72,2.78,2.78,0,0,0-2.73,2.72c0,1.85.16,3.7.24,5.55a25.41,25.41,0,0,1,0,2.76,3.49,3.49,0,0,1-.06.65c0-.12.11-.7,0-.24,0,.09,0,.17-.05.26a5.09,5.09,0,0,1-.14.56c-.07.25-.36.91,0,0a3,3,0,0,0-.27,2.1,2.74,2.74,0,0,0,1.25,1.62c1.19.63,3.11.42,3.73-1Z" transform="translate(-3.21 -44.73)"/><path class="cls-1" d="M337.89,269a21,21,0,0,0-2.38-6.63,2.7,2.7,0,0,0-3.72-1,2.71,2.71,0,0,0-1.26,1.63,3,3,0,0,0,.28,2.1c.36.7.7,1.41,1,2.14l-.27-.65a16,16,0,0,1,1.09,3.84,2.66,2.66,0,0,0,1.25,1.63,2.74,2.74,0,0,0,3.73-1l.27-.65a2.74,2.74,0,0,0,0-1.45Z" transform="translate(-3.21 -44.73)"/><path class="cls-1" d="M351.64,266.22c-.54-1.84-1.1-3.68-1.66-5.51a2.83,2.83,0,0,0-1.25-1.63,2.72,2.72,0,0,0-4,3.08q.84,2.74,1.66,5.51a2.84,2.84,0,0,0,1.25,1.63,2.71,2.71,0,0,0,3.73-1,2.75,2.75,0,0,0,.27-2.1Z" transform="translate(-3.21 -44.73)"/><path class="cls-1" d="M45.6,313.89c-3.77-2.36-7.55-4.71-11.25-7.17-2.61-1.74-5.19-3.51-7.7-5.39-1-.73-1.85-1.41-3-2.39a26.19,26.19,0,0,1-2.41-2.3c-2.36-2.61-6.2,1.25-3.86,3.85a43,43,0,0,0,6.06,5.2c2.56,1.95,5.21,3.78,7.89,5.56,3.79,2.53,7.66,4.93,11.51,7.34,3,1.87,5.72-2.84,2.75-4.7Z" transform="translate(-3.21 -44.73)"/></g><g id="Layer_2" data-name="Layer 2"><path class="cls-1" d="M104.09,122.36a829.07,829.07,0,0,0,.73,88.2q.77,12.36,1.9,24.71a3.09,3.09,0,0,0,3,3,3,3,0,0,0,3-3,828.34,828.34,0,0,1-3.38-88.13q.19-12.39.75-24.78a3,3,0,0,0-3-3,3.06,3.06,0,0,0-3,3Z" transform="translate(-3.21 -44.73)"/><path class="cls-1" d="M106.21,179.93a134,134,0,0,0,30.5-3.72c3.75-.9,2.16-6.68-1.6-5.78a126.73,126.73,0,0,1-28.9,3.5c-3.86,0-3.87,6,0,6Z" transform="translate(-3.21 -44.73)"/><path class="cls-1" d="M133.55,120.6l.14,76.87,0,22c0,3.86,6,3.87,6,0l-.14-76.87,0-22c0-3.86-6-3.87-6,0Z" transform="translate(-3.21 -44.73)"/><path class="cls-1" d="M167.6,121.63A69.36,69.36,0,0,0,152.52,123c-2.4.48-5.07.93-6.36,3.27a8.49,8.49,0,0,0-.67,3.93l-.09,4q-.32,15.45-.26,30.9t.5,30.64q.23,7.73.54,15.44c.1,2.57.22,5.15.34,7.72.11,2.27.1,4.77,1.71,6.57,2.06,2.3,5.06,1.88,7.78,1.4a38.66,38.66,0,0,0,7-1.9,44.23,44.23,0,0,0,13.09-7.64,3,3,0,0,0,0-4.24,3.06,3.06,0,0,0-4.24,0,36.41,36.41,0,0,1-9.28,5.64,37.07,37.07,0,0,1-5.52,1.8c-.94.23-1.89.43-2.84.59-.4.07-1.79.34-1.92.14a3.78,3.78,0,0,0,.43.26c.16,0,0,.37,0,0a1.6,1.6,0,0,0-.12-.59c-.12-1.16-.13-2.34-.18-3.51q-.16-3.48-.3-7-.28-7-.49-13.94-.81-27.9-.37-55.81c0-2.58.08-5.15.14-7.73,0-.66,0-1.33,0-2a8,8,0,0,0,.05-1.95c-.12-.4.06-.07-.1.11,0,0-.34.42-.36.39s1.52-.39,1.64-.42a62.57,62.57,0,0,1,14.89-1.47c3.86.07,3.86-5.93,0-6Z" transform="translate(-3.21 -44.73)"/><path class="cls-1" d="M149.48,178.1a73.13,73.13,0,0,0,22.33-4.58,3.09,3.09,0,0,0,2.1-3.69,3,3,0,0,0-3.69-2.1,67.69,67.69,0,0,1-20.74,4.37,3.07,3.07,0,0,0-3,3,3,3,0,0,0,3,3Z" transform="translate(-3.21 -44.73)"/><path class="cls-1" d="M181.55,118.84q-.53,26.88,1.6,53.7Q184.22,186,186,199.38q.89,6.85,1.93,13.68.51,3.27,1.06,6.54c.36,2.19,1.24,4.25,3.62,4.84s5.16-.44,7.39-.95,4.67-1.15,7-1.84a113.13,113.13,0,0,0,13.77-5.2,3,3,0,0,0,1.07-4.1,3.06,3.06,0,0,0-4.1-1.08,102.47,102.47,0,0,1-22.49,7.1c-.31.06-1,.18-1.08.22-.35.11-.92-.3.22.34-1.09-.62.78.34.66.45.2-.2-.43-2.48-.49-2.83-.34-2.1-.68-4.2-1-6.3q-.93-6.15-1.72-12.33-3.18-25.06-4-50.37-.48-14.34-.19-28.71c.07-3.86-5.93-3.86-6,0Z" transform="translate(-3.21 -44.73)"/><path class="cls-1" d="M223.11,115.92q-.59,23,.63,45.94.62,11.34,1.66,22.66.53,5.65,1.17,11.31c.43,3.8.77,7.65,1.41,11.42a5.37,5.37,0,0,0,3.68,4.47c2,.56,4.25.24,6.26.23l12.72-.09c3.86,0,3.87-6,0-6l-10.76.08-5.38,0a5.17,5.17,0,0,0-.88,0h-.4c.25-.21.5,0,.74.53l0,.13a4.64,4.64,0,0,1-.17-.64c0-.27-.08-.56-.12-.83q-1.39-10.78-2.39-21.61-2-21.53-2.32-43.16-.19-12.23.12-24.46c.1-3.86-5.9-3.86-6,0Z" transform="translate(-3.21 -44.73)"/><path class="cls-1" d="M261.1,116.5v60.15c0,5,0,10,0,15.07a45,45,0,0,0,1.07,10.41,17.75,17.75,0,0,0,4.84,9,13.18,13.18,0,0,0,11.33,3.13c8.34-1.47,14.11-9.08,17.17-16.44s3.89-15.69,4.44-23.68a245.67,245.67,0,0,0,.32-29.6q-.37-7.45-1.29-14.87a83.19,83.19,0,0,0-2.31-13.21c-1.16-3.92-3.1-7.86-6.28-10.54a18.84,18.84,0,0,0-11.25-4.41,18,18,0,0,0-17.87,13.2,17.48,17.48,0,0,0-.63,5.8,3.07,3.07,0,0,0,3,3,3,3,0,0,0,3-3c-.39-6.08,3.85-12.16,10.23-13a13.08,13.08,0,0,1,8.43,2,14.21,14.21,0,0,1,5.28,7.55,61.09,61.09,0,0,1,2.25,11.36q.89,6.8,1.3,13.63a236.62,236.62,0,0,1,.11,27.16c-.38,7.6-.82,15.19-2.95,22.51-1.81,6.23-5.3,13-11.54,15.81-2.9,1.33-5.82,1.28-8.17-.4.33.24-.23-.2-.32-.28a10.33,10.33,0,0,1-.74-.74l-.29-.34c.09.11.27.39-.07-.1a9.93,9.93,0,0,1-.65-1,9,9,0,0,1-.43-.81q-.15-.28-.27-.57c0,.07.13.32,0,0-.27-.7-.5-1.42-.7-2.14a33.59,33.59,0,0,1-1-8.81c-.05-4.49,0-9,0-13.48V116.5c0-3.86-6-3.86-6,0Z" transform="translate(-3.21 -44.73)"/></g></svg>