<svg id="Layer_1" data-name="Layer 1" xmlns="http://www.w3.org/2000/svg" viewBox="0 0 304.4 371"><defs><style>.cls-1{fill:#e6e7e8;}.cls-2{fill:#008abe;}.cls-3{fill:#00adee;}.cls-4{fill:#c1b49a;}.cls-5{fill:#5a4a42;}.cls-6{fill:#fff;}.cls-7{fill:#48c7f4;}.cls-8{fill:#404041;}.cls-9{fill:#786359;}.cls-10{fill:#caccce;}.cls-11{fill:none;}.cls-12{fill:#98daf8;}</style></defs><path class="cls-1" d="M230.51,58.82s2-22.17,4.82-31.74h39.25l5.74,31.74S238.06,58.66,230.51,58.82Z" transform="translate(-48.67 -16)"/><path class="cls-1" d="M69.73,194.6S94.62,296.06,95.58,366.9h212.5S319,220.13,327.23,194.6Z" transform="translate(-48.67 -16)"/><path class="cls-2" d="M48.67,201.3v7.17s56.48,23.46,304.4,0V201.3Z" transform="translate(-48.67 -16)"/><path class="cls-3" d="M48.67,201.3S87.92,126.63,91.75,58.67c0,0,182.83,3.83,215.38-5.75,0,0,16.27,113.92,45.94,148.38C353.07,201.3,127.17,223.31,48.67,201.3Z" transform="translate(-48.67 -16)"/><path class="cls-3" d="M251.93,16.15c-21.67-1.13-29.19,4.3-25.66,11.33s12.33,5.66,25.66,5.66,30.59.53,30.59-8.51S251.93,16.15,251.93,16.15Z" transform="translate(-48.67 -16)"/><path class="cls-4" d="M182.81,366.9H227.3l5.76-96s-33-10.05-56.36,0Z" transform="translate(-48.67 -16)"/><path class="cls-5" d="M180.29,366.9l-6.46-99.55s30.87-12.93,63.18,0l-6.46,99.55-6.1-.48,4.66-94.05s-26.56-7.18-46.3-.72c0,0,1.07,54.57,3.94,95.25Z" transform="translate(-48.67 -16)"/><polygon class="cls-6" points="63.71 238.93 67.32 308 100.92 308 104.81 240.04 63.71 238.93"/><path class="cls-7" d="M127.65,256s3.34,20.27-8.88,34.16l7.5,31.51h-7.5l-6.39-66.78Z" transform="translate(-48.67 -16)"/><path class="cls-7" d="M139,257.71s.07,25.68,9.2,29.64L142.09,318l7.78,2.5L153.48,256Z" transform="translate(-48.67 -16)"/><polygon class="cls-5" points="63.85 305.71 58.85 236.99 108 236.99 103.83 305.71 98.42 305.71 100.5 243.23 66.76 242.4 70.1 305.71 63.85 305.71"/><polygon class="cls-5" points="80.37 240.04 81.76 305.71 85.65 305.71 85.65 240.04 80.37 240.04"/><polygon class="cls-5" points="63.71 266.42 65.38 272.88 102.03 274.2 102.03 269.2 63.71 266.42"/><path class="cls-8" d="M129,256" transform="translate(-48.67 -16)"/><polygon class="cls-9" points="56.77 301.96 110.08 301.96 110.08 314.04 56.77 312.38 56.77 301.96"/><polygon class="cls-6" points="203.47 235.67 207.08 304.74 240.68 304.74 244.56 236.78 203.47 235.67"/><path class="cls-7" d="M267.41,252.78s3.33,20.27-8.89,34.15l7.5,31.52h-7.5l-6.38-66.78Z" transform="translate(-48.67 -16)"/><path class="cls-7" d="M278.8,254.44s.07,25.69,9.19,29.65l-6.14,30.61,7.78,2.5,3.61-64.42Z" transform="translate(-48.67 -16)"/><polygon class="cls-5" points="203.6 302.45 198.61 233.72 247.76 233.72 243.59 302.45 238.18 302.45 240.26 239.97 206.52 239.14 209.85 302.45 203.6 302.45"/><polygon class="cls-5" points="220.13 236.78 221.51 302.45 225.4 302.45 225.4 236.78 220.13 236.78"/><polygon class="cls-5" points="203.47 263.16 205.13 269.62 241.79 270.93 241.79 265.94 203.47 263.16"/><path class="cls-8" d="M268.8,252.78" transform="translate(-48.67 -16)"/><polygon class="cls-9" points="196.52 298.7 249.84 298.7 249.84 310.78 196.52 309.12 196.52 298.7"/><polygon class="cls-10" points="28.72 350.9 272.81 350.9 266.11 367.17 39.25 371 28.72 350.9"/><path class="cls-11" d="M93,64.83c1.24,3,6,13,14.77,13s11.51-10.12,12.08-13c-4.14-.31-7.11-2.81-9.21-5.85l-7-.1A13.41,13.41,0,0,1,93,64.83Z" transform="translate(-48.67 -16)"/><path class="cls-11" d="M120.7,63.45a9.55,9.55,0,0,0,7.79-4.25c-5.9-.06-11.28-.13-16-.19C114.46,61.53,117.13,63.45,120.7,63.45Z" transform="translate(-48.67 -16)"/><path class="cls-11" d="M101.83,58.85l-10.08-.18c-.09,1.58-.21,3.17-.33,4.76l.56,0A12.1,12.1,0,0,0,101.83,58.85Z" transform="translate(-48.67 -16)"/><path class="cls-11" d="M106,79.13c-7.86-1-12.27-8.95-14-12.74a25.16,25.16,0,0,1-1.23,3C90,77.5,88.68,85.66,87.05,93.71a14,14,0,0,0,4.93.85C103.53,94.56,105.69,82.11,106,79.13Z" transform="translate(-48.67 -16)"/><path class="cls-11" d="M231.77,64.85c1.1,3,5.28,13,12.89,13s13.46-9.84,15.13-13a16,16,0,0,1-12.15-6.49l-5.43.17a12.56,12.56,0,0,1-1.79,2.54A12.15,12.15,0,0,1,231.77,64.85Z" transform="translate(-48.67 -16)"/><path class="cls-11" d="M260.93,63.45c3.86,0,6.94-1.19,9.16-3.53A12.45,12.45,0,0,0,272,57.21c-7,.43-14.61.78-22.64,1.07A14.64,14.64,0,0,0,260.93,63.45Z" transform="translate(-48.67 -16)"/><path class="cls-11" d="M230.78,63.45c3.64,0,6.53-1.13,8.58-3.37a11.24,11.24,0,0,0,1.15-1.52c-6.59.19-13.38.35-20.27.47A14,14,0,0,0,230.78,63.45Z" transform="translate(-48.67 -16)"/><path class="cls-11" d="M261.84,64.85c.8,3,4.24,13,14.41,13s11.9-10.2,12.15-13c-4.5-.39-7.9-4.12-10.25-8-1.46.1-3,.21-4.49.3a14.28,14.28,0,0,1-2.53,3.81A13.14,13.14,0,0,1,261.84,64.85Z" transform="translate(-48.67 -16)"/><path class="cls-11" d="M121.57,64.83c.68,2.93,3.77,13,14,13s13.59-10,14.41-13a15.84,15.84,0,0,1-11.59-5.55l-8.07-.07C128.36,62.14,125.57,64.52,121.57,64.83Z" transform="translate(-48.67 -16)"/><path class="cls-11" d="M289.17,63.45c4.65,0,7.26-4.44,8.68-8.66-5,.73-11.09,1.36-18.07,1.89C282,60.24,285.18,63.45,289.17,63.45Z" transform="translate(-48.67 -16)"/><path class="cls-11" d="M204,64.8c1.18,3,5.71,13,13.35,13s11.46-10,12.44-13a15.31,15.31,0,0,1-11.37-5.78l-7.51.11C209.32,62,207.08,64.37,204,64.8Z" transform="translate(-48.67 -16)"/><path class="cls-11" d="M160.74,59.41c-7.16,0-14-.06-20.5-.11a14.65,14.65,0,0,0,10.61,4.15A12.66,12.66,0,0,0,160.74,59.41Z" transform="translate(-48.67 -16)"/><path class="cls-11" d="M151.75,64.85c.81,3,4.31,13,14.89,13a10.73,10.73,0,0,0,8.05-3.06c3.13-3.23,3.6-8.15,3.67-9.91-4-.25-6.85-2.55-8.86-5.42h-7A13.57,13.57,0,0,1,151.75,64.85Z" transform="translate(-48.67 -16)"/><path class="cls-11" d="M179.09,63.45A10.12,10.12,0,0,0,187,59.39l-15.63,0A9.77,9.77,0,0,0,179.09,63.45Z" transform="translate(-48.67 -16)"/><path class="cls-11" d="M180,64.83c.88,2.94,4.51,13,12.95,13a7.74,7.74,0,0,0,5.8-2.32c3.1-3.2,3.49-8.8,3.53-10.66-3.13-.32-5.31-2.63-6.81-5.5l-6.63.05C186.8,62.21,183.94,64.51,180,64.83Z" transform="translate(-48.67 -16)"/><path class="cls-11" d="M203,63.45c2.67,0,4.71-1.83,6.24-4.26q-6.06.09-12.14.13C198.5,61.68,200.4,63.45,203,63.45Z" transform="translate(-48.67 -16)"/><path class="cls-11" d="M75.49,206.54l.38.05c-.07-.21-.14-.43-.19-.62Z" transform="translate(-48.67 -16)"/><path class="cls-11" d="M213,210.2l2.65-.09a27.84,27.84,0,0,1-1.51-3.83A40,40,0,0,1,213,210.2Z" transform="translate(-48.67 -16)"/><path class="cls-11" d="M164.68,211.08h2.64a32.68,32.68,0,0,1-1.43-3.95A22.8,22.8,0,0,1,164.68,211.08Z" transform="translate(-48.67 -16)"/><path class="cls-11" d="M244,208.94l.75,0c-.19-.44-.37-.88-.52-1.3C244.18,208,244.1,208.48,244,208.94Z" transform="translate(-48.67 -16)"/><path class="cls-11" d="M213.32,202.85c-4.92-2.08-8.15-7.57-9.76-11-.34,2.7-1.26,6.52-3.76,9.11a9,9,0,0,1-6,2.72,40.27,40.27,0,0,0,1.53,7q8.08-.18,16.1-.44a41.25,41.25,0,0,0,1.92-7.38Z" transform="translate(-48.67 -16)"/><path class="cls-11" d="M191.25,210.78l2.55-.06a36.06,36.06,0,0,1-1-4A34.1,34.1,0,0,1,191.25,210.78Z" transform="translate(-48.67 -16)"/><path class="cls-11" d="M179.5,192.19a15.32,15.32,0,0,1-3.77,8,12.1,12.1,0,0,1-9.09,3.51h-.1a33.28,33.28,0,0,0,2.4,7.38c6.86,0,13.76-.12,20.66-.25a34.47,34.47,0,0,0,2.5-7.17C185,203.13,181.17,196.43,179.5,192.19Z" transform="translate(-48.67 -16)"/><path class="cls-11" d="M243,203.54c-6.8-1.11-10.7-8.92-12.2-12.7-1.49,4.09-5.6,12.85-13.43,12.85a10.14,10.14,0,0,1-2.56-.33,26.16,26.16,0,0,0,2.28,6.7c8.61-.3,17.12-.66,25.42-1.05A23.71,23.71,0,0,0,243,203.54Z" transform="translate(-48.67 -16)"/><path class="cls-11" d="M326.89,203.58l.88-.07c-.32-.06-.63-.11-.94-.18C326.85,203.4,326.86,203.48,326.89,203.58Z" transform="translate(-48.67 -16)"/><path class="cls-11" d="M325.33,202.86c-6.05-2.31-9.18-8.91-10.39-12.19-1.76,3.9-6.55,12.67-13.88,13,.1.46.26,1.09.49,1.84,8.85-.63,16.85-1.24,23.77-1.8,0-.41,0-.67,0-.69A.39.39,0,0,1,325.33,202.86Z" transform="translate(-48.67 -16)"/><path class="cls-11" d="M342.47,189.3c-.31,2.45-1.88,11.19-8.65,13.71,12.14-1,19.25-1.71,19.25-1.71A76.55,76.55,0,0,1,344.72,189,13.44,13.44,0,0,1,342.47,189.3Z" transform="translate(-48.67 -16)"/><path class="cls-11" d="M260.73,190.56c-2.13,3.87-8.06,13.13-16.07,13.13h-.1a25.37,25.37,0,0,0,1.67,5.15c9.53-.46,18.76-1,27.54-1.5a23.18,23.18,0,0,0,.34-3.8C265.54,202.35,261.93,194.25,260.73,190.56Z" transform="translate(-48.67 -16)"/><path class="cls-11" d="M275.25,207.24l.33,0c-.08-.19-.17-.39-.24-.57C275.32,206.84,275.28,207,275.25,207.24Z" transform="translate(-48.67 -16)"/><path class="cls-11" d="M289.33,192.23c-1.07,4.46-4.18,11.46-13.08,11.46-.16,0-.31,0-.46,0,.26.78.7,2,1.32,3.46,7.73-.47,15.07-1,21.94-1.44.17-.87.27-1.59.33-2.08C293.53,202.78,290.61,196.37,289.33,192.23Z" transform="translate(-48.67 -16)"/><path class="cls-11" d="M74.84,172.47a16.43,16.43,0,0,1-10.48-5.77c-3.24,8-6.3,14.92-8.83,20.43a12.73,12.73,0,0,0,4.38.76C70.58,187.89,74.12,175.61,74.84,172.47Z" transform="translate(-48.67 -16)"/><path class="cls-11" d="M76.66,171.14c10.07,0,13.6-10,14.41-13-10-.54-14-9.63-15.39-14.42-1,3-2.94,7.82-6.66,11.05-1.36,3.62-2.72,7.09-4,10.39C67.53,168.3,71.31,171.14,76.66,171.14Z" transform="translate(-48.67 -16)"/><path class="cls-11" d="M73.92,141.22q-1.8,5.22-3.61,10.13a27.36,27.36,0,0,0,4.53-10C74.53,141.32,74.22,141.28,73.92,141.22Z" transform="translate(-48.67 -16)"/><path class="cls-11" d="M91.07,96a15.07,15.07,0,0,1-4.31-.83q-1.2,5.77-2.6,11.46C88.62,103.42,90.5,98,91.07,96Z" transform="translate(-48.67 -16)"/><path class="cls-11" d="M92,125.67c11.7,0,13.74-12.41,14.06-15.43-7.86-1-12.27-8.95-14-12.74-1,3-3.44,8.32-8.43,11.09q-1.44,5.72-3,11.27A13.59,13.59,0,0,0,92,125.67Z" transform="translate(-48.67 -16)"/><path class="cls-11" d="M91.08,127.06a14.69,14.69,0,0,1-10.91-5.58c-1.83,6.32-3.78,12.47-5.78,18.36a13.81,13.81,0,0,0,2.27.19C86.85,140,90.28,130,91.08,127.06Z" transform="translate(-48.67 -16)"/><path class="cls-11" d="M59.39,189.31a14.38,14.38,0,0,1-4.47-.87c-3.77,8.14-6.25,12.86-6.25,12.86a198.26,198.26,0,0,0,25.38,5,26.48,26.48,0,0,0,.79-2.76C64.65,202.42,60.26,191.73,59.39,189.31Z" transform="translate(-48.67 -16)"/><path class="cls-11" d="M120.76,191.57c-1.26,4.35-4.66,12.12-13,12.12h-.07a34.36,34.36,0,0,0,2,6c6.83.4,13.9.71,21.12.93a33,33,0,0,0,2-7.19C125.41,202.1,122.08,195.46,120.76,191.57Z" transform="translate(-48.67 -16)"/><path class="cls-11" d="M132.37,210.68l3.19.08a28.28,28.28,0,0,1-1.84-4.41A31.63,31.63,0,0,1,132.37,210.68Z" transform="translate(-48.67 -16)"/><path class="cls-11" d="M150.85,191.14c-1.48,4.22-5.64,12.55-15.32,12.55-.36,0-.71,0-1.06-.06a25.16,25.16,0,0,0,2.67,7.17c8.53.2,17.25.29,26.07.28A22.26,22.26,0,0,0,165,203.6C156.13,202.72,152.28,195.11,150.85,191.14Z" transform="translate(-48.67 -16)"/><path class="cls-11" d="M92.09,190.83c-1.39,4.11-5.52,12.86-15.43,12.86h-.1a29.66,29.66,0,0,0,.84,3.1c8.45,1.1,17.61,2,27.28,2.6a25,25,0,0,0,1.36-5.82C98.18,202.54,93.77,194.62,92.09,190.83Z" transform="translate(-48.67 -16)"/><path class="cls-11" d="M75.68,174.86c-1.49,4.76-5.53,13.79-14.77,14.41,1.15,3,5.71,13,15.75,13s13.6-10.05,14.41-13C81.08,188.75,77.08,179.65,75.68,174.86Z" transform="translate(-48.67 -16)"/><path class="cls-11" d="M106.1,209.48l1.93.12c-.44-1.08-.79-2.12-1.07-3A28.48,28.48,0,0,1,106.1,209.48Z" transform="translate(-48.67 -16)"/><path class="cls-11" d="M214.1,144.06c-1.14,4.78-4,13.22-10.07,14.07,1.18,3,5.71,13,13.35,13s11.46-10,12.44-13C219.74,157.64,215.61,148.93,214.1,144.06Z" transform="translate(-48.67 -16)"/><path class="cls-11" d="M244.24,114.27a16.76,16.76,0,0,1-3.82,9,12.18,12.18,0,0,1-8.65,3.79c1.1,3,5.28,13,12.89,13s13.46-9.84,15.13-13C250.37,126.5,246.07,119.21,244.24,114.27Z" transform="translate(-48.67 -16)"/><path class="cls-11" d="M214.1,113c-1.14,4.78-4,13.22-10.07,14.08,1.18,3,5.71,13,13.35,13s11.46-10,12.44-13C219.74,126.53,215.61,117.82,214.1,113Z" transform="translate(-48.67 -16)"/><path class="cls-11" d="M165.89,113.79c-1.06,5-4.3,12.81-14.14,13.28.81,3,4.31,13,14.89,13a10.73,10.73,0,0,0,8.05-3.06c3.13-3.23,3.6-8.15,3.67-9.91C170.82,126.58,167.34,118.77,165.89,113.79Z" transform="translate(-48.67 -16)"/><path class="cls-11" d="M275.34,113.32a17.64,17.64,0,0,1-4.21,9.81,13.14,13.14,0,0,1-9.29,3.94c.8,3,4.24,13,14.41,13s11.89-10.2,12.15-13C281.59,126.46,277.29,118.19,275.34,113.32Z" transform="translate(-48.67 -16)"/><path class="cls-11" d="M203.56,98.49c-.34,2.7-1.26,6.52-3.76,9.1a8.93,8.93,0,0,1-6,2.73c.4,3.17,2.38,15.35,9.25,15.35,7.9,0,10.27-16,10.3-16.13v0C208.4,107.44,205.17,102,203.56,98.49Z" transform="translate(-48.67 -16)"/><path class="cls-11" d="M165,141.38c-8.82-.88-12.67-8.49-14.1-12.46-1.48,4.22-5.64,12.55-15.32,12.55-.36,0-.71,0-1.06-.06.65,3.23,3.95,15.37,16.38,15.37S164.79,144.38,165,141.38Z" transform="translate(-48.67 -16)"/><path class="cls-11" d="M107,175.45c-1.14,4.92-4.49,13.25-14,13.83,1.24,3,6,13,14.77,13s11.51-10.12,12.08-13C112.09,188.69,108.43,180.34,107,175.45Z" transform="translate(-48.67 -16)"/><path class="cls-11" d="M150.85,97.81c-1.48,4.22-5.64,12.55-15.32,12.55-.36,0-.71,0-1.06-.06.65,3.23,3.95,15.37,16.38,15.37s13.94-12.4,14.1-15.4C156.13,109.39,152.28,101.78,150.85,97.81Z" transform="translate(-48.67 -16)"/><path class="cls-11" d="M300.37,113.2c-1,4.88-3.63,13.17-10.33,13.85.64,2.87,3.39,13,10.62,13s12-9.93,13.31-13C305.78,126.38,301.92,118.05,300.37,113.2Z" transform="translate(-48.67 -16)"/><path class="cls-11" d="M120.76,98.24c-1.26,4.35-4.66,12.12-13,12.12h-.07c.75,3.3,4.09,15.32,13,15.32,9.16,0,11.68-12.76,12.13-15.57C125.41,108.77,122.08,102.13,120.76,98.24Z" transform="translate(-48.67 -16)"/><path class="cls-11" d="M133.72,113c-1.16,4.88-4.32,13.44-12.15,14,.68,2.93,3.77,13,14,13s13.62-10,14.42-13C139.53,126.58,135.28,117.9,133.72,113Z" transform="translate(-48.67 -16)"/><path class="cls-11" d="M301.06,79.22c.74,3.22,4.11,15,13.55,15.33-1.61-7.78-3-14.93-4.07-21C308.15,76.49,305,79.05,301.06,79.22Z" transform="translate(-48.67 -16)"/><path class="cls-11" d="M192.79,144.46c-1.49,4.89-5.13,13.07-12.77,13.7.88,2.94,4.51,13,12.95,13a7.74,7.74,0,0,0,5.8-2.32c3.1-3.2,3.49-8.8,3.53-10.66C196.24,157.55,193.74,149.38,192.79,144.46Z" transform="translate(-48.67 -16)"/><path class="cls-11" d="M165.89,144.9c-1.06,5-4.3,12.81-14.14,13.28.81,3,4.31,13,14.89,13a10.73,10.73,0,0,0,8.05-3.06c3.13-3.23,3.6-8.15,3.67-9.91C170.82,157.69,167.34,149.88,165.89,144.9Z" transform="translate(-48.67 -16)"/><path class="cls-11" d="M244.24,145.38a16.7,16.7,0,0,1-3.82,9,12.15,12.15,0,0,1-8.65,3.8c1.1,3,5.28,13,12.89,13s13.46-9.84,15.13-13C250.37,157.61,246.07,150.33,244.24,145.38Z" transform="translate(-48.67 -16)"/><path class="cls-11" d="M107,113.23c-1.14,4.92-4.49,13.25-14,13.83,1.24,3,6,13,14.77,13s11.51-10.12,12.08-13C112.09,126.47,108.43,118.12,107,113.23Z" transform="translate(-48.67 -16)"/><path class="cls-11" d="M275.34,144.43a17.64,17.64,0,0,1-4.21,9.81,13.14,13.14,0,0,1-9.29,3.94c.8,3,4.24,13,14.41,13s11.9-10.2,12.15-13C281.59,157.57,277.29,149.3,275.34,144.43Z" transform="translate(-48.67 -16)"/><path class="cls-11" d="M325.46,139.09c-1.35-4.73-2.64-9.48-3.85-14.21a9.82,9.82,0,0,1-5.63,2.19C316.81,129.51,319.66,136.55,325.46,139.09Z" transform="translate(-48.67 -16)"/><path class="cls-11" d="M322.55,155.13a9.76,9.76,0,0,1-6.57,3.05c1,3,5,13,13.87,13a9.16,9.16,0,0,0,5.7-1.86c-2.43-6.15-4.71-12.71-6.84-19.44a27.81,27.81,0,0,1-2.16-4.64C326.17,148.31,325.16,152.37,322.55,155.13Z" transform="translate(-48.67 -16)"/><path class="cls-11" d="M300.37,144.31c-1,4.88-3.63,13.17-10.33,13.84.64,2.88,3.39,13,10.62,13s12-9.94,13.31-13C305.78,157.49,301.92,149.16,300.37,144.31Z" transform="translate(-48.67 -16)"/><path class="cls-11" d="M192.79,113.35c-1.49,4.89-5.13,13.07-12.77,13.7.88,2.94,4.51,13,12.95,13a7.74,7.74,0,0,0,5.8-2.32c3.1-3.2,3.49-8.79,3.53-10.66C196.24,126.44,193.74,118.27,192.79,113.35Z" transform="translate(-48.67 -16)"/><path class="cls-11" d="M192.79,82.24c-1.49,4.89-5.13,13.07-12.77,13.7.88,2.94,4.51,13,12.95,13a7.74,7.74,0,0,0,5.8-2.32c3.1-3.2,3.49-8.8,3.53-10.66C196.24,95.33,193.74,87.16,192.79,82.24Z" transform="translate(-48.67 -16)"/><path class="cls-11" d="M165.89,82.68c-1.06,5-4.3,12.81-14.14,13.28.81,3,4.31,13,14.89,13a10.73,10.73,0,0,0,8.05-3.06c3.13-3.23,3.6-8.15,3.67-9.91C170.82,95.47,167.34,87.66,165.89,82.68Z" transform="translate(-48.67 -16)"/><path class="cls-11" d="M179.09,94.56c8.94,0,12.28-12.12,13-15.36C185,78.68,181.17,72,179.5,67.75a15.32,15.32,0,0,1-3.77,8,12.1,12.1,0,0,1-9.09,3.51h-.1C167.19,82.51,170.18,94.56,179.09,94.56Z" transform="translate(-48.67 -16)"/><path class="cls-11" d="M214.1,81.84c-1.14,4.78-4,13.22-10.07,14.07,1.18,3,5.71,13,13.35,13s11.46-10,12.44-13C219.74,95.42,215.61,86.71,214.1,81.84Z" transform="translate(-48.67 -16)"/><path class="cls-11" d="M165,79.16c-8.82-.88-12.67-8.49-14.1-12.46-1.48,4.22-5.64,12.55-15.32,12.55-.36,0-.71,0-1.06-.06.65,3.23,3.95,15.37,16.38,15.37S164.79,82.16,165,79.16Z" transform="translate(-48.67 -16)"/><path class="cls-11" d="M300.37,82.09c-1,4.88-3.63,13.17-10.33,13.84.64,2.88,3.39,13,10.62,13s12-9.94,13.31-13C305.78,95.27,301.92,86.94,300.37,82.09Z" transform="translate(-48.67 -16)"/><path class="cls-11" d="M230.81,97.51c-1.49,4.09-5.6,12.85-13.43,12.85a10.14,10.14,0,0,1-2.56-.33c.51,2.75,3.58,15.64,16,15.64a11.1,11.1,0,0,0,8.57-3.36c3.64-4,3.72-10.29,3.66-12.1C236.21,109.1,232.31,101.29,230.81,97.51Z" transform="translate(-48.67 -16)"/><path class="cls-11" d="M203,94.56c7.9,0,10.27-16,10.3-16.13v0c-4.92-2.08-8.15-7.57-9.76-11-.34,2.7-1.26,6.52-3.76,9.1a8.93,8.93,0,0,1-6,2.73C194.17,82.38,196.15,94.56,203,94.56Z" transform="translate(-48.67 -16)"/><path class="cls-11" d="M244.24,83.16a16.7,16.7,0,0,1-3.82,9,12.15,12.15,0,0,1-8.65,3.8c1.1,3,5.28,13,12.89,13s13.46-9.84,15.13-13C250.37,95.39,246.07,88.1,244.24,83.16Z" transform="translate(-48.67 -16)"/><path class="cls-11" d="M275.34,82.21A17.64,17.64,0,0,1,271.13,92,13.14,13.14,0,0,1,261.84,96c.8,3,4.24,13,14.41,13s11.9-10.2,12.15-13C281.59,95.35,277.29,87.08,275.34,82.21Z" transform="translate(-48.67 -16)"/><path class="cls-11" d="M308.42,61.21c-.86-5.23-1.29-8.29-1.29-8.29-1.18.35-2.57.68-4.12,1A18.8,18.8,0,0,0,308.42,61.21Z" transform="translate(-48.67 -16)"/><path class="cls-11" d="M301.06,110.33c.75,3.27,4.21,15.34,14,15.34a8.62,8.62,0,0,0,6.19-2.35c-2.14-8.47-4-16.8-5.72-24.6-.21-.5-.4-1-.55-1.38C313.18,101.24,308.39,110,301.06,110.33Z" transform="translate(-48.67 -16)"/><path class="cls-11" d="M107,82.12c-1.14,4.92-4.49,13.25-14,13.82,1.24,3,6,13,14.77,13s11.51-10.12,12.08-13C112.09,95.36,108.43,87,107,82.12Z" transform="translate(-48.67 -16)"/><path class="cls-11" d="M289.33,98.9c-1.07,4.45-4.18,11.46-13.08,11.46-.16,0-.31,0-.46,0,1.13,3.39,5.68,15.34,13.38,15.34s9.82-12.33,10.21-15.4C293.53,109.44,290.61,103,289.33,98.9Z" transform="translate(-48.67 -16)"/><path class="cls-11" d="M260.73,97.23c-2.13,3.87-8.06,13.13-16.07,13.13h-.1c.68,3.3,4,15.32,16.37,15.32,3.86,0,6.94-1.18,9.15-3.52,3.75-4,4-10.15,4-12C265.53,109,261.93,100.92,260.73,97.23Z" transform="translate(-48.67 -16)"/><path class="cls-11" d="M230.78,94.56c3.64,0,6.53-1.13,8.58-3.37,3.64-4,3.71-10.28,3.65-12.09-6.8-1.11-10.7-8.92-12.2-12.7-1.49,4.09-5.6,12.85-13.43,12.85a10.14,10.14,0,0,1-2.56-.33C215.34,81.67,218.4,94.56,230.78,94.56Z" transform="translate(-48.67 -16)"/><path class="cls-11" d="M133.72,81.9c-1.16,4.88-4.32,13.44-12.15,14,.68,2.93,3.77,13,14,13s13.59-10,14.41-13C139.52,95.46,135.28,86.79,133.72,81.9Z" transform="translate(-48.67 -16)"/><path class="cls-11" d="M289.17,94.56c7.76,0,9.82-12.34,10.21-15.4-5.85-.83-8.77-7.23-10.05-11.37-1.07,4.45-4.18,11.46-13.08,11.46-.16,0-.31,0-.46,0C276.92,82.61,281.47,94.56,289.17,94.56Z" transform="translate(-48.67 -16)"/><path class="cls-11" d="M260.93,94.56c3.86,0,6.94-1.19,9.16-3.53,3.75-4,4-10.15,4-11.94-8.57-1.18-12.18-9.28-13.38-13-2.13,3.87-8.06,13.13-16.07,13.13h-.1C245.24,82.54,248.56,94.56,260.93,94.56Z" transform="translate(-48.67 -16)"/><path class="cls-11" d="M120.76,67.13c-1.26,4.35-4.66,12.12-13,12.12h-.07c.75,3.3,4.09,15.32,13,15.32,9.17,0,11.69-12.76,12.13-15.57C125.41,77.66,122.08,71,120.76,67.13Z" transform="translate(-48.67 -16)"/><path class="cls-11" d="M179.5,98.86a15.32,15.32,0,0,1-3.77,8,12.1,12.1,0,0,1-9.09,3.51h-.1c.65,3.27,3.64,15.32,12.55,15.32s12.28-12.12,13-15.36C185,109.79,181.17,103.1,179.5,98.86Z" transform="translate(-48.67 -16)"/><path class="cls-11" d="M289.17,156.78c7.75,0,9.82-12.33,10.21-15.4-5.85-.83-8.77-7.23-10.05-11.37-1.07,4.46-4.18,11.46-13.08,11.46-.16,0-.31,0-.46,0C276.92,144.83,281.47,156.78,289.17,156.78Z" transform="translate(-48.67 -16)"/><path class="cls-11" d="M244.24,176.49a16.76,16.76,0,0,1-3.82,9,12.18,12.18,0,0,1-8.65,3.79c1.1,3,5.28,13,12.89,13s13.46-9.84,15.13-13C250.37,188.72,246.07,181.44,244.24,176.49Z" transform="translate(-48.67 -16)"/><path class="cls-11" d="M300.37,175.42c-1,4.88-3.63,13.17-10.33,13.85.64,2.87,3.39,13,10.62,13s12-9.94,13.31-13C305.78,188.6,301.92,180.27,300.37,175.42Z" transform="translate(-48.67 -16)"/><path class="cls-11" d="M275.34,175.54a17.64,17.64,0,0,1-4.21,9.81,13.14,13.14,0,0,1-9.29,3.94c.8,3,4.24,13,14.41,13s11.9-10.2,12.15-13C281.59,188.68,277.29,180.41,275.34,175.54Z" transform="translate(-48.67 -16)"/><path class="cls-11" d="M260.93,156.78c3.86,0,6.94-1.18,9.15-3.52,3.75-4,4-10.15,4-11.95-8.57-1.18-12.17-9.28-13.37-13-2.13,3.87-8.06,13.13-16.07,13.13h-.1C245.24,144.76,248.56,156.78,260.93,156.78Z" transform="translate(-48.67 -16)"/><path class="cls-11" d="M214.1,175.17c-1.14,4.78-4,13.22-10.07,14.08,1.18,3,5.71,13,13.35,13s11.46-10,12.44-13C219.74,188.75,215.61,180,214.1,175.17Z" transform="translate(-48.67 -16)"/><path class="cls-11" d="M230.78,156.78a11.1,11.1,0,0,0,8.57-3.36c3.64-4,3.72-10.29,3.66-12.1-6.8-1.11-10.7-8.92-12.2-12.7-1.49,4.09-5.6,12.85-13.43,12.85a10.14,10.14,0,0,1-2.56-.33C215.34,143.89,218.4,156.78,230.78,156.78Z" transform="translate(-48.67 -16)"/><path class="cls-11" d="M326.55,176.31c-.38,3.11-1.39,7.17-4,9.93a9.76,9.76,0,0,1-6.57,3c1,3,5,13,13.87,13s10.8-10.16,11.17-13C332.51,188.83,328.36,181.3,326.55,176.31Z" transform="translate(-48.67 -16)"/><path class="cls-11" d="M133.72,144.12c-1.16,4.88-4.32,13.44-12.15,14,.68,2.93,3.77,13,14,13s13.59-10,14.41-13C139.52,157.68,135.28,149,133.72,144.12Z" transform="translate(-48.67 -16)"/><path class="cls-11" d="M107,144.34c-1.14,4.92-4.49,13.25-14,13.82,1.24,3,6,13,14.77,13s11.51-10.12,12.08-13C112.09,157.58,108.43,149.23,107,144.34Z" transform="translate(-48.67 -16)"/><path class="cls-11" d="M290,64.82c.64,2.88,3.39,13,10.62,13,4,0,7.2-3,9.53-6.23-.56-3.15-1-6-1.45-8.43-3.47-2.09-5.74-5.72-7.16-9l-2.12.36C298,59.12,295.28,64.3,290,64.82Z" transform="translate(-48.67 -16)"/><path class="cls-11" d="M192.79,175.57c-1.49,4.9-5.13,13.07-12.77,13.7.88,2.94,4.51,13,12.95,13a7.74,7.74,0,0,0,5.8-2.32c3.1-3.2,3.49-8.8,3.53-10.66C196.24,188.66,193.74,180.49,192.79,175.57Z" transform="translate(-48.67 -16)"/><path class="cls-11" d="M315,156.78a8.53,8.53,0,0,0,6.48-2.63c4.25-4.5,3.81-13.27,3.81-13.36a.39.39,0,0,1,0-.15c-6.05-2.31-9.18-8.91-10.39-12.19-1.76,3.9-6.55,12.67-13.88,13C301.81,144.71,305.27,156.78,315,156.78Z" transform="translate(-48.67 -16)"/><path class="cls-11" d="M120.76,129.35c-1.26,4.35-4.66,12.12-13,12.12h-.07c.75,3.31,4.09,15.32,13,15.32,9.16,0,11.68-12.76,12.13-15.57C125.41,139.88,122.08,133.24,120.76,129.35Z" transform="translate(-48.67 -16)"/><path class="cls-11" d="M92.09,128.61c-1.39,4.11-5.52,12.86-15.43,12.86h-.1c.67,3.31,3.89,15.32,15.42,15.32,11.69,0,13.74-12.41,14.06-15.43C98.18,140.31,93.77,132.4,92.09,128.61Z" transform="translate(-48.67 -16)"/><path class="cls-11" d="M326.83,172.21c.59,2.67,4,15.68,15,15.68a12.74,12.74,0,0,0,2.18-.18,164.31,164.31,0,0,1-7.89-17,10.62,10.62,0,0,1-6.26,1.89A12.68,12.68,0,0,1,326.83,172.21Z" transform="translate(-48.67 -16)"/><path class="cls-11" d="M120.76,160.46c-1.26,4.35-4.66,12.12-13,12.12h-.07c.75,3.31,4.09,15.32,13,15.32,9.16,0,11.68-12.76,12.13-15.56C125.41,171,122.08,164.35,120.76,160.46Z" transform="translate(-48.67 -16)"/><path class="cls-11" d="M165.89,176c-1.06,5-4.3,12.82-14.14,13.28.81,3,4.31,13,14.89,13a10.73,10.73,0,0,0,8.05-3.06c3.13-3.23,3.6-8.15,3.67-9.91C170.82,188.8,167.34,181,165.89,176Z" transform="translate(-48.67 -16)"/><path class="cls-11" d="M289.17,187.89c7.75,0,9.82-12.33,10.21-15.4-5.85-.82-8.77-7.23-10.05-11.37-1.07,4.45-4.18,11.46-13.08,11.46-.16,0-.31,0-.46,0C276.92,175.94,281.47,187.89,289.17,187.89Z" transform="translate(-48.67 -16)"/><path class="cls-11" d="M315,187.89a8.53,8.53,0,0,0,6.48-2.63c4.25-4.5,3.81-13.27,3.81-13.36a.39.39,0,0,1,0-.15c-6.05-2.31-9.18-8.91-10.39-12.19-1.76,3.9-6.55,12.67-13.88,13C301.81,175.82,305.27,187.89,315,187.89Z" transform="translate(-48.67 -16)"/><path class="cls-11" d="M133.72,175.23c-1.16,4.88-4.32,13.44-12.15,14,.68,2.93,3.77,13,14,13s13.59-10,14.41-13C139.52,188.79,135.28,180.12,133.72,175.23Z" transform="translate(-48.67 -16)"/><path class="cls-11" d="M92.09,159.72c-1.39,4.11-5.52,12.86-15.43,12.86h-.1c.67,3.31,3.89,15.32,15.42,15.32,11.69,0,13.74-12.41,14.06-15.43C98.18,171.42,93.77,163.51,92.09,159.72Z" transform="translate(-48.67 -16)"/><path class="cls-11" d="M179.09,156.78c8.95,0,12.28-12.12,13-15.36-7.15-.52-10.93-7.21-12.6-11.45a15.35,15.35,0,0,1-3.77,8,12.1,12.1,0,0,1-9.09,3.51h-.1C167.19,144.73,170.18,156.78,179.09,156.78Z" transform="translate(-48.67 -16)"/><path class="cls-11" d="M260.93,187.89c3.86,0,6.94-1.18,9.15-3.52,3.75-4,4-10.15,4-12-8.57-1.18-12.17-9.28-13.37-13-2.13,3.87-8.06,13.13-16.07,13.13h-.1C245.24,175.87,248.56,187.89,260.93,187.89Z" transform="translate(-48.67 -16)"/><path class="cls-11" d="M179.09,187.89c8.95,0,12.28-12.12,13-15.36-7.15-.52-10.93-7.21-12.6-11.45a15.32,15.32,0,0,1-3.77,8,12.1,12.1,0,0,1-9.09,3.51h-.1C167.19,175.85,170.18,187.89,179.09,187.89Z" transform="translate(-48.67 -16)"/><path class="cls-11" d="M165,172.49c-8.82-.88-12.67-8.49-14.1-12.46-1.48,4.22-5.64,12.55-15.32,12.55-.36,0-.71,0-1.06-.06.65,3.23,3.95,15.37,16.38,15.37S164.79,175.49,165,172.49Z" transform="translate(-48.67 -16)"/><path class="cls-11" d="M203,187.89c7.9,0,10.27-16,10.3-16.13v0c-4.92-2.08-8.15-7.57-9.76-11-.34,2.7-1.26,6.52-3.76,9.11a9,9,0,0,1-6,2.72C194.17,175.71,196.15,187.89,203,187.89Z" transform="translate(-48.67 -16)"/><path class="cls-11" d="M230.78,187.89a11.1,11.1,0,0,0,8.57-3.36c3.64-3.95,3.72-10.29,3.66-12.1-6.8-1.11-10.7-8.92-12.2-12.7-1.49,4.09-5.6,12.85-13.43,12.85a10.14,10.14,0,0,1-2.56-.33C215.34,175,218.4,187.89,230.78,187.89Z" transform="translate(-48.67 -16)"/><path class="cls-11" d="M203,156.78c7.9,0,10.27-16,10.3-16.13v0c-4.92-2.08-8.15-7.57-9.76-11-.34,2.7-1.26,6.52-3.76,9.11a9,9,0,0,1-6,2.72C194.17,144.6,196.15,156.78,203,156.78Z" transform="translate(-48.67 -16)"/><path class="cls-12" d="M149.94,64.84c.13-.48.2-.79.21-.81a.72.72,0,0,1,.7-.58,14.65,14.65,0,0,1-10.61-4.15h-1.89A15.84,15.84,0,0,0,149.94,64.84Z" transform="translate(-48.67 -16)"/><path class="cls-12" d="M120.7,63.45a.71.71,0,0,1,.7.6c0,.07.07.35.17.78,4-.31,6.79-2.69,8.71-5.61l-1.79,0A9.55,9.55,0,0,1,120.7,63.45Z" transform="translate(-48.67 -16)"/><path class="cls-12" d="M178.36,64.84c0-.4,0-.63,0-.65a.72.72,0,0,1,.62-.73.73.73,0,0,1,.8.55s.08.33.23.82c3.92-.32,6.78-2.62,8.84-5.45H187a10.12,10.12,0,0,1-7.89,4.06,9.77,9.77,0,0,1-7.74-4H169.5C171.51,62.29,174.37,64.59,178.36,64.84Z" transform="translate(-48.67 -16)"/><path class="cls-12" d="M150.85,63.45a.71.71,0,0,1,.7.58c0,.07.08.37.2.82a13.57,13.57,0,0,0,10.76-5.44h-1.77A12.66,12.66,0,0,1,150.85,63.45Z" transform="translate(-48.67 -16)"/><path class="cls-12" d="M202.3,64.83c0-.38,0-.62,0-.63a.73.73,0,0,1,.59-.74.72.72,0,0,1,.81.48s.12.35.33.86c3.05-.43,5.29-2.78,6.91-5.63l-1.68,0c-1.53,2.43-3.57,4.26-6.24,4.26s-4.52-1.77-5.9-4.13h-1.63C197,62.2,199.17,64.51,202.3,64.83Z" transform="translate(-48.67 -16)"/><path class="cls-12" d="M288.4,64.83c0-.37.05-.62.05-.68a.74.74,0,0,1,.67-.7.72.72,0,0,1,.76.6s.06.31.16.77c5.24-.52,8-5.7,9.42-10.27l-1.61.24c-1.42,4.22-4,8.66-8.68,8.66-4,0-7.13-3.21-9.39-6.77l-1.63.12C280.5,60.71,283.9,64.44,288.4,64.83Z" transform="translate(-48.67 -16)"/><path class="cls-12" d="M119.85,64.83c.09-.45.13-.73.13-.75a.73.73,0,0,1,.7-.63h0c-3.57,0-6.24-1.92-8.21-4.44l-1.85,0C112.74,62,115.71,64.52,119.85,64.83Z" transform="translate(-48.67 -16)"/><path class="cls-12" d="M229.82,64.84c.17-.51.26-.83.26-.85a.75.75,0,0,1,.69-.54.68.68,0,0,1,.7.51s.11.37.3.89a12.15,12.15,0,0,0,8.65-3.8,12.56,12.56,0,0,0,1.79-2.54l-1.7.05a11.24,11.24,0,0,1-1.15,1.52c-2.05,2.24-4.94,3.37-8.58,3.37A14,14,0,0,1,220.24,59l-1.79,0A15.31,15.31,0,0,0,229.82,64.84Z" transform="translate(-48.67 -16)"/><path class="cls-12" d="M259.79,64.83c.3-.57.48-.94.49-1a.71.71,0,0,1,.74-.41.75.75,0,0,1,.62.57c0,.07.08.37.2.82a13.14,13.14,0,0,0,9.29-3.94,14.28,14.28,0,0,0,2.53-3.81l-1.66.11a12.45,12.45,0,0,1-1.91,2.71c-2.22,2.34-5.3,3.53-9.16,3.53a14.64,14.64,0,0,1-11.57-5.17l-1.72.06A16,16,0,0,0,259.79,64.83Z" transform="translate(-48.67 -16)"/><path class="cls-12" d="M308.74,63.15c-.11-.68-.22-1.33-.32-1.94a18.8,18.8,0,0,1-5.41-7.3l-1.43.28C303,57.43,305.27,61.06,308.74,63.15Z" transform="translate(-48.67 -16)"/><path class="cls-12" d="M91.93,63.45a.73.73,0,0,1,.73.49s.13.37.34.89a13.41,13.41,0,0,0,10.61-5.95l-1.78,0A12.1,12.1,0,0,1,92,63.45l-.56,0c0,.14,0,.27,0,.41A.72.72,0,0,1,91.93,63.45Z" transform="translate(-48.67 -16)"/><path class="cls-12" d="M106,79.13c0-.39.06-.62.06-.64a.72.72,0,0,1,1.43-.08s0,.33.17.83h.07c8.33,0,11.73-7.77,13-12.12C122.08,71,125.41,77.66,132.83,79c0-.32.07-.52.07-.54a.74.74,0,0,1,.71-.64h0a.72.72,0,0,1,.71.62c0,.07,0,.35.14.76.35,0,.7.06,1.06.06,9.68,0,13.84-8.33,15.32-12.55,1.43,4,5.28,11.58,14.1,12.46,0-.34,0-.56,0-.63a.72.72,0,0,1,.67-.72.73.73,0,0,1,.76.62s0,.32.14.81h.1a12.1,12.1,0,0,0,9.09-3.51,15.32,15.32,0,0,0,3.77-8C181.17,72,185,78.68,192.1,79.2c.1-.48.16-.77.16-.79a.72.72,0,0,1,1.42.06s0,.29.09.74a8.93,8.93,0,0,0,6-2.73c2.5-2.58,3.42-6.4,3.76-9.1,1.61,3.46,4.84,9,9.76,11a.72.72,0,0,1,1.42,0s0,.23.08.49a10.14,10.14,0,0,0,2.56.33c7.83,0,11.94-8.76,13.43-12.85,1.5,3.78,5.4,11.59,12.2,12.7,0-.31,0-.5,0-.51a.7.7,0,0,1,.63-.77.71.71,0,0,1,.79.61c0,.08.06.37.15.81h.1c8,0,13.94-9.26,16.07-13.13,1.2,3.69,4.81,11.79,13.38,13,0-.31,0-.51,0-.52a.71.71,0,0,1,1.4-.24s.11.35.29.89c.15,0,.3,0,.46,0,8.9,0,12-7,13.08-11.46,1.28,4.14,4.2,10.54,10.05,11.37.06-.42.08-.67.08-.69a.72.72,0,0,1,1.43-.06s.05.32.17.81c3.91-.17,7.09-2.73,9.48-5.69-.12-.67-.24-1.31-.35-2-2.33,3.22-5.56,6.23-9.53,6.23-7.23,0-10-10.11-10.62-13-.1-.46-.16-.75-.16-.77a.72.72,0,0,0-.76-.6.74.74,0,0,0-.67.7c0,.06,0,.31-.05.68-.25,2.78-1.9,13-12.15,13s-13.61-10-14.41-13c-.12-.45-.19-.75-.2-.82a.75.75,0,0,0-.62-.57.71.71,0,0,0-.74.41s-.19.39-.49,1c-1.67,3.14-7.51,13-15.13,13s-11.79-9.94-12.89-13c-.19-.52-.3-.87-.3-.89a.68.68,0,0,0-.7-.51.75.75,0,0,0-.69.54s-.09.34-.26.85c-1,3-4.82,13-12.44,13s-12.17-10-13.35-13c-.21-.51-.32-.84-.33-.86a.72.72,0,0,0-.81-.48.73.73,0,0,0-.59.74s0,.25,0,.63c0,1.86-.43,7.46-3.53,10.66a7.74,7.74,0,0,1-5.8,2.32c-8.44,0-12.07-10-12.95-13-.15-.49-.23-.8-.23-.82a.73.73,0,0,0-.8-.55.72.72,0,0,0-.62.73s0,.25,0,.65c-.07,1.76-.54,6.68-3.67,9.91a10.73,10.73,0,0,1-8.05,3.06c-10.58,0-14.08-10-14.89-13-.12-.45-.18-.75-.2-.82a.71.71,0,0,0-.7-.58.72.72,0,0,0-.7.58s-.08.33-.21.81c-.82,2.93-4.34,13-14.41,13s-13.28-10-14-13c-.1-.43-.15-.71-.17-.78a.71.71,0,0,0-.7-.6h0a.73.73,0,0,0-.7.63s0,.3-.13.75c-.57,2.86-3.22,13-12.08,13S94.24,67.87,93,64.83c-.21-.52-.33-.87-.34-.89a.73.73,0,0,0-.73-.49.72.72,0,0,0-.55.39q-.22,2.76-.52,5.54a25.16,25.16,0,0,0,1.23-3C93.77,70.18,98.18,78.09,106,79.13Z" transform="translate(-48.67 -16)"/><path class="cls-12" d="M91.27,95.14a.74.74,0,0,1,.66-.58.73.73,0,0,1,.73.49s.13.37.34.89c9.47-.57,12.82-8.9,14-13.82,1.47,4.89,5.13,13.24,12.89,13.82.09-.45.13-.73.13-.75a.73.73,0,0,1,.7-.63.66.66,0,0,1,.72.6c0,.07.07.35.17.78,7.83-.6,11-9.16,12.15-14,1.56,4.89,5.8,13.56,16.22,14,.13-.48.2-.79.21-.81a.72.72,0,0,1,.7-.58c-12.43,0-15.73-12.14-16.38-15.37-.09-.41-.13-.69-.14-.76a.72.72,0,0,0-.71-.62h0a.74.74,0,0,0-.71.64s0,.22-.07.54c-.44,2.81-3,15.57-12.13,15.57-8.91,0-12.25-12-13-15.32-.12-.5-.17-.81-.17-.83a.72.72,0,0,0-1.43.08s0,.25-.06.64c-.35,3-2.51,15.43-14.06,15.43a14,14,0,0,1-4.93-.85c-.1.47-.2.94-.29,1.41a15.07,15.07,0,0,0,4.31.83C91.2,95.47,91.27,95.16,91.27,95.14Z" transform="translate(-48.67 -16)"/><path class="cls-12" d="M301.06,79.22c-.12-.49-.17-.79-.17-.81a.72.72,0,0,0-1.43.06s0,.27-.08.69c-.39,3.06-2.45,15.4-10.21,15.4s-12.25-12-13.38-15.34c-.18-.54-.28-.87-.29-.89a.71.71,0,0,0-1.4.24s0,.21,0,.52c0,1.79-.27,8-4,11.94-2.22,2.34-5.3,3.53-9.16,3.53-12.37,0-15.69-12-16.37-15.32-.09-.44-.14-.73-.15-.81a.71.71,0,0,0-.79-.61.7.7,0,0,0-.63.77s0,.2,0,.51c.06,1.81,0,8.13-3.65,12.09-2.05,2.24-4.94,3.37-8.58,3.37-12.38,0-15.44-12.89-16-15.64,0-.26-.07-.44-.08-.49a.72.72,0,0,0-1.42,0v0c0,.16-2.4,16.13-10.3,16.13-6.87,0-8.85-12.18-9.25-15.35-.06-.45-.08-.72-.09-.74a.72.72,0,0,0-1.42-.06s-.06.31-.16.79c-.73,3.24-4.07,15.36-13,15.36s-11.9-12-12.55-15.32c-.09-.49-.14-.79-.14-.81a.73.73,0,0,0-.76-.62.72.72,0,0,0-.67.72c0,.07,0,.29,0,.63-.16,3-1.56,15.4-14.1,15.4a.71.71,0,0,1,.7.58c0,.07.08.37.2.82,9.84-.47,13.08-8.27,14.14-13.28,1.45,5,4.93,12.79,12.47,13.27,0-.4,0-.63,0-.65a.72.72,0,0,1,.62-.73.73.73,0,0,1,.8.55s.08.33.23.82c7.64-.63,11.28-8.81,12.77-13.7,1,4.92,3.45,13.09,9.51,13.7,0-.38,0-.62,0-.63a.72.72,0,0,1,1.4-.26s.12.35.33.86c6.06-.85,8.93-9.29,10.07-14.07,1.51,4.87,5.64,13.58,15.72,14.11.17-.51.26-.83.26-.85a.75.75,0,0,1,.69-.54.73.73,0,0,1,.7.51s.11.37.3.89a12.15,12.15,0,0,0,8.65-3.8,16.7,16.7,0,0,0,3.82-9c1.83,4.94,6.13,12.23,15.55,12.78.3-.57.48-.94.49-1a.71.71,0,0,1,.74-.41.75.75,0,0,1,.62.57c0,.07.08.37.2.82A13.14,13.14,0,0,0,271.13,92a17.64,17.64,0,0,0,4.21-9.81c2,4.87,6.25,13.14,13.06,13.73,0-.37.05-.62.05-.68a.74.74,0,0,1,.67-.7.71.71,0,0,1,.76.6s.06.31.16.77c6.7-.67,9.35-9,10.33-13.84,1.55,4.85,5.41,13.18,13.6,13.84.23-.53.36-.88.37-.9a.74.74,0,0,1,.3-.35l0-.13C305.17,94.21,301.8,82.44,301.06,79.22Z" transform="translate(-48.67 -16)"/><path class="cls-12" d="M92.09,97.5c1.68,3.79,6.09,11.7,14,12.74,0-.35.06-.57.06-.64a.72.72,0,0,1,1.43-.08s0,.33.17.83h.07c8.33,0,11.73-7.77,13-12.12,1.32,3.89,4.65,10.53,12.07,11.86,0-.33.07-.53.07-.54a.72.72,0,0,1,1.43,0c0,.07,0,.35.14.76.35,0,.7.06,1.06.06,9.68,0,13.84-8.33,15.32-12.55,1.43,4,5.28,11.58,14.1,12.46,0-.34,0-.56,0-.63a.72.72,0,0,1,.67-.72.73.73,0,0,1,.76.62s0,.32.14.81h.1a12.1,12.1,0,0,0,9.09-3.51,15.32,15.32,0,0,0,3.77-8c1.67,4.24,5.45,10.93,12.6,11.45.11-.48.16-.77.16-.79a.74.74,0,0,1,.74-.6.72.72,0,0,1,.68.66s0,.29.09.74a8.93,8.93,0,0,0,6-2.73c2.5-2.58,3.42-6.4,3.76-9.1,1.61,3.46,4.84,9,9.76,11a.72.72,0,0,1,1.42,0c0,.06,0,.23.08.49a10.14,10.14,0,0,0,2.56.33c7.83,0,11.94-8.76,13.43-12.85,1.5,3.78,5.4,11.59,12.2,12.7,0-.31,0-.5,0-.51a.7.7,0,0,1,.63-.77.71.71,0,0,1,.79.61c0,.08.06.37.15.81h.1c8,0,13.94-9.26,16.07-13.13,1.2,3.69,4.8,11.79,13.37,13v-.52a.71.71,0,0,1,.59-.75.72.72,0,0,1,.81.51s.11.35.29.89c.15,0,.3,0,.46,0,8.9,0,12-7,13.08-11.46,1.28,4.14,4.2,10.54,10.05,11.37.06-.42.08-.67.08-.69a.72.72,0,0,1,1.43-.06s.05.32.17.81c7.33-.32,12.12-9.09,13.88-13,.15.41.34.88.55,1.38l-.85-4a.74.74,0,0,0-.3.35s-.14.37-.37.9c-1.29,3-6.08,13-13.31,13s-10-10.11-10.62-13c-.1-.46-.16-.75-.16-.77a.71.71,0,0,0-.76-.6.74.74,0,0,0-.67.7c0,.06,0,.31-.05.68-.25,2.78-1.9,13-12.15,13s-13.61-10-14.41-13c-.12-.45-.19-.75-.2-.82a.75.75,0,0,0-.62-.57.71.71,0,0,0-.74.41s-.19.39-.49,1c-1.67,3.14-7.51,13-15.13,13S232.87,99,231.77,96c-.19-.52-.3-.86-.3-.89a.73.73,0,0,0-.7-.51.75.75,0,0,0-.69.54s-.09.34-.26.85c-1,3-4.82,13-12.44,13s-12.17-10-13.35-13c-.21-.51-.32-.84-.33-.86a.72.72,0,0,0-1.4.26s0,.25,0,.63c0,1.86-.43,7.46-3.53,10.66a7.74,7.74,0,0,1-5.8,2.32c-8.44,0-12.07-10-12.95-13-.15-.49-.23-.8-.23-.82a.73.73,0,0,0-.8-.55.72.72,0,0,0-.62.73s0,.25,0,.65c-.07,1.76-.54,6.68-3.67,9.91a10.73,10.73,0,0,1-8.05,3.06c-10.58,0-14.08-10-14.89-13-.12-.45-.18-.75-.2-.82a.71.71,0,0,0-.7-.58.72.72,0,0,0-.7.58s-.08.33-.21.81c-.82,2.93-4.34,13-14.41,13s-13.28-10-14-13c-.1-.43-.15-.71-.17-.78a.66.66,0,0,0-.72-.6.73.73,0,0,0-.7.63s0,.3-.13.75c-.57,2.86-3.22,13-12.08,13S94.24,99,93,95.94c-.21-.52-.33-.87-.34-.89a.73.73,0,0,0-.73-.49.74.74,0,0,0-.66.58s-.07.33-.2.81c-.57,2-2.45,7.47-6.91,10.63-.16.67-.33,1.34-.5,2C88.65,105.82,91.09,100.46,92.09,97.5Z" transform="translate(-48.67 -16)"/><path class="cls-12" d="M91.08,127.06c.12-.44.18-.74.19-.81a.72.72,0,0,1,.66-.57.7.7,0,0,1,.73.48s.13.37.34.9c9.47-.58,12.82-8.91,14-13.83,1.47,4.89,5.13,13.24,12.89,13.82.09-.45.13-.73.13-.75a.74.74,0,0,1,.7-.63.66.66,0,0,1,.72.6c0,.08.07.35.17.78,7.83-.6,11-9.16,12.15-14,1.56,4.89,5.81,13.57,16.23,14,.12-.44.18-.74.2-.81a.71.71,0,0,1,1.4,0c0,.07.08.37.2.82,9.84-.47,13.08-8.27,14.14-13.28,1.45,5,4.93,12.79,12.47,13.27,0-.4,0-.63,0-.64a.73.73,0,0,1,.62-.74.74.74,0,0,1,.8.55s.08.33.23.82c7.64-.63,11.28-8.81,12.77-13.7,1,4.92,3.45,13.09,9.51,13.7,0-.38,0-.62,0-.63a.71.71,0,0,1,.59-.73.7.7,0,0,1,.81.47s.12.36.33.87c6.06-.86,8.93-9.3,10.07-14.08,1.51,4.87,5.64,13.58,15.72,14.11.17-.51.26-.83.26-.85a.75.75,0,0,1,.69-.54.71.71,0,0,1,.7.52s.11.36.3.88a12.18,12.18,0,0,0,8.65-3.79,16.76,16.76,0,0,0,3.82-9c1.83,4.94,6.13,12.23,15.55,12.79.3-.58.48-1,.49-1a.71.71,0,0,1,.74-.41.75.75,0,0,1,.62.57c0,.07.08.37.2.82a13.14,13.14,0,0,0,9.29-3.94,17.64,17.64,0,0,0,4.21-9.81c2,4.87,6.25,13.14,13.06,13.73,0-.37.05-.62.05-.68a.72.72,0,0,1,.67-.69.7.7,0,0,1,.76.59s.06.32.16.78c6.7-.68,9.35-9,10.33-13.85,1.55,4.85,5.41,13.18,13.6,13.85.23-.54.36-.88.37-.91a.74.74,0,0,1,.71-.47.72.72,0,0,1,.66.54s.1.35.27.86a9.82,9.82,0,0,0,5.63-2.19c-.13-.52-.27-1-.4-1.56a8.62,8.62,0,0,1-6.19,2.35c-9.75,0-13.21-12.07-14-15.34-.12-.49-.17-.79-.17-.81a.72.72,0,0,0-1.43.06s0,.27-.08.69c-.39,3.07-2.46,15.4-10.21,15.4s-12.25-12-13.38-15.34c-.18-.54-.28-.86-.29-.89a.72.72,0,0,0-.81-.51.71.71,0,0,0-.59.75v.52c0,1.8-.27,8-4,12-2.21,2.34-5.29,3.52-9.15,3.52-12.37,0-15.69-12-16.37-15.32-.09-.44-.14-.73-.15-.81a.71.71,0,0,0-.79-.61.7.7,0,0,0-.63.77s0,.2,0,.51c.06,1.81,0,8.14-3.66,12.1a11.1,11.1,0,0,1-8.57,3.36c-12.38,0-15.45-12.89-16-15.64,0-.26-.07-.43-.08-.49a.72.72,0,0,0-1.42,0v0c0,.16-2.4,16.13-10.3,16.13-6.87,0-8.85-12.18-9.25-15.35-.06-.45-.08-.72-.09-.74a.72.72,0,0,0-.68-.66.74.74,0,0,0-.74.6s0,.31-.16.79c-.73,3.24-4.06,15.36-13,15.36s-11.9-12-12.55-15.32c-.09-.49-.14-.79-.14-.81a.73.73,0,0,0-.76-.62.72.72,0,0,0-.67.72c0,.07,0,.29,0,.63-.16,3-1.58,15.4-14.1,15.4s-15.73-12.14-16.38-15.37c-.09-.41-.13-.69-.14-.76a.72.72,0,0,0-1.43,0s0,.21-.07.54c-.45,2.81-3,15.57-12.13,15.57-8.91,0-12.25-12-13-15.32-.12-.5-.17-.81-.17-.83a.72.72,0,0,0-1.43.08c0,.07,0,.29-.06.64-.32,3-2.36,15.43-14.06,15.43a13.59,13.59,0,0,1-11.35-5.81c-.15.54-.3,1.08-.46,1.62A14.69,14.69,0,0,0,91.08,127.06Z" transform="translate(-48.67 -16)"/><path class="cls-12" d="M75,140.63a.72.72,0,0,1,.71-.6h0a.73.73,0,0,1,.7.62c0,.08,0,.37.14.81h.1c9.91,0,14-8.75,15.43-12.86,1.68,3.79,6.09,11.7,14,12.74,0-.35.06-.57.06-.64a.72.72,0,0,1,1.43-.08s0,.33.17.83h.07c8.33,0,11.73-7.77,13-12.12,1.32,3.89,4.65,10.53,12.07,11.86,0-.32.07-.52.07-.54a.74.74,0,0,1,.71-.64.68.68,0,0,1,.72.62c0,.07,0,.35.14.76.35,0,.7.06,1.06.06,9.68,0,13.84-8.33,15.32-12.55,1.43,4,5.28,11.58,14.1,12.46,0-.34,0-.56,0-.63a.72.72,0,0,1,.67-.72.74.74,0,0,1,.76.62s0,.32.14.81h.1a12.1,12.1,0,0,0,9.09-3.51,15.35,15.35,0,0,0,3.77-8c1.67,4.24,5.45,10.93,12.6,11.45.11-.48.16-.77.16-.79a.71.71,0,0,1,.74-.6.72.72,0,0,1,.68.66s0,.29.09.74a9,9,0,0,0,6-2.72c2.5-2.59,3.42-6.41,3.76-9.11,1.61,3.46,4.84,9,9.76,11a.73.73,0,0,1,.71-.6.72.72,0,0,1,.71.62s0,.23.08.49a10.14,10.14,0,0,0,2.56.33c7.83,0,11.94-8.76,13.43-12.85,1.5,3.78,5.4,11.59,12.2,12.7,0-.31,0-.5,0-.51a.71.71,0,0,1,1.42-.16c0,.08.06.37.15.81h.1c8,0,13.94-9.26,16.07-13.13,1.2,3.69,4.8,11.79,13.37,13v-.52a.71.71,0,0,1,.59-.75.72.72,0,0,1,.81.51s.11.35.29.89c.15,0,.3,0,.46,0,8.9,0,12-7,13.08-11.46,1.28,4.14,4.2,10.54,10.05,11.37.06-.42.08-.67.08-.69a.73.73,0,0,1,.69-.66.69.69,0,0,1,.74.6s.05.32.17.81c7.33-.32,12.12-9.09,13.88-13,1.21,3.28,4.34,9.88,10.39,12.19a.69.69,0,0,1,.42-.54c-.09-.34-.19-.67-.29-1-5.8-2.54-8.65-9.58-9.48-12-.17-.51-.26-.84-.27-.86a.72.72,0,0,0-.66-.54.74.74,0,0,0-.71.47s-.14.37-.37.91c-1.3,3-6.08,13-13.31,13s-10-10.11-10.62-13c-.1-.46-.16-.76-.16-.78a.7.7,0,0,0-.76-.59.72.72,0,0,0-.67.69c0,.06,0,.31-.05.68-.26,2.78-1.92,13-12.15,13s-13.61-10-14.41-13c-.12-.45-.19-.75-.2-.82a.75.75,0,0,0-.62-.57.71.71,0,0,0-.74.41s-.19.39-.49,1c-1.67,3.13-7.51,13-15.13,13s-11.79-9.93-12.89-13c-.19-.52-.3-.86-.3-.88a.71.71,0,0,0-.7-.52.75.75,0,0,0-.69.54s-.09.34-.26.85c-1,3-4.83,13-12.44,13S205.21,130,204,127c-.21-.51-.32-.85-.33-.87a.7.7,0,0,0-.81-.47.71.71,0,0,0-.59.73s0,.25,0,.63c0,1.87-.43,7.46-3.53,10.66A7.74,7.74,0,0,1,193,140c-8.44,0-12.07-10-12.95-13-.15-.49-.23-.8-.23-.82a.74.74,0,0,0-.8-.55.73.73,0,0,0-.62.74s0,.24,0,.64c-.07,1.76-.54,6.68-3.67,9.91a10.73,10.73,0,0,1-8.05,3.06c-10.58,0-14.08-10-14.89-13-.12-.45-.18-.75-.2-.82a.71.71,0,0,0-1.4,0c0,.07-.08.37-.2.81-.8,3-4.24,13-14.42,13s-13.28-10.05-14-13c-.1-.43-.15-.7-.17-.78a.66.66,0,0,0-.72-.6.74.74,0,0,0-.7.63s0,.3-.13.75c-.57,2.86-3.22,13-12.08,13s-13.53-9.94-14.77-13c-.21-.53-.33-.87-.34-.9a.7.7,0,0,0-.73-.48.72.72,0,0,0-.66.57c0,.07-.07.37-.19.81-.8,3-4.23,13-14.42,13a13.81,13.81,0,0,1-2.27-.19c-.16.46-.32.92-.47,1.38.3.06.61.1.92.14C75,140.91,75,140.65,75,140.63Z" transform="translate(-48.67 -16)"/><path class="cls-12" d="M75.68,143.75c1.4,4.79,5.4,13.88,15.39,14.42.13-.48.2-.79.2-.81a.72.72,0,0,1,.66-.57.69.69,0,0,1,.73.48s.13.37.34.89c9.47-.57,12.82-8.9,14-13.82,1.47,4.89,5.13,13.24,12.89,13.82.09-.45.13-.73.13-.75a.73.73,0,0,1,.7-.63.69.69,0,0,1,.72.6c0,.07.07.35.17.78,7.83-.6,11-9.16,12.15-14,1.56,4.89,5.8,13.56,16.22,14,.13-.48.2-.79.21-.81a.72.72,0,0,1,.7-.58c-12.43,0-15.73-12.14-16.38-15.37-.09-.41-.13-.69-.14-.76a.68.68,0,0,0-.72-.62.74.74,0,0,0-.71.64s0,.22-.07.54c-.45,2.81-3,15.57-12.13,15.57-8.91,0-12.25-12-13-15.32-.12-.5-.17-.81-.17-.83a.72.72,0,0,0-1.43.08c0,.07,0,.29-.06.64-.32,3-2.37,15.43-14.06,15.43-11.53,0-14.75-12-15.42-15.32-.09-.44-.13-.73-.14-.81a.73.73,0,0,0-.7-.62h0a.72.72,0,0,0-.71.6s0,.28-.16.73a27.36,27.36,0,0,1-4.53,10c-.43,1.16-.86,2.32-1.29,3.45C72.74,151.57,74.73,146.79,75.68,143.75Z" transform="translate(-48.67 -16)"/><path class="cls-12" d="M325.33,140.64a.39.39,0,0,0,0,.15c0,.09.44,8.86-3.81,13.36a8.53,8.53,0,0,1-6.48,2.63c-9.75,0-13.21-12.07-14-15.34-.12-.49-.17-.79-.17-.81a.69.69,0,0,0-.74-.6.73.73,0,0,0-.69.66s0,.27-.08.69c-.39,3.07-2.46,15.4-10.21,15.4s-12.25-11.95-13.38-15.34c-.18-.54-.28-.87-.29-.89a.72.72,0,0,0-.81-.51.71.71,0,0,0-.59.75v.52c0,1.8-.27,8-4,11.95-2.21,2.34-5.29,3.52-9.15,3.52-12.37,0-15.69-12-16.37-15.32-.09-.44-.14-.73-.15-.81a.71.71,0,0,0-1.42.16s0,.2,0,.51c.06,1.81,0,8.14-3.66,12.1a11.1,11.1,0,0,1-8.57,3.36c-12.38,0-15.44-12.89-16-15.64,0-.26-.07-.44-.08-.49A.72.72,0,0,0,214,140a.73.73,0,0,0-.71.6v0c0,.16-2.4,16.13-10.3,16.13-6.87,0-8.85-12.18-9.25-15.35-.06-.45-.08-.72-.09-.74A.72.72,0,0,0,193,140a.71.71,0,0,0-.74.6s0,.31-.16.79c-.73,3.24-4.06,15.36-13,15.36s-11.9-12.05-12.55-15.32c-.09-.49-.14-.79-.14-.81a.74.74,0,0,0-.76-.62.72.72,0,0,0-.67.72c0,.07,0,.29,0,.63-.16,3-1.58,15.4-14.1,15.4a.72.72,0,0,1,.7.58c0,.07.08.37.2.82,9.84-.47,13.08-8.27,14.14-13.28,1.45,5,4.93,12.79,12.47,13.27,0-.4,0-.63,0-.64a.73.73,0,0,1,.62-.74.74.74,0,0,1,.8.55s.08.33.23.82c7.64-.63,11.28-8.81,12.77-13.7,1,4.92,3.45,13.09,9.51,13.7,0-.38,0-.62,0-.63a.72.72,0,0,1,1.4-.26s.12.36.33.86c6.06-.85,8.93-9.29,10.07-14.07,1.51,4.87,5.64,13.58,15.72,14.11.17-.51.26-.83.26-.85a.75.75,0,0,1,.69-.54.69.69,0,0,1,.7.52s.11.36.3.88a12.15,12.15,0,0,0,8.65-3.8,16.7,16.7,0,0,0,3.82-9c1.83,5,6.13,12.23,15.55,12.79.3-.58.48-.95.49-1a.71.71,0,0,1,.74-.41.75.75,0,0,1,.62.57c0,.07.08.37.2.82a13.14,13.14,0,0,0,9.29-3.94,17.64,17.64,0,0,0,4.21-9.81c2,4.87,6.25,13.14,13.06,13.73,0-.37.05-.62.05-.68a.72.72,0,0,1,.67-.69.69.69,0,0,1,.76.59s.06.32.16.77c6.7-.67,9.35-9,10.33-13.84,1.55,4.85,5.41,13.18,13.6,13.85.23-.54.36-.88.37-.9a.67.67,0,0,1,.71-.47.7.7,0,0,1,.66.53s.1.35.27.86a9.76,9.76,0,0,0,6.57-3.05c2.61-2.76,3.62-6.82,4-9.93a27.81,27.81,0,0,0,2.16,4.64c-1-3.21-2-6.47-3-9.74A.69.69,0,0,0,325.33,140.64Z" transform="translate(-48.67 -16)"/><path class="cls-12" d="M74.84,172.47c.11-.45.15-.71.16-.73a.67.67,0,0,1,.72-.6.73.73,0,0,1,.7.62c0,.08,0,.37.14.81h.1c9.91,0,14-8.75,15.43-12.86,1.68,3.79,6.09,11.7,14,12.74,0-.34.06-.57.06-.64a.73.73,0,0,1,.68-.68.72.72,0,0,1,.75.6s0,.33.17.83h.07c8.33,0,11.73-7.77,13-12.12,1.32,3.89,4.65,10.53,12.07,11.87,0-.33.07-.53.07-.55a.74.74,0,0,1,.71-.64.71.71,0,0,1,.72.62c0,.07,0,.35.14.76.35,0,.7.06,1.06.06,9.68,0,13.84-8.33,15.32-12.55,1.43,4,5.28,11.58,14.1,12.46,0-.34,0-.56,0-.63a.71.71,0,0,1,.67-.71.71.71,0,0,1,.76.61s0,.32.14.81h.1a12.1,12.1,0,0,0,9.09-3.51,15.32,15.32,0,0,0,3.77-8c1.67,4.24,5.45,10.93,12.6,11.45.11-.48.16-.77.16-.79a.76.76,0,0,1,.74-.6.72.72,0,0,1,.68.66s0,.29.09.74a9,9,0,0,0,6-2.72c2.5-2.59,3.42-6.41,3.76-9.11,1.61,3.46,4.84,8.95,9.76,11a.72.72,0,0,1,1.42,0c0,.06,0,.23.08.49a10.14,10.14,0,0,0,2.56.33c7.83,0,11.94-8.76,13.43-12.85,1.5,3.78,5.4,11.59,12.2,12.7,0-.31,0-.5,0-.51a.71.71,0,0,1,1.42-.16c0,.08.06.37.15.81h.1c8,0,13.94-9.26,16.07-13.13,1.2,3.69,4.8,11.79,13.37,13v-.52a.71.71,0,0,1,.59-.75.72.72,0,0,1,.81.51s.11.35.29.89c.15,0,.3,0,.46,0,8.9,0,12-7,13.08-11.46,1.28,4.14,4.2,10.55,10.05,11.37.06-.42.08-.67.08-.69a.73.73,0,0,1,.69-.66.69.69,0,0,1,.74.6s.05.32.17.81c7.33-.32,12.12-9.09,13.88-13,1.21,3.28,4.34,9.88,10.39,12.19a.71.71,0,0,1,1.4,0l.1.47a12.68,12.68,0,0,0,3,.37,10.62,10.62,0,0,0,6.26-1.89c-.18-.47-.37-.93-.56-1.41a9.16,9.16,0,0,1-5.7,1.86c-8.82,0-12.85-10-13.87-13-.17-.51-.26-.84-.27-.86a.7.7,0,0,0-.66-.53.67.67,0,0,0-.71.47s-.14.36-.37.9c-1.29,3-6.08,13-13.31,13s-10-10.11-10.62-13c-.1-.45-.16-.75-.16-.77a.69.69,0,0,0-.76-.59.72.72,0,0,0-.67.69c0,.06,0,.31-.05.68-.25,2.78-1.9,13-12.15,13s-13.61-10-14.41-13c-.12-.45-.19-.75-.2-.82a.75.75,0,0,0-.62-.57.71.71,0,0,0-.74.41s-.19.39-.49,1c-1.67,3.13-7.51,13-15.13,13s-11.79-9.94-12.89-13c-.19-.52-.3-.86-.3-.88a.69.69,0,0,0-.7-.52.75.75,0,0,0-.69.54s-.09.34-.26.85c-1,3-4.82,13-12.44,13s-12.17-10-13.35-13c-.21-.5-.32-.83-.33-.86a.72.72,0,0,0-1.4.26s0,.25,0,.63c0,1.86-.43,7.46-3.53,10.66a7.74,7.74,0,0,1-5.8,2.32c-8.44,0-12.07-10-12.95-13-.15-.49-.23-.8-.23-.82a.74.74,0,0,0-.8-.55.73.73,0,0,0-.62.74s0,.24,0,.64c-.07,1.76-.54,6.68-3.67,9.91a10.73,10.73,0,0,1-8.05,3.06c-10.58,0-14.08-10-14.89-13-.12-.45-.18-.75-.2-.82a.71.71,0,0,0-1.4,0s-.08.33-.21.81c-.82,2.93-4.34,13-14.41,13s-13.28-10-14-13c-.1-.43-.15-.71-.17-.78a.69.69,0,0,0-.72-.6.73.73,0,0,0-.7.63s0,.3-.13.75c-.57,2.86-3.22,13-12.08,13s-13.53-9.94-14.77-13c-.21-.52-.33-.86-.34-.89a.69.69,0,0,0-.73-.48.72.72,0,0,0-.66.57s-.07.33-.2.81c-.81,2.92-4.34,13-14.41,13-5.35,0-9.13-2.84-11.69-5.95-.2.51-.4,1-.61,1.51A16.43,16.43,0,0,0,74.84,172.47Z" transform="translate(-48.67 -16)"/><path class="cls-12" d="M59.22,188.82a.72.72,0,0,1,.49-.89.71.71,0,0,1,.89.48s.11.35.31.86c9.24-.62,13.28-9.65,14.77-14.41,1.4,4.79,5.4,13.89,15.39,14.42.13-.48.2-.79.2-.81a.72.72,0,0,1,.66-.57.68.68,0,0,1,.73.49s.13.36.34.89c9.47-.58,12.82-8.91,14-13.83,1.47,4.89,5.13,13.24,12.89,13.82.09-.45.13-.73.13-.75a.74.74,0,0,1,.7-.63.68.68,0,0,1,.72.6c0,.08.07.35.17.78,7.83-.6,11-9.16,12.15-14,1.56,4.89,5.8,13.56,16.22,14.05.13-.48.2-.79.21-.81a.72.72,0,0,1,.7-.58c-12.43,0-15.73-12.14-16.38-15.37-.09-.41-.13-.69-.14-.76a.71.71,0,0,0-.72-.62.74.74,0,0,0-.71.64s0,.22-.07.55c-.45,2.8-3,15.56-12.13,15.56-8.91,0-12.25-12-13-15.32-.12-.5-.17-.81-.17-.83a.72.72,0,0,0-.75-.6.73.73,0,0,0-.68.68c0,.07,0,.3-.06.64-.32,3-2.37,15.43-14.06,15.43-11.53,0-14.75-12-15.42-15.32-.09-.44-.13-.73-.14-.81a.73.73,0,0,0-.7-.62.67.67,0,0,0-.72.6s0,.28-.16.73c-.72,3.14-4.26,15.42-14.93,15.42a12.73,12.73,0,0,1-4.38-.76l-.61,1.31a14.38,14.38,0,0,0,4.47.87C59.29,189,59.23,188.83,59.22,188.82Z" transform="translate(-48.67 -16)"/><path class="cls-12" d="M326.83,172.21l-.1-.47a.71.71,0,0,0-1.4,0,.39.39,0,0,0,0,.15c0,.09.44,8.86-3.81,13.36a8.53,8.53,0,0,1-6.48,2.63c-9.75,0-13.21-12.07-14-15.34-.12-.49-.17-.79-.17-.81a.69.69,0,0,0-.74-.6.73.73,0,0,0-.69.66s0,.27-.08.69c-.39,3.07-2.46,15.4-10.21,15.4s-12.25-11.95-13.38-15.34c-.18-.54-.28-.86-.29-.89a.72.72,0,0,0-.81-.51.71.71,0,0,0-.59.75v.52c0,1.8-.27,8-4,12-2.21,2.34-5.29,3.52-9.15,3.52-12.37,0-15.69-12-16.37-15.32-.09-.44-.14-.73-.15-.81a.71.71,0,0,0-1.42.16s0,.2,0,.51c.06,1.81,0,8.15-3.66,12.1a11.1,11.1,0,0,1-8.57,3.36c-12.38,0-15.44-12.89-16-15.64,0-.26-.07-.43-.08-.49a.72.72,0,0,0-1.42,0v0c0,.16-2.4,16.13-10.3,16.13-6.87,0-8.85-12.18-9.25-15.35-.06-.45-.08-.72-.09-.74a.72.72,0,0,0-.68-.66.76.76,0,0,0-.74.6s0,.31-.16.79c-.73,3.24-4.06,15.36-13,15.36s-11.9-12-12.55-15.32c-.09-.49-.14-.79-.14-.81a.71.71,0,0,0-.76-.61.71.71,0,0,0-.67.71c0,.07,0,.29,0,.63-.16,3-1.58,15.4-14.1,15.4a.72.72,0,0,1,.7.58c0,.07.08.37.2.82,9.84-.46,13.08-8.27,14.14-13.28,1.45,5,4.93,12.79,12.47,13.27,0-.4,0-.63,0-.64a.73.73,0,0,1,.62-.74.74.74,0,0,1,.8.55s.08.33.23.82c7.64-.63,11.28-8.8,12.77-13.7,1,4.92,3.45,13.09,9.51,13.7,0-.38,0-.62,0-.63a.72.72,0,0,1,1.4-.25s.12.35.33.86c6.06-.86,8.93-9.3,10.07-14.08,1.51,4.87,5.64,13.58,15.72,14.11.17-.5.26-.83.26-.85a.75.75,0,0,1,.69-.54.74.74,0,0,1,.7.52s.11.36.3.88a12.18,12.18,0,0,0,8.65-3.79,16.76,16.76,0,0,0,3.82-9c1.83,4.95,6.13,12.23,15.55,12.79.3-.58.48-.95.49-1a.7.7,0,0,1,.74-.41.75.75,0,0,1,.62.57c0,.07.08.37.2.82a13.14,13.14,0,0,0,9.29-3.94,17.64,17.64,0,0,0,4.21-9.81c2,4.87,6.25,13.14,13.06,13.73,0-.37.05-.62.05-.68a.72.72,0,0,1,.67-.69.69.69,0,0,1,.76.59s.06.32.16.78c6.7-.68,9.35-9,10.33-13.85,1.55,4.85,5.41,13.18,13.6,13.85.23-.54.36-.88.37-.9a.67.67,0,0,1,.71-.47.7.7,0,0,1,.66.53s.1.35.27.86a9.76,9.76,0,0,0,6.57-3c2.61-2.76,3.62-6.82,4-9.93,1.81,5,6,12.52,14.47,13,.06-.44.08-.71.08-.72a.72.72,0,0,1,.77-.67.71.71,0,0,1,.66.76s0,.25-.06.64a13.44,13.44,0,0,0,2.25-.28l-.72-1.31a12.74,12.74,0,0,1-2.18.18C330.85,187.89,327.42,174.88,326.83,172.21Z" transform="translate(-48.67 -16)"/><path class="cls-12" d="M342.47,189.3c0-.39.06-.62.06-.64a.71.71,0,0,0-.66-.76.72.72,0,0,0-.77.67s0,.28-.08.72c-.37,2.8-2.31,13-11.17,13s-12.85-10-13.87-13c-.17-.51-.26-.84-.27-.86a.7.7,0,0,0-.66-.53.67.67,0,0,0-.71.47s-.14.36-.37.9c-1.29,3-6.08,13-13.31,13s-10-10.11-10.62-13c-.1-.46-.16-.76-.16-.78a.69.69,0,0,0-.76-.59.72.72,0,0,0-.67.69c0,.06,0,.31-.05.68-.25,2.78-1.9,13-12.15,13s-13.61-10-14.41-13c-.12-.45-.19-.75-.2-.82a.75.75,0,0,0-.62-.57.7.7,0,0,0-.74.41s-.19.39-.49,1c-1.67,3.13-7.51,13-15.13,13s-11.79-9.94-12.89-13c-.19-.52-.3-.86-.3-.88a.74.74,0,0,0-.7-.52.75.75,0,0,0-.69.54s-.09.35-.26.85c-1,3-4.82,13-12.44,13s-12.17-10-13.35-13c-.21-.51-.32-.84-.33-.86a.72.72,0,0,0-1.4.25s0,.25,0,.63c0,1.86-.43,7.46-3.53,10.66a7.74,7.74,0,0,1-5.8,2.32c-8.44,0-12.07-10-12.95-13-.15-.49-.23-.8-.23-.82a.74.74,0,0,0-.8-.55.73.73,0,0,0-.62.74s0,.24,0,.64c-.07,1.76-.54,6.68-3.67,9.91a10.73,10.73,0,0,1-8.05,3.06c-10.58,0-14.08-10-14.89-13-.12-.45-.18-.75-.2-.82a.71.71,0,0,0-1.4,0s-.08.33-.21.81c-.82,2.93-4.34,13-14.41,13s-13.28-10.05-14-13c-.1-.43-.15-.7-.17-.78a.68.68,0,0,0-.72-.6.74.74,0,0,0-.7.63s0,.3-.13.75c-.57,2.86-3.22,13-12.08,13s-13.53-9.94-14.77-13c-.21-.53-.33-.87-.34-.89a.68.68,0,0,0-.73-.49.72.72,0,0,0-.66.57s-.07.33-.2.81c-.81,2.92-4.34,13-14.41,13s-14.6-10-15.75-13c-.2-.51-.3-.84-.31-.86a.71.71,0,0,0-.89-.48.72.72,0,0,0-.49.89s.07.19.17.49c.87,2.42,5.26,13.11,15.45,14.27.11-.45.15-.71.16-.73a.72.72,0,0,1,.71-.6h0a.73.73,0,0,1,.7.62c0,.08,0,.37.14.82h.1c9.91,0,14-8.75,15.43-12.86,1.68,3.79,6.09,11.71,14,12.74,0-.34.06-.57.06-.64a.73.73,0,0,1,.68-.68.72.72,0,0,1,.75.6s0,.33.17.83h.07c8.33,0,11.73-7.77,13-12.12,1.32,3.89,4.65,10.53,12.07,11.87,0-.33.07-.53.07-.55a.72.72,0,0,1,1.43,0c0,.07,0,.35.14.76.35,0,.7.06,1.06.06,9.68,0,13.84-8.33,15.32-12.55,1.43,4,5.28,11.58,14.1,12.46,0-.34,0-.56,0-.63a.72.72,0,0,1,.67-.72.75.75,0,0,1,.76.62s0,.32.14.81h.1a12.1,12.1,0,0,0,9.09-3.51,15.32,15.32,0,0,0,3.77-8c1.67,4.24,5.45,10.94,12.6,11.45.1-.48.16-.77.16-.79a.67.67,0,0,1,.74-.6.72.72,0,0,1,.68.66s0,.29.09.74a9,9,0,0,0,6-2.72c2.5-2.59,3.42-6.41,3.76-9.11,1.61,3.46,4.84,9,9.76,11a.72.72,0,0,1,1.42,0c0,.06,0,.23.08.49a10.14,10.14,0,0,0,2.56.33c7.83,0,11.94-8.76,13.43-12.85,1.5,3.78,5.4,11.59,12.2,12.7,0-.3,0-.5,0-.51a.71.71,0,0,1,1.42-.16c0,.08.06.37.15.81h.1c8,0,13.94-9.26,16.07-13.13,1.2,3.69,4.81,11.79,13.38,13,0-.31,0-.51,0-.52a.71.71,0,0,1,1.4-.24s.11.36.29.89c.15,0,.3,0,.46,0,8.9,0,12-7,13.08-11.46,1.28,4.14,4.2,10.55,10.05,11.37.06-.42.08-.67.08-.69a.73.73,0,0,1,.69-.66.69.69,0,0,1,.74.6s.05.32.17.81c7.33-.32,12.12-9.09,13.88-13,1.21,3.28,4.34,9.88,10.39,12.19a.71.71,0,0,1,.61-.6.72.72,0,0,1,.79.59s0,.19.1.48c.31.07.62.12.94.18l6.05-.5C340.59,200.49,342.16,191.75,342.47,189.3Z" transform="translate(-48.67 -16)"/><path class="cls-12" d="M275.5,202.77a.71.71,0,0,0-1.4.24s0,.21,0,.52a23.18,23.18,0,0,1-.34,3.8l1.48-.09c0-.2.07-.4.09-.59.07.18.16.38.24.57l1.53-.1c-.62-1.44-1.06-2.68-1.32-3.46C275.61,203.13,275.51,202.8,275.5,202.77Z" transform="translate(-48.67 -16)"/><path class="cls-12" d="M76.42,202.87a.73.73,0,0,0-.7-.62h0a.72.72,0,0,0-.71.6s0,.28-.16.73a26.48,26.48,0,0,1-.79,2.76l1.44.2.19-.57c0,.19.12.41.19.62l1.53.2a29.66,29.66,0,0,1-.84-3.1C76.47,203.24,76.43,203,76.42,202.87Z" transform="translate(-48.67 -16)"/><path class="cls-12" d="M300.89,202.85a.69.69,0,0,0-.74-.6.73.73,0,0,0-.69.66s0,.27-.08.69-.16,1.21-.33,2.08l2.5-.18c-.23-.75-.39-1.38-.49-1.84S300.89,202.87,300.89,202.85Z" transform="translate(-48.67 -16)"/><path class="cls-12" d="M326.73,202.85a.72.72,0,0,0-.79-.59.71.71,0,0,0-.61.6.39.39,0,0,0,0,.15s0,.28,0,.69l1.57-.12c0-.1,0-.18-.06-.25C326.77,203,326.73,202.87,326.73,202.85Z" transform="translate(-48.67 -16)"/><path class="cls-12" d="M244.41,202.87A.71.71,0,0,0,243,203s0,.21,0,.51a23.71,23.71,0,0,1-.49,5.47l1.49-.07c.09-.46.17-.91.23-1.34.15.42.33.86.52,1.3l1.47-.07a25.37,25.37,0,0,1-1.67-5.15C244.47,203.24,244.42,203,244.41,202.87Z" transform="translate(-48.67 -16)"/><path class="cls-12" d="M214.74,202.87a.72.72,0,0,0-1.42,0v0a41.25,41.25,0,0,1-1.92,7.38l1.56-.05a40,40,0,0,0,1.14-3.92,27.84,27.84,0,0,0,1.51,3.83l1.49-.05a26.16,26.16,0,0,1-2.28-6.7C214.77,203.1,214.75,202.93,214.74,202.87Z" transform="translate(-48.67 -16)"/><path class="cls-12" d="M107.53,202.85a.72.72,0,0,0-.75-.6.73.73,0,0,0-.68.68c0,.07,0,.3-.06.64a25,25,0,0,1-1.36,5.82l1.42.09a28.48,28.48,0,0,0,.86-2.92c.28.92.63,2,1.07,3l1.64.1a34.36,34.36,0,0,1-2-6C107.58,203.18,107.53,202.87,107.53,202.85Z" transform="translate(-48.67 -16)"/><path class="cls-12" d="M134.33,202.87a.72.72,0,0,0-1.43,0s0,.22-.07.55a33,33,0,0,1-2,7.19l1.58.05a31.63,31.63,0,0,0,1.35-4.33,28.28,28.28,0,0,0,1.84,4.41l1.58,0a25.16,25.16,0,0,1-2.67-7.17C134.38,203.22,134.34,202.94,134.33,202.87Z" transform="translate(-48.67 -16)"/><path class="cls-12" d="M166.4,202.87a.75.75,0,0,0-.76-.62.72.72,0,0,0-.67.72c0,.07,0,.29,0,.63a22.26,22.26,0,0,1-1.74,7.48h1.47a22.8,22.8,0,0,0,1.21-4,32.68,32.68,0,0,0,1.43,3.95h1.62a33.28,33.28,0,0,1-2.4-7.38C166.45,203.19,166.4,202.89,166.4,202.87Z" transform="translate(-48.67 -16)"/><path class="cls-12" d="M193.68,202.91a.72.72,0,0,0-.68-.66.67.67,0,0,0-.74.6s-.06.31-.16.79a34.47,34.47,0,0,1-2.5,7.17l1.65,0a34.1,34.1,0,0,0,1.54-4.1,36.06,36.06,0,0,0,1,4l1.5,0a40.27,40.27,0,0,1-1.53-7C193.71,203.2,193.69,202.93,193.68,202.91Z" transform="translate(-48.67 -16)"/></svg>