<svg xmlns="http://www.w3.org/2000/svg" viewBox="0 0 383.22 333.5"><defs><style>.cls-1{fill:#e1d4a3;}.cls-2{fill:#f68e3d;}.cls-3{fill:#faaf40;}.cls-4{fill:#716558;}.cls-5{fill:#d0d2d3;}.cls-6{fill:none;}.cls-7{fill:#ffc96a;}.cls-8{fill:#fff;}.cls-9{fill:#9a8479;}.cls-10{fill:#b3998f;}.cls-11{fill:#404041;}.cls-12{fill:#786359;}.cls-13{fill:#b8cc55;}.cls-14{fill:#d4df58;}</style></defs><g id="Layer_2" data-name="Layer 2"><polygon class="cls-1" points="11.08 156.98 16.02 311.73 269.18 314.36 280.27 158.76 152.76 41.29 11.08 156.98"/><polygon class="cls-2" points="4.93 145.09 4.93 157.08 120.73 155.25 150.91 72.75 187.26 156.6 289.1 160.62 289.1 150.83 152.76 41.29 4.93 145.09"/><polygon class="cls-3" points="4.93 145.09 43.48 28.34 256.25 23.42 289.1 150.83 191.36 148.42 150.3 53.8 117.45 145.09 4.93 145.09"/><polygon class="cls-4" points="15.45 294.03 16.02 311.73 269.18 314.36 270.63 294.03 15.45 294.03"/><polygon class="cls-5" points="0 311.73 289.1 311.73 283.97 333.5 4.93 333.5 0 311.73"/><path class="cls-6" d="M157.64,58.2a13.68,13.68,0,0,1-3.27,7.69,8.89,8.89,0,0,1-6.13,2.67c.39,2.73,2.3,13.17,8.93,13.17,7.57,0,9.87-13.54,9.92-13.84C162.27,66.07,159.14,61.16,157.64,58.2Z" transform="translate(-9.78 -28.71)"/><path class="cls-6" d="M78.43,138.07c-1.15,3.69-4.36,10.6-12.43,10.6h-.14c.72,2.84,3.93,13.15,12.51,13.15,8.81,0,11.25-10.92,11.68-13.35C82.81,147.31,79.64,141.38,78.43,138.07Z" transform="translate(-9.78 -28.71)"/><path class="cls-6" d="M64.42,121.88C56.86,121,52.55,113.93,51,110.77,49.73,114.2,45.83,122,36.23,122h-.17c.64,2.85,3.74,13.14,14.83,13.14C62.15,135.11,64.11,124.49,64.42,121.88Z" transform="translate(-9.78 -28.71)"/><path class="cls-6" d="M77.63,136.3c-7.48-.48-11-8-12.4-12.14-1,4.18-4.16,11.67-13.43,12.14,1.2,2.63,5.72,11.13,14.2,11.13S77.08,138.77,77.63,136.3Z" transform="translate(-9.78 -28.71)"/><path class="cls-6" d="M66,120.74c8.53,0,11.08-8.67,11.63-11.13-7.48-.48-11-8-12.4-12.15-1,4.19-4.16,11.67-13.43,12.15C53,112.24,57.52,120.74,66,120.74Z" transform="translate(-9.78 -28.71)"/><path class="cls-6" d="M77.63,82.92c-7.48-.48-11-8-12.4-12.15-1,4.18-4.16,11.67-13.43,12.15C53,85.55,57.52,94.05,66,94.05S77.08,85.38,77.63,82.92Z" transform="translate(-9.78 -28.71)"/><path class="cls-6" d="M108,136.31c.78,2.57,4.15,11.12,14.32,11.12,3.48,0,6.23-1,8.15-3a12.86,12.86,0,0,0,3.14-8.11c-7.29-.39-10.65-7.45-12-11.7C120.7,128.9,117.68,135.93,108,136.31Z" transform="translate(-9.78 -28.71)"/><path class="cls-6" d="M106.43,136.31c-10.19-.4-14.21-8.18-15.61-12.32-1.09,4.12-4.14,11.81-11.68,12.31.66,2.53,3.63,11.13,13.43,11.13S105.64,138.84,106.43,136.31Z" transform="translate(-9.78 -28.71)"/><path class="cls-6" d="M134.63,85.15a12.9,12.9,0,0,1-3.24,6.74c-2.17,2.25-5.21,3.39-9,3.39h-.16c.62,2.82,3.49,13.15,12.07,13.15S146.08,98,146.78,95.24C139.87,94.81,136.21,88.76,134.63,85.15Z" transform="translate(-9.78 -28.71)"/><path class="cls-6" d="M147.38,70.86c-1.39,4.14-4.92,11.53-12.3,12,.86,2.55,4.35,11.14,12.47,11.14a7.88,7.88,0,0,0,5.93-2.32c2.67-2.77,3-7.27,3.07-8.82C150.6,82.42,148.24,75.05,147.38,70.86Z" transform="translate(-9.78 -28.71)"/><path class="cls-6" d="M121.63,97.92c-.93,4.28-3.95,11.32-13.6,11.7.78,2.57,4.15,11.12,14.32,11.12,3.48,0,6.23-1,8.15-3,2.67-2.76,3.08-6.67,3.14-8.1C126.35,109.23,123,102.16,121.63,97.92Z" transform="translate(-9.78 -28.71)"/><path class="cls-6" d="M226.34,177.75h0l0-.09S226.34,177.72,226.34,177.75Z" transform="translate(-9.78 -28.71)"/><path class="cls-6" d="M107.24,137.73c-1.36,3.55-5.3,10.94-14.67,10.94-.37,0-.73,0-1.09-.06.63,2.78,3.8,13.2,15.75,13.2s13.42-10.64,13.57-13.22C112.21,147.85,108.54,141.08,107.24,137.73Z" transform="translate(-9.78 -28.71)"/><path class="cls-6" d="M51,137.46c-1.26,3.43-5.16,11.21-14.76,11.21h-.17c.64,2.85,3.74,13.15,14.83,13.15,11.26,0,13.22-10.63,13.53-13.24C56.86,147.69,52.55,140.62,51,137.46Z" transform="translate(-9.78 -28.71)"/><path class="cls-6" d="M274.29,174.78a.66.66,0,0,1,0-.14c-5.82-2-8.86-7.88-10-10.61-1.6,3.25-6.23,11.08-13.36,11.31a25,25,0,0,0,1,3l22.07.55A21.59,21.59,0,0,0,274.29,174.78Z" transform="translate(-9.78 -28.71)"/><path class="cls-6" d="M275.27,179h.37l-.28-.66C275.34,178.52,275.3,178.74,275.27,179Z" transform="translate(-9.78 -28.71)"/><path class="cls-6" d="M108,82.93c.78,2.57,4.15,11.12,14.32,11.12,3.48,0,6.23-1,8.15-3,2.67-2.76,3.08-6.67,3.14-8.11-7.29-.39-10.65-7.45-12-11.7C120.7,75.51,117.68,82.55,108,82.93Z" transform="translate(-9.78 -28.71)"/><path class="cls-6" d="M134.26,81.73c8.62,0,11.82-10.38,12.52-13.18-6.91-.43-10.57-6.48-12.15-10.09a12.9,12.9,0,0,1-3.24,6.73c-2.17,2.26-5.21,3.4-9,3.4h-.16C122.81,71.4,125.68,81.73,134.26,81.73Z" transform="translate(-9.78 -28.71)"/><path class="cls-6" d="M250.15,178.34h.46c-.1-.27-.2-.54-.28-.79Q250.24,177.94,250.15,178.34Z" transform="translate(-9.78 -28.71)"/><path class="cls-6" d="M239.77,165.3c-1,3.81-3.87,10.06-12.51,10.06-.18,0-.34,0-.51,0,.21.58.56,1.45,1,2.46l21.08.52a28.89,28.89,0,0,0,.61-3C243.74,174.6,241,168.85,239.77,165.3Z" transform="translate(-9.78 -28.71)"/><path class="cls-6" d="M120.8,95.21c-8.59-.74-12.26-7.51-13.56-10.87-1.36,3.55-5.3,10.94-14.67,10.94-.37,0-.73,0-1.09,0,.63,2.78,3.8,13.19,15.75,13.19S120.64,97.78,120.8,95.21Z" transform="translate(-9.78 -28.71)"/><path class="cls-6" d="M79.14,82.91c.66,2.54,3.63,11.14,13.43,11.14s13.07-8.59,13.86-11.13c-10.19-.4-14.21-8.18-15.61-12.32C89.73,74.72,86.68,82.42,79.14,82.91Z" transform="translate(-9.78 -28.71)"/><path class="cls-6" d="M107.23,81.73c12.07,0,13.42-10.64,13.57-13.22-8.59-.73-12.26-7.51-13.56-10.86-1.36,3.55-5.3,10.94-14.67,10.94-.37,0-.73,0-1.09,0C92.11,71.31,95.28,81.73,107.23,81.73Z" transform="translate(-9.78 -28.71)"/><path class="cls-6" d="M107.23,135.11c12.07,0,13.42-10.64,13.57-13.21-8.59-.74-12.26-7.51-13.56-10.87-1.36,3.56-5.3,10.94-14.67,10.94-.37,0-.73,0-1.09,0C92.11,124.7,95.28,135.11,107.23,135.11Z" transform="translate(-9.78 -28.71)"/><path class="cls-6" d="M106.43,109.62c-10.19-.4-14.21-8.19-15.61-12.33-1.09,4.12-4.14,11.82-11.68,12.32.66,2.53,3.63,11.13,13.43,11.13S105.64,112.15,106.43,109.62Z" transform="translate(-9.78 -28.71)"/><path class="cls-6" d="M90.05,95.07C82.81,93.93,79.64,88,78.43,84.69,77.28,88.37,74.07,95.28,66,95.28h-.14c.72,2.85,3.93,13.15,12.51,13.15C87.2,108.42,89.62,97.51,90.05,95.07Z" transform="translate(-9.78 -28.71)"/><path class="cls-6" d="M66,122h-.14c.72,2.84,3.93,13.14,12.51,13.14,8.81,0,11.25-10.91,11.68-13.35-7.24-1.14-10.41-7.07-11.62-10.38C77.28,115.07,74.07,122,66,122Z" transform="translate(-9.78 -28.71)"/><path class="cls-6" d="M78.37,81.73c8.81,0,11.25-10.92,11.68-13.35C82.81,67.23,79.64,61.31,78.43,58,77.28,61.68,74.07,68.59,66,68.59h-.14C66.58,71.42,69.79,81.73,78.37,81.73Z" transform="translate(-9.78 -28.71)"/><path class="cls-6" d="M211.56,109.61c-9.19-.47-13.28-7-15-11.22a14,14,0,0,1-3.25,7.54,12,12,0,0,1-8.71,3.69c1.07,2.62,5.08,11.12,12.4,11.12S209.94,112.33,211.56,109.61Z" transform="translate(-9.78 -28.71)"/><path class="cls-6" d="M212.6,81.73c4,0,7.09-1.17,9.25-3.47,3.19-3.4,3.43-8.32,3.43-9.8-8.33-1-11.76-8.17-12.85-11.27-2,3.22-7.67,11.4-15.41,11.4h-.16C197.51,71.42,200.71,81.73,212.6,81.73Z" transform="translate(-9.78 -28.71)"/><path class="cls-6" d="M211.56,136.3c-9.19-.46-13.28-7-15-11.22a14,14,0,0,1-3.25,7.55,12,12,0,0,1-8.71,3.68c1.07,2.62,5.08,11.12,12.4,11.12S209.94,139,211.56,136.3Z" transform="translate(-9.78 -28.71)"/><path class="cls-6" d="M195.52,95.17c-6.63-.94-10.37-7.89-11.75-11.07-1.37,3.43-5.29,11.18-12.86,11.18a10.35,10.35,0,0,1-2.52-.3c.49,2.34,3.42,13.44,15.35,13.44,3.75,0,6.67-1.11,8.67-3.32C195.5,101.71,195.57,96.66,195.52,95.17Z" transform="translate(-9.78 -28.71)"/><path class="cls-6" d="M192.41,78.41c3.09-3.4,3.16-8.44,3.11-9.93-6.63-.94-10.37-7.89-11.75-11.07-1.37,3.42-5.29,11.18-12.86,11.18a10.87,10.87,0,0,1-2.52-.3c.49,2.34,3.42,13.44,15.35,13.44C187.49,81.73,190.41,80.61,192.41,78.41Z" transform="translate(-9.78 -28.71)"/><path class="cls-6" d="M184.62,82.93c1.07,2.62,5.08,11.12,12.4,11.12s12.92-8.41,14.54-11.13c-9.19-.47-13.28-7-15-11.22a14,14,0,0,1-3.25,7.54A12,12,0,0,1,184.62,82.93Z" transform="translate(-9.78 -28.71)"/><path class="cls-6" d="M250.94,122c.73,2.83,4.05,13.16,13.42,13.16a8.68,8.68,0,0,0,6.63-2.63c3.7-3.95,3.3-11,3.3-11.08a.61.61,0,0,1,0-.14c-5.82-2-8.86-7.89-10-10.62C262.7,113.89,258.07,121.72,250.94,122Z" transform="translate(-9.78 -28.71)"/><path class="cls-6" d="M289.33,163c-8.32-.36-12.29-7.11-14-11.39a15,15,0,0,1-3.47,8.41,9.65,9.65,0,0,1-6.67,3c1,2.59,4.86,11.13,13.35,11.13S289,165.46,289.33,163Z" transform="translate(-9.78 -28.71)"/><path class="cls-6" d="M294.44,162.3a12.79,12.79,0,0,1-3.87.72c-.35,2.45-2.33,12.34-12,12.34a12.89,12.89,0,0,1-3-.34,23.39,23.39,0,0,0,1.35,4l21.94.54Z" transform="translate(-9.78 -28.71)"/><path class="cls-6" d="M274.29,148.09a.66.66,0,0,1,0-.14c-5.82-2-8.86-7.89-10-10.62-1.6,3.25-6.23,11.09-13.36,11.31.73,2.83,4.05,13.17,13.42,13.17a8.69,8.69,0,0,0,6.63-2.64C274.69,155.23,274.29,148.16,274.29,148.09Z" transform="translate(-9.78 -28.71)"/><path class="cls-6" d="M250.33,150.86c-.89,4.17-3.4,11.58-9.94,12.13.62,2.48,3.27,11.14,10.23,11.14s11.55-8.5,12.81-11.14C255.44,162.44,251.75,155,250.33,150.86Z" transform="translate(-9.78 -28.71)"/><path class="cls-6" d="M226.35,151a14.9,14.9,0,0,1-3.6,8.21c-2.25,2.4-5.41,3.68-9.35,3.83.77,2.58,4.08,11.12,13.86,11.12S238.71,165.39,239,163C232.32,162.52,228.16,155.12,226.35,151Z" transform="translate(-9.78 -28.71)"/><path class="cls-6" d="M249.47,148.6c-5.73-.69-8.52-6.44-9.7-10-1,3.81-3.87,10.06-12.51,10.06-.18,0-.34,0-.51,0,1.09,2.93,5.46,13.17,12.88,13.17S249.09,151.26,249.47,148.6Z" transform="translate(-9.78 -28.71)"/><path class="cls-6" d="M225.28,148.54c-8.33-1-11.76-8.18-12.85-11.27-2,3.22-7.67,11.4-15.41,11.4h-.16c.65,2.84,3.85,13.15,15.74,13.15,4,0,7.09-1.17,9.25-3.47C225,154.94,225.28,150,225.28,148.54Z" transform="translate(-9.78 -28.71)"/><path class="cls-6" d="M212.43,83.89c-2,3.21-7.67,11.39-15.41,11.39h-.16c.65,2.84,3.85,13.15,15.74,13.15,4,0,7.08-1.16,9.24-3.46,3.19-3.39,3.44-8.32,3.44-9.8C217,94.15,213.52,87,212.43,83.89Z" transform="translate(-9.78 -28.71)"/><path class="cls-6" d="M197,122h-.16c.65,2.84,3.85,13.15,15.74,13.15,4,0,7.09-1.16,9.25-3.47,3.19-3.39,3.43-8.31,3.43-9.79-8.33-1-11.76-8.18-12.85-11.27C210.48,113.79,204.76,122,197,122Z" transform="translate(-9.78 -28.71)"/><path class="cls-6" d="M222.75,105.79c-2.25,2.4-5.41,3.68-9.35,3.83.77,2.58,4.08,11.12,13.86,11.12S238.71,112,239,109.61c-6.64-.48-10.8-7.88-12.61-12A14.77,14.77,0,0,1,222.75,105.79Z" transform="translate(-9.78 -28.71)"/><path class="cls-6" d="M227.26,147.43c9.85,0,11.45-8.74,11.7-11.13-6.64-.47-10.8-7.87-12.61-12a14.84,14.84,0,0,1-3.6,8.2c-2.25,2.41-5.41,3.68-9.35,3.84C214.17,138.89,217.48,147.43,227.26,147.43Z" transform="translate(-9.78 -28.71)"/><path class="cls-6" d="M239.77,85.23c-1,3.8-3.87,10-12.51,10l-.51,0c1.09,2.92,5.46,13.16,12.88,13.16s9.46-10.55,9.84-13.21C243.74,94.53,241,88.77,239.77,85.23Z" transform="translate(-9.78 -28.71)"/><path class="cls-6" d="M250.62,120.74c6.95,0,11.55-8.49,12.81-11.14-8-.55-11.68-8-13.1-12.12-.89,4.16-3.4,11.58-9.94,12.12C241,112.09,243.66,120.74,250.62,120.74Z" transform="translate(-9.78 -28.71)"/><path class="cls-6" d="M250.62,147.43c6.95,0,11.55-8.49,12.81-11.14-8-.55-11.68-8-13.1-12.12-.89,4.16-3.4,11.58-9.94,12.12C241,138.78,243.66,147.43,250.62,147.43Z" transform="translate(-9.78 -28.71)"/><path class="cls-6" d="M239.63,81.73c7.46,0,9.46-10.55,9.84-13.21-5.73-.69-8.52-6.44-9.7-10-1,3.81-3.87,10.06-12.51,10.06-.18,0-.34,0-.51,0C227.84,71.49,232.21,81.73,239.63,81.73Z" transform="translate(-9.78 -28.71)"/><path class="cls-6" d="M249.47,121.9c-5.73-.68-8.52-6.43-9.7-10-1,3.8-3.87,10-12.51,10l-.51,0c1.09,2.92,5.46,13.16,12.88,13.16S249.09,124.56,249.47,121.9Z" transform="translate(-9.78 -28.71)"/><path class="cls-6" d="M240.39,82.91c.62,2.49,3.27,11.14,10.23,11.14s11.55-8.5,12.81-11.14c-8-.55-11.68-8-13.1-12.12C249.44,75,246.93,82.36,240.39,82.91Z" transform="translate(-9.78 -28.71)"/><path class="cls-6" d="M213.4,82.93c.77,2.58,4.08,11.12,13.86,11.12s11.45-8.74,11.7-11.13c-6.64-.48-10.8-7.88-12.61-12a14.84,14.84,0,0,1-3.6,8.21C220.5,81.5,217.34,82.78,213.4,82.93Z" transform="translate(-9.78 -28.71)"/><path class="cls-6" d="M250.94,95.26c.73,2.83,4.05,13.16,13.42,13.16a8.68,8.68,0,0,0,6.63-2.63c3.7-4,3.3-11,3.3-11.08a.61.61,0,0,1,0-.14c-5.82-2-8.86-7.89-10-10.62C262.7,87.2,258.07,95,250.94,95.26Z" transform="translate(-9.78 -28.71)"/><path class="cls-6" d="M159.43,54.59l-4.19.1a5.75,5.75,0,0,0,1.93.35A6,6,0,0,0,159.43,54.59Z" transform="translate(-9.78 -28.71)"/><path class="cls-6" d="M34.55,148.58a16,16,0,0,1-9.91-4.84l-5.94,18a14.37,14.37,0,0,0,1.49.09C30.45,161.81,33.84,151.31,34.55,148.58Z" transform="translate(-9.78 -28.71)"/><path class="cls-6" d="M50.09,163c-9.73-.43-13.52-8.52-14.81-12.58-1.35,4-5.2,12.06-14.2,12.57,1,2.3,4.55,9.25,12,10.81h6.21C46.73,172.24,49.41,165.27,50.09,163Z" transform="translate(-9.78 -28.71)"/><path class="cls-6" d="M264.3,57.26c-1.6,3.25-6.23,11.08-13.36,11.31.73,2.82,4.05,13.16,13.42,13.16A8.72,8.72,0,0,0,271,79.1,9.82,9.82,0,0,0,272.45,77l-3.17-12.31A22.61,22.61,0,0,1,264.3,57.26Z" transform="translate(-9.78 -28.71)"/><path class="cls-6" d="M19.76,163a13.53,13.53,0,0,1-1.45-.11l-3.6,10.89H29.33C23.24,170.87,20.41,164.66,19.76,163Z" transform="translate(-9.78 -28.71)"/><path class="cls-6" d="M240.39,56.22c.62,2.48,3.27,11.14,10.23,11.14s11.55-8.5,12.81-11.14a12.57,12.57,0,0,1-8.2-3.84l-8.51.19A8.84,8.84,0,0,1,240.39,56.22Z" transform="translate(-9.78 -28.71)"/><path class="cls-6" d="M36.23,147.43c9.78,0,13.09-8.56,13.86-11.12-9.73-.43-13.52-8.53-14.81-12.58-1,2.82-3.14,7.62-7.47,10.41l-2.74,8.29A14.93,14.93,0,0,0,36.23,147.43Z" transform="translate(-9.78 -28.71)"/><path class="cls-6" d="M266.71,54.78,266,52.13l-9,.2A11.14,11.14,0,0,0,264.36,55,10.32,10.32,0,0,0,266.71,54.78Z" transform="translate(-9.78 -28.71)"/><path class="cls-6" d="M268.63,62.22,267,56a12.59,12.59,0,0,1-1.8.25A23,23,0,0,0,268.63,62.22Z" transform="translate(-9.78 -28.71)"/><path class="cls-6" d="M106.43,163c-10.19-.4-14.21-8.18-15.61-12.32-1.09,4.12-4.14,11.81-11.68,12.31.58,2.24,3,9.24,10.35,10.81h6.15C103,172.23,105.73,165.25,106.43,163Z" transform="translate(-9.78 -28.71)"/><path class="cls-6" d="M51,164.15c-.91,2.48-3.21,7.21-8,9.65H59.75C55,171.35,52.2,166.59,51,164.15Z" transform="translate(-9.78 -28.71)"/><path class="cls-6" d="M107.24,164.42c-1,2.54-3.27,7-7.92,9.38h16A17.35,17.35,0,0,1,107.24,164.42Z" transform="translate(-9.78 -28.71)"/><path class="cls-6" d="M78.43,164.77c-.81,2.59-2.65,6.78-6.48,9h14C81.54,171.55,79.38,167.36,78.43,164.77Z" transform="translate(-9.78 -28.71)"/><path class="cls-6" d="M227.26,67.36c9.85,0,11.45-8.74,11.7-11.14a11.07,11.07,0,0,1-6.84-3.31L222,53.15a13.39,13.39,0,0,1-8.58,3.09C214.17,58.82,217.48,67.36,227.26,67.36Z" transform="translate(-9.78 -28.71)"/><path class="cls-6" d="M34.55,121.88A15.32,15.32,0,0,1,32,121.4l-3.55,10.74C32.44,128.82,34.09,123.68,34.55,121.88Z" transform="translate(-9.78 -28.71)"/><path class="cls-6" d="M170.91,67.36c7.33,0,11-8.55,12-11.13a15.73,15.73,0,0,1-7.2-2l-13.75.32a7.72,7.72,0,0,1-3.87,1.66C159.22,58.8,163.56,67.36,170.91,67.36Z" transform="translate(-9.78 -28.71)"/><path class="cls-6" d="M50.09,109.61a14.82,14.82,0,0,1-12-6.71L32.4,120.24a14.85,14.85,0,0,0,3.83.5C46,120.74,49.32,112.18,50.09,109.61Z" transform="translate(-9.78 -28.71)"/><path class="cls-6" d="M189.42,53.9l-11,.25a15.63,15.63,0,0,0,5.32.89A13.32,13.32,0,0,0,189.42,53.9Z" transform="translate(-9.78 -28.71)"/><path class="cls-6" d="M197,67.36c7.32,0,12.92-8.42,14.54-11.14a16.16,16.16,0,0,1-8.34-2.64l-11.33.26a12.65,12.65,0,0,1-7.27,2.39C185.69,58.85,189.7,67.36,197,67.36Z" transform="translate(-9.78 -28.71)"/><path class="cls-6" d="M219.85,53.19l-14.31.34A16.13,16.13,0,0,0,212.6,55,13.39,13.39,0,0,0,219.85,53.19Z" transform="translate(-9.78 -28.71)"/><path class="cls-6" d="M245,52.61,234,52.87A9.1,9.1,0,0,0,239.63,55,7.26,7.26,0,0,0,245,52.61Z" transform="translate(-9.78 -28.71)"/><path class="cls-6" d="M147.55,67.36A7.88,7.88,0,0,0,153.48,65c2.67-2.77,3-7.27,3.07-8.82a7.07,7.07,0,0,1-3.78-1.47l-13.54.31a10.82,10.82,0,0,1-4.15,1.16C135.94,58.77,139.43,67.36,147.55,67.36Z" transform="translate(-9.78 -28.71)"/><path class="cls-6" d="M122.35,67.36c3.48,0,6.23-1,8.15-3,2.67-2.76,3.08-6.68,3.14-8.11a10.59,10.59,0,0,1-3.88-.95l-18.07.42a16.79,16.79,0,0,1-3.66.53C108.81,58.8,112.18,67.36,122.35,67.36Z" transform="translate(-9.78 -28.71)"/><path class="cls-6" d="M50.89,108.42c11.26,0,13.22-10.62,13.53-13.23-7.56-.89-11.87-8-13.43-11.11-1,2.81-3.85,8.54-10.12,10.51l-2.28,6.9A13.76,13.76,0,0,0,50.89,108.42Z" transform="translate(-9.78 -28.71)"/><path class="cls-6" d="M64.42,68.5c-6-.71-9.9-5.25-12.06-8.69L45.44,80.75a14.81,14.81,0,0,0,5.45,1C62.15,81.73,64.11,71.11,64.42,68.5Z" transform="translate(-9.78 -28.71)"/><path class="cls-6" d="M50.09,82.92a15.32,15.32,0,0,1-5-1L41.35,93.12C47.23,90.85,49.48,85,50.09,82.92Z" transform="translate(-9.78 -28.71)"/><path class="cls-6" d="M92.57,67.36c9.68,0,13.07-8.59,13.86-11.13a19.2,19.2,0,0,1-2.84-.34l-24.39.56C80,59.22,83,67.36,92.57,67.36Z" transform="translate(-9.78 -28.71)"/><path class="cls-6" d="M66,67.36c8.27,0,10.91-8.12,11.57-10.87l-24.3.56-.41,1.23C54.88,61.8,59.14,67.36,66,67.36Z" transform="translate(-9.78 -28.71)"/><path class="cls-6" d="M77.63,163c-7.48-.47-11-8-12.4-12.14-1,4.18-4.16,11.67-13.43,12.14,1.06,2.33,4.73,9.25,11.44,10.81h5.43C75.08,172.23,77.14,165.18,77.63,163Z" transform="translate(-9.78 -28.71)"/><path class="cls-6" d="M182.89,109.61c-9.83-.43-13.75-8.2-15.13-12.33-.13.54-.3,1.13-.5,1.77L176,119.19C180,116.61,182.19,111.51,182.89,109.61Z" transform="translate(-9.78 -28.71)"/><path class="cls-6" d="M192.41,131.8c3.09-3.4,3.16-8.44,3.11-9.94-6.63-.94-10.37-7.89-11.75-11.07-1,2.45-3.27,7.11-7.27,9.56l6.39,14.71c.29,0,.55.05.85.05C187.49,135.11,190.41,134,192.41,131.8Z" transform="translate(-9.78 -28.71)"/><path class="cls-6" d="M275.36,124.92a15,15,0,0,1-3.47,8.4,9.62,9.62,0,0,1-6.67,3c1,2.59,4.86,11.12,13.35,11.12,6.19,0,8.86-4.46,10-7.89l-.88-3.39C280.49,135,276.93,128.9,275.36,124.92Z" transform="translate(-9.78 -28.71)"/><path class="cls-6" d="M164.82,93.43l1.66,3.83a26.2,26.2,0,0,0,.61-2.68A12.4,12.4,0,0,1,164.82,93.43Z" transform="translate(-9.78 -28.71)"/><path class="cls-6" d="M182.89,82.92c-9.83-.43-13.75-8.2-15.13-12.33-1,4.06-3.79,11.59-9.69,12.3.23.53.6,1.3,1.09,2.19l.92-2.57,3.73,8.59a10.71,10.71,0,0,0,7.1,3C178.24,94.05,181.94,85.5,182.89,82.92Z" transform="translate(-9.78 -28.71)"/><path class="cls-6" d="M211.56,163c-9.19-.46-13.28-7-15-11.22a14.06,14.06,0,0,1-3.2,7.48l6.3,14.51C205.68,172.11,210.14,165.37,211.56,163Z" transform="translate(-9.78 -28.71)"/><path class="cls-6" d="M278.57,148.67a13.46,13.46,0,0,1-3-.34c.53,2.29,3.69,13.48,14.43,13.48a11.81,11.81,0,0,0,4.11-.69l-5.06-19.61C287.53,145,284.49,148.67,278.57,148.67Z" transform="translate(-9.78 -28.71)"/><path class="cls-6" d="M121.63,151.3c-.93,4.29-3.95,11.33-13.6,11.7.69,2.28,3.42,9.24,11.1,10.8h6.34a11.16,11.16,0,0,0,2-.62l3.81-10.58C125.6,161,122.83,155.06,121.63,151.3Z" transform="translate(-9.78 -28.71)"/><path class="cls-6" d="M154.37,92.58a8.89,8.89,0,0,1-6.13,2.67c.25,1.78,1.16,6.84,3.61,10.15l6.75-18.77c-.37-.62-.69-1.21-1-1.74A13.65,13.65,0,0,1,154.37,92.58Z" transform="translate(-9.78 -28.71)"/><path class="cls-6" d="M195.52,148.55c-5.12-.72-8.52-5-10.43-8.42L192.84,158C195.5,154.61,195.57,150,195.52,148.55Z" transform="translate(-9.78 -28.71)"/><path class="cls-6" d="M212.43,164c-1.67,2.76-6.13,9.17-12.25,10.93l1,2.24,23.94.59a17.56,17.56,0,0,0,.19-2.49C217,174.23,213.52,167.06,212.43,164Z" transform="translate(-9.78 -28.71)"/><path class="cls-6" d="M131.39,145.27c-2.17,2.25-5.21,3.4-9,3.4h-.16c.55,2.51,2.91,11,9.49,12.78L138,144a22.06,22.06,0,0,1-3.34-5.43A12.9,12.9,0,0,1,131.39,145.27Z" transform="translate(-9.78 -28.71)"/><path class="cls-6" d="M134.63,111.84a12.9,12.9,0,0,1-3.24,6.74c-2.17,2.25-5.21,3.39-9,3.39h-.16c.62,2.81,3.49,13.14,12.07,13.14a10.59,10.59,0,0,0,8.54-4.59l3.13-8.69C139.57,121,136.14,115.3,134.63,111.84Z" transform="translate(-9.78 -28.71)"/><path class="cls-6" d="M138.45,142.63l3.31-9.21a11.15,11.15,0,0,1-6.68,2.88A22.2,22.2,0,0,0,138.45,142.63Z" transform="translate(-9.78 -28.71)"/><path class="cls-6" d="M271.89,106.63a9.66,9.66,0,0,1-6.67,3c1,2.59,4.86,11.12,13.35,11.12a10,10,0,0,0,4.85-1.17l-3.69-14.32a21.61,21.61,0,0,1-4.37-7A15,15,0,0,1,271.89,106.63Z" transform="translate(-9.78 -28.71)"/><path class="cls-6" d="M135.08,109.6c.82,2.42,4,10.27,11.27,11.06l5-13.88c-2.28-2.65-3.43-6.58-4-9.23C146,101.7,142.46,109.08,135.08,109.6Z" transform="translate(-9.78 -28.71)"/><path class="cls-6" d="M279.05,102.64l-1.92-7.44a12.68,12.68,0,0,1-1.54-.26A22.55,22.55,0,0,0,279.05,102.64Z" transform="translate(-9.78 -28.71)"/><path class="cls-6" d="M265.22,82.93c.91,2.4,4.32,9.9,11.58,11l-3.92-15.22a10.65,10.65,0,0,1-1,1.25A9.66,9.66,0,0,1,265.22,82.93Z" transform="translate(-9.78 -28.71)"/><path class="cls-6" d="M275.59,121.63c.49,2.09,3.17,11.54,11.76,13.21l-3.62-14.06a11.08,11.08,0,0,1-5.16,1.19A12.89,12.89,0,0,1,275.59,121.63Z" transform="translate(-9.78 -28.71)"/><path class="cls-7" d="M278.57,175.36c9.67,0,11.65-9.89,12-12.34a12.79,12.79,0,0,0,3.87-.72l-.31-1.18a11.81,11.81,0,0,1-4.11.69c-10.74,0-13.9-11.19-14.43-13.48a13.46,13.46,0,0,0,3,.34c5.92,0,9-3.72,10.5-7.16l-.5-2c-1.14,3.43-3.81,7.89-10,7.89-8.49,0-12.36-8.53-13.35-11.12a9.62,9.62,0,0,0,6.67-3,15,15,0,0,0,3.47-8.4c1.57,4,5.13,10.11,12.33,11.23l-.34-1.31c-8.59-1.67-11.27-11.12-11.76-13.21a12.89,12.89,0,0,0,3,.34,11.08,11.08,0,0,0,5.16-1.19l-.31-1.21a10,10,0,0,1-4.85,1.17c-8.49,0-12.36-8.53-13.35-11.12a9.66,9.66,0,0,0,6.67-3,15,15,0,0,0,3.47-8.4,21.61,21.61,0,0,0,4.37,7l-.68-2.61a22.55,22.55,0,0,1-3.46-7.7,12.68,12.68,0,0,0,1.54.26l-.33-1.29c-7.26-1.08-10.67-8.58-11.58-11a9.66,9.66,0,0,0,6.67-3,10.65,10.65,0,0,0,1-1.25L272.45,77A9.82,9.82,0,0,1,271,79.1a8.72,8.72,0,0,1-6.63,2.63c-9.37,0-12.69-10.34-13.42-13.16,7.13-.23,11.76-8.06,13.36-11.31a22.61,22.61,0,0,0,5,7.46l-.65-2.5a23,23,0,0,1-3.41-6A12.59,12.59,0,0,0,267,56l-.31-1.2a10.32,10.32,0,0,1-2.35.26A11.14,11.14,0,0,1,257,52.33l-1.77.05a12.57,12.57,0,0,0,8.2,3.84c-1.26,2.64-5.86,11.14-12.81,11.14S241,58.7,240.39,56.22a8.84,8.84,0,0,0,6.33-3.65l-1.69,0a7.26,7.26,0,0,1-5.4,2.43A9.1,9.1,0,0,1,234,52.87l-1.84,0A11.07,11.07,0,0,0,239,56.22c-.25,2.4-1.85,11.14-11.7,11.14s-13.09-8.54-13.86-11.12A13.39,13.39,0,0,0,222,53.15l-2.13,0A13.39,13.39,0,0,1,212.6,55a16.13,16.13,0,0,1-7.06-1.51l-2.32,0a16.16,16.16,0,0,0,8.34,2.64c-1.62,2.72-7.22,11.14-14.54,11.14s-11.33-8.51-12.4-11.13a12.65,12.65,0,0,0,7.27-2.39l-2.47.06A13.32,13.32,0,0,1,183.74,55a15.63,15.63,0,0,1-5.32-.89l-2.73.07a15.73,15.73,0,0,0,7.2,2c-.95,2.58-4.65,11.13-12,11.13S159.22,58.8,158.07,56.2a7.72,7.72,0,0,0,3.87-1.66l-2.51.05a6,6,0,0,1-2.26.45,5.75,5.75,0,0,1-1.93-.35l-2.47.06a7.07,7.07,0,0,0,3.78,1.47c0,1.55-.4,6.05-3.07,8.82a7.88,7.88,0,0,1-5.93,2.32c-8.12,0-11.61-8.59-12.47-11.14a10.82,10.82,0,0,0,4.15-1.16l-9.47.22a10.59,10.59,0,0,0,3.88.95c-.06,1.43-.47,5.35-3.14,8.11-1.92,2-4.67,3-8.15,3-10.17,0-13.54-8.56-14.32-11.13a16.79,16.79,0,0,0,3.66-.53l-8.1.19a19.2,19.2,0,0,0,2.84.34c-.79,2.54-4.18,11.13-13.86,11.13S80,59.22,79.2,56.45l-1.63,0c-.66,2.75-3.3,10.87-11.57,10.87-6.86,0-11.12-5.56-13.14-9.08l-.5,1.53c2.16,3.44,6.09,8,12.06,8.69-.31,2.61-2.27,13.23-13.53,13.23a14.81,14.81,0,0,1-5.45-1l-.37,1.13a15.32,15.32,0,0,0,5,1c-.61,2-2.86,7.93-8.74,10.2l-.48,1.47c6.27-2,9.09-7.7,10.12-10.51,1.56,3.15,5.87,10.22,13.43,11.11-.31,2.61-2.27,13.23-13.53,13.23a13.76,13.76,0,0,1-12.3-6.93l-.47,1.41a14.82,14.82,0,0,0,12,6.71c-.77,2.57-4.08,11.13-13.86,11.13a14.85,14.85,0,0,1-3.83-.5L32,121.4a15.32,15.32,0,0,0,2.53.48c-.46,1.8-2.11,6.94-6.08,10.26l-.66,2c4.33-2.79,6.52-7.59,7.47-10.41,1.29,4,5.08,12.15,14.81,12.58-.77,2.56-4.08,11.12-13.86,11.12a14.93,14.93,0,0,1-11.16-5l-.43,1.31a16,16,0,0,0,9.91,4.84c-.71,2.73-4.1,13.23-14.36,13.23a14.37,14.37,0,0,1-1.49-.09l-.39,1.19a13.53,13.53,0,0,0,1.45.11c.65,1.64,3.48,7.85,9.57,10.78h3.79c-7.49-1.56-11-8.51-12-10.81,9-.51,12.85-8.55,14.2-12.57,1.29,4.06,5.08,12.15,14.81,12.58-.68,2.27-3.36,9.24-10.76,10.8H43c4.81-2.44,7.11-7.17,8-9.65,1.21,2.44,4,7.2,8.76,9.65h3.49c-6.71-1.56-10.38-8.48-11.44-10.81,9.27-.47,12.41-8,13.43-12.14,1.38,4.14,4.92,11.67,12.4,12.14-.49,2.19-2.55,9.24-9,10.81H72c3.83-2.25,5.67-6.44,6.48-9,.95,2.59,3.11,6.78,7.48,9h3.58c-7.35-1.57-9.77-8.57-10.35-10.81,7.54-.5,10.59-8.19,11.68-12.31,1.4,4.14,5.42,11.92,15.61,12.32-.7,2.25-3.45,9.23-10.79,10.8h3.68c4.65-2.36,7-6.84,7.92-9.38a17.35,17.35,0,0,0,8.12,9.38h3.77c-7.68-1.56-10.41-8.52-11.1-10.8,9.65-.37,12.67-7.41,13.6-11.7,1.2,3.76,4,9.7,9.63,11.3l.42-1.16c-6.58-1.81-8.94-10.27-9.49-12.78h.16c3.83,0,6.87-1.15,9-3.4a12.9,12.9,0,0,0,3.24-6.74A22.06,22.06,0,0,0,138,144l.48-1.33a22.2,22.2,0,0,1-3.37-6.33,11.15,11.15,0,0,0,6.68-2.88l1-2.9a10.59,10.59,0,0,1-8.54,4.59c-8.58,0-11.45-10.33-12.07-13.14h.16c3.83,0,6.87-1.14,9-3.39a12.9,12.9,0,0,0,3.24-6.74c1.51,3.46,4.94,9.14,11.3,10l.42-1.17c-7.26-.79-10.45-8.64-11.27-11.06,7.38-.52,10.91-7.9,12.3-12,.54,2.65,1.69,6.58,4,9.23l.5-1.38c-2.45-3.31-3.36-8.37-3.61-10.15a8.89,8.89,0,0,0,6.13-2.67,13.65,13.65,0,0,0,3.27-7.69c.27.53.59,1.12,1,1.74l.56-1.55c-.49-.89-.86-1.66-1.09-2.19,5.9-.71,8.65-8.24,9.69-12.3,1.38,4.13,5.3,11.9,15.13,12.33-.95,2.58-4.65,11.13-12,11.13a10.71,10.71,0,0,1-7.1-3l1,2.33a12.4,12.4,0,0,0,2.27,1.15,26.2,26.2,0,0,1-.61,2.68l.78,1.79c.2-.64.37-1.23.5-1.77,1.38,4.13,5.3,11.9,15.13,12.33-.7,1.9-2.88,7-6.89,9.58l.5,1.16c4-2.45,6.29-7.11,7.27-9.56,1.38,3.18,5.12,10.13,11.75,11.07,0,1.5,0,6.54-3.11,9.94-2,2.2-4.92,3.31-8.67,3.31-.3,0-.56,0-.85-.05l2.2,5.07c1.91,3.39,5.31,7.7,10.43,8.42,0,1.43,0,6.06-2.68,9.43l.54,1.27a14.06,14.06,0,0,0,3.2-7.48c1.7,4.25,5.79,10.76,15,11.22-1.42,2.38-5.88,9.12-11.88,10.77l.5,1.13c6.12-1.76,10.58-8.17,12.25-10.93,1.09,3.1,4.52,10.27,12.85,11.27a17.56,17.56,0,0,1-.19,2.49l1.25,0s0-.06,0-.09l0,.09,1.39,0c-.47-1-.82-1.88-1-2.46.17,0,.33,0,.51,0,8.64,0,11.54-6.25,12.51-10.06,1.18,3.55,4,9.3,9.7,10a28.89,28.89,0,0,1-.61,3l1.29,0q.09-.41.18-.78c.08.25.18.52.28.79l1.34,0a25,25,0,0,1-1-3c7.13-.23,11.76-8.06,13.36-11.31,1.14,2.73,4.18,8.58,10,10.61a.66.66,0,0,0,0,.14,21.59,21.59,0,0,1-.27,4.15l1.25,0c0-.22.07-.44.09-.65l.28.66,1.3,0a23.39,23.39,0,0,1-1.35-4A12.89,12.89,0,0,0,278.57,175.36ZM122.35,68.59c3.83,0,6.87-1.14,9-3.4a12.9,12.9,0,0,0,3.24-6.73c1.58,3.61,5.24,9.66,12.15,10.09-.7,2.8-3.9,13.18-12.52,13.18S122.81,71.4,122.19,68.58Zm11.29,14.33c-.06,1.44-.47,5.35-3.14,8.11-1.92,2-4.67,3-8.15,3-10.17,0-13.54-8.55-14.32-11.12,9.65-.38,12.67-7.42,13.6-11.71C123,75.47,126.35,82.53,133.64,82.92ZM78.43,111.38c1.21,3.31,4.38,9.24,11.62,10.38-.43,2.44-2.87,13.35-11.68,13.35-8.58,0-11.79-10.3-12.51-13.14H66C74.07,122,77.28,115.07,78.43,111.38Zm-.06-3c-8.58,0-11.79-10.3-12.51-13.15H66c8.07,0,11.28-6.91,12.43-10.59,1.21,3.31,4.38,9.24,11.62,10.38C89.62,97.51,87.2,108.42,78.37,108.42Zm.77,1.19c7.54-.5,10.59-8.2,11.68-12.32,1.4,4.14,5.42,11.93,15.61,12.33-.79,2.53-4.18,11.12-13.86,11.12S79.8,112.14,79.14,109.61ZM92.57,122c9.37,0,13.31-7.38,14.67-10.94,1.3,3.36,5,10.13,13.56,10.87-.15,2.57-1.5,13.21-13.57,13.21S92.11,124.7,91.48,121.92C91.84,121.94,92.2,122,92.57,122Zm14.66-13.55c-12,0-15.12-10.41-15.75-13.19.36,0,.72,0,1.09,0,9.37,0,13.31-7.39,14.67-10.94,1.3,3.36,5,10.13,13.56,10.87C120.64,97.78,119.28,108.42,107.23,108.42ZM92.57,68.59c9.37,0,13.31-7.39,14.67-10.94,1.3,3.35,5,10.13,13.56,10.86-.15,2.58-1.5,13.22-13.57,13.22S92.11,71.31,91.48,68.54C91.84,68.56,92.2,68.59,92.57,68.59Zm13.86,14.33c-.79,2.54-4.18,11.13-13.86,11.13S79.8,85.45,79.14,82.91c7.54-.49,10.59-8.19,11.68-12.31C92.22,74.74,96.24,82.52,106.43,82.92ZM66,68.59c8.07,0,11.28-6.91,12.43-10.59,1.21,3.31,4.38,9.23,11.62,10.38-.43,2.43-2.87,13.35-11.68,13.35-8.58,0-11.79-10.31-12.51-13.15ZM51.8,82.92c9.27-.48,12.41-8,13.43-12.15,1.38,4.15,4.92,11.67,12.4,12.15-.55,2.46-3.1,11.13-11.63,11.13S53,85.55,51.8,82.92ZM65.23,97.46c1.38,4.15,4.92,11.67,12.4,12.15-.55,2.46-3.1,11.13-11.63,11.13s-13-8.5-14.2-11.13C61.07,109.13,64.21,101.65,65.23,97.46ZM36.06,122h.17c9.6,0,13.5-7.77,14.76-11.2,1.56,3.16,5.87,10.22,13.43,11.11-.31,2.61-2.27,13.23-13.53,13.23C39.8,135.11,36.7,124.82,36.06,122Zm14.83,39.84c-11.09,0-14.19-10.3-14.83-13.15h.17c9.6,0,13.5-7.78,14.76-11.21,1.56,3.16,5.87,10.23,13.43,11.11C64.11,151.18,62.15,161.81,50.89,161.81Zm.91-25.51c9.27-.47,12.41-8,13.43-12.14,1.38,4.14,4.92,11.66,12.4,12.14-.55,2.47-3.1,11.13-11.63,11.13S53,138.93,51.8,136.3Zm26.57,25.51c-8.58,0-11.79-10.31-12.51-13.15H66c8.07,0,11.28-6.91,12.43-10.6,1.21,3.31,4.38,9.24,11.62,10.39C89.62,150.89,87.18,161.81,78.37,161.81Zm.77-25.51c7.54-.5,10.59-8.19,11.68-12.31,1.4,4.14,5.42,11.92,15.61,12.32-.79,2.53-4.18,11.12-13.86,11.12S79.8,138.83,79.14,136.3Zm28.09,25.51c-12,0-15.12-10.42-15.75-13.2.36,0,.72.06,1.09.06,9.37,0,13.31-7.39,14.67-10.94,1.3,3.35,5,10.12,13.56,10.86C120.65,151.17,119.3,161.81,107.23,161.81Zm26.41-25.5a12.86,12.86,0,0,1-3.14,8.11c-1.92,2-4.67,3-8.15,3-10.17,0-13.54-8.55-14.32-11.12,9.65-.38,12.67-7.41,13.6-11.7C123,128.86,126.35,135.92,133.64,136.31Zm-3.14-18.59c-1.92,2-4.67,3-8.15,3-10.17,0-13.54-8.55-14.32-11.12,9.65-.38,12.67-7.42,13.6-11.7,1.36,4.24,4.72,11.31,12,11.7C133.58,111.05,133.17,115,130.5,117.72Zm3.76-9.3c-8.58,0-11.45-10.33-12.07-13.15h.16c3.83,0,6.87-1.14,9-3.39a12.9,12.9,0,0,0,3.24-6.74c1.58,3.61,5.24,9.66,12.15,10.09C146.08,98,142.88,108.42,134.26,108.42Zm19.22-16.69a7.88,7.88,0,0,1-5.93,2.32c-8.12,0-11.61-8.59-12.47-11.14,7.38-.52,10.91-7.91,12.3-12,.86,4.19,3.22,11.56,9.17,12C156.51,84.46,156.15,89,153.48,91.73Zm3.69-10c-6.63,0-8.54-10.44-8.93-13.17a8.89,8.89,0,0,0,6.13-2.67,13.68,13.68,0,0,0,3.27-7.69c1.5,3,4.63,7.87,9.45,9.69C167,68.19,164.74,81.73,157.17,81.73ZM274.3,121.26a.61.61,0,0,0,0,.14c0,.07.4,7.13-3.3,11.08a8.68,8.68,0,0,1-6.63,2.63c-9.37,0-12.69-10.33-13.42-13.16,7.13-.23,11.76-8.06,13.36-11.31C265.44,113.37,268.48,119.23,274.3,121.26Zm-34.67-12.84c-7.42,0-11.79-10.24-12.88-13.16l.51,0c8.64,0,11.54-6.25,12.51-10,1.18,3.54,4,9.3,9.7,10C249.09,97.87,247.1,108.42,239.63,108.42Zm10.7-10.94c1.42,4.13,5.11,11.57,13.1,12.12-1.26,2.65-5.86,11.14-12.81,11.14s-9.61-8.65-10.23-11.14C246.93,109.06,249.44,101.64,250.33,97.48ZM239,109.61c-.25,2.39-1.85,11.13-11.7,11.13s-13.09-8.54-13.86-11.12c3.94-.15,7.1-1.43,9.35-3.83a14.77,14.77,0,0,0,3.6-8.2C228.16,101.73,232.32,109.13,239,109.61ZM221.84,105c-2.16,2.3-5.27,3.46-9.24,3.46-11.89,0-15.09-10.31-15.74-13.15H197c7.74,0,13.46-8.18,15.41-11.39C213.52,87,217,94.15,225.28,95.16,225.28,96.64,225,101.57,221.84,105Zm3.44,16.89c0,1.48-.24,6.4-3.43,9.79-2.16,2.31-5.27,3.47-9.25,3.47-11.89,0-15.09-10.31-15.74-13.15H197c7.74,0,13.46-8.18,15.41-11.39C213.52,113.67,217,120.85,225.28,121.85Zm-2.53,10.63a14.84,14.84,0,0,0,3.6-8.2c1.81,4.15,6,11.55,12.61,12-.25,2.39-1.85,11.13-11.7,11.13s-13.09-8.54-13.86-11.11C217.34,136.16,220.5,134.89,222.75,132.48Zm4-10.53.51,0c8.64,0,11.54-6.25,12.51-10,1.18,3.55,4,9.3,9.7,10-.38,2.66-2.38,13.21-9.84,13.21S227.84,124.87,226.75,122Zm23.58,2.22c1.42,4.13,5.11,11.57,13.1,12.12-1.26,2.65-5.86,11.14-12.81,11.14s-9.61-8.65-10.23-11.14C246.93,135.75,249.44,128.33,250.33,124.17Zm24-29.6a.61.61,0,0,0,0,.14c0,.07.4,7.13-3.3,11.08a8.68,8.68,0,0,1-6.63,2.63c-9.37,0-12.69-10.33-13.42-13.16C258.07,95,262.7,87.2,264.3,84,265.44,86.68,268.48,92.54,274.3,94.57ZM263.43,82.91c-1.26,2.64-5.86,11.14-12.81,11.14S241,85.4,240.39,82.91c6.54-.55,9.05-8,9.94-12.12C251.75,74.91,255.44,82.36,263.43,82.91ZM227.26,68.59c8.64,0,11.54-6.25,12.51-10.06,1.18,3.55,4,9.3,9.7,10-.38,2.66-2.38,13.21-9.84,13.21s-11.79-10.24-12.88-13.17C226.92,68.57,227.08,68.59,227.26,68.59ZM239,82.92c-.25,2.39-1.85,11.13-11.7,11.13s-13.09-8.54-13.86-11.12c3.94-.15,7.1-1.43,9.35-3.83a14.84,14.84,0,0,0,3.6-8.21C228.16,75,232.32,82.44,239,82.92ZM197,68.59c7.74,0,13.46-8.18,15.41-11.4,1.09,3.1,4.52,10.27,12.85,11.27,0,1.48-.24,6.4-3.43,9.8-2.16,2.3-5.27,3.47-9.25,3.47-11.89,0-15.09-10.31-15.74-13.15Zm14.54,14.33c-1.62,2.72-7.22,11.13-14.54,11.13s-11.33-8.5-12.4-11.12a12,12,0,0,0,8.71-3.69,14,14,0,0,0,3.25-7.54C198.28,75.94,202.37,82.45,211.56,82.92ZM168.39,68.29a10.87,10.87,0,0,0,2.52.3c7.57,0,11.49-7.76,12.86-11.18,1.38,3.18,5.12,10.13,11.75,11.07,0,1.49,0,6.53-3.11,9.93-2,2.2-4.92,3.32-8.67,3.32C171.81,81.73,168.88,70.63,168.39,68.29Zm15.35,40.13c-11.93,0-14.86-11.1-15.35-13.44a10.35,10.35,0,0,0,2.52.3c7.57,0,11.49-7.75,12.86-11.18,1.38,3.18,5.12,10.13,11.75,11.07,0,1.49,0,6.54-3.11,9.93C190.41,107.31,187.49,108.42,183.74,108.42Zm.88,1.2a12,12,0,0,0,8.71-3.69,14,14,0,0,0,3.25-7.54c1.7,4.25,5.79,10.75,15,11.22-1.62,2.72-7.22,11.13-14.54,11.13S185.69,112.24,184.62,109.62Zm0,26.69a12,12,0,0,0,8.71-3.68,14,14,0,0,0,3.25-7.55c1.7,4.25,5.79,10.76,15,11.22-1.62,2.72-7.22,11.13-14.54,11.13S185.69,138.93,184.62,136.31Zm12.24,12.35H197c7.74,0,13.46-8.18,15.41-11.4,1.09,3.09,4.52,10.27,12.85,11.27,0,1.48-.24,6.4-3.43,9.8-2.16,2.3-5.27,3.47-9.25,3.47C200.71,161.81,197.51,151.5,196.86,148.66Zm30.4,25.47c-9.78,0-13.09-8.54-13.86-11.12,3.94-.15,7.1-1.43,9.35-3.83a14.9,14.9,0,0,0,3.6-8.21c1.81,4.15,6,11.55,12.61,12C238.71,165.39,237.11,174.13,227.26,174.13Zm12.37-12.32c-7.42,0-11.79-10.24-12.88-13.17.17,0,.33,0,.51,0,8.64,0,11.54-6.25,12.51-10.06,1.18,3.55,4,9.3,9.7,10C249.09,151.26,247.09,161.81,239.63,161.81Zm11,12.32c-7,0-9.61-8.66-10.23-11.14,6.54-.55,9.05-8,9.94-12.13,1.42,4.13,5.11,11.58,13.1,12.13C262.17,165.63,257.57,174.13,250.62,174.13Zm.32-25.49c7.13-.22,11.76-8.06,13.36-11.31,1.14,2.73,4.18,8.59,10,10.62a.66.66,0,0,0,0,.14c0,.07.4,7.14-3.3,11.08a8.69,8.69,0,0,1-6.63,2.64C255,161.81,251.67,151.47,250.94,148.64ZM265.22,163a9.65,9.65,0,0,0,6.67-3,15,15,0,0,0,3.47-8.41c1.68,4.28,5.65,11,14,11.39-.33,2.46-2.14,11.13-10.76,11.13S266.21,165.59,265.22,163Z" transform="translate(-9.78 -28.71)"/><path class="cls-7" d="M127.23,173.8l.22-.62a11.16,11.16,0,0,1-2,.62Z" transform="translate(-9.78 -28.71)"/><polygon class="cls-1" points="69.42 27.74 67.78 11.09 101.43 11.09 101.9 26.99 69.42 27.74"/><polygon class="cls-1" points="195.76 24.82 195.76 11.09 226.68 11.09 226.68 23.42 195.76 24.82"/><polygon class="cls-4" points="62.16 11.09 105.58 12.73 105.58 0 62.16 0 62.16 11.09"/><polygon class="cls-4" points="190.39 3.29 192.69 12.73 230.61 12.73 232.02 0 190.39 3.29"/><polygon class="cls-8" points="129.11 186.73 132.73 208.43 175.03 209.88 178.29 185.29 129.11 186.73"/><polygon class="cls-9" points="131.69 209.88 137.43 294.85 168.88 294.85 171.78 212.41 131.69 209.88"/><polygon class="cls-4" points="131.69 294.13 128.03 206.26 178.29 206.26 175.03 294.13 168.88 294.85 171.78 212.41 134.17 211.68 137.43 294.85 131.69 294.13"/><polygon class="cls-10" points="138.69 216.02 140.05 236.09 165.54 237.45 167.44 216.02 138.69 216.02"/><polygon class="cls-10" points="140.32 242.33 165 242.33 165 289.51 142.49 289.51 140.32 242.33"/><polygon class="cls-4" points="128.03 206.8 125.79 184.38 180.49 184.38 178.29 206.8 173.59 206.62 175.03 188.18 131.69 188.54 133.09 206.8 128.03 206.8"/><polygon class="cls-4" points="149.9 186.73 151.74 208.43 155.69 208.43 155.69 186.73 149.9 186.73"/><path class="cls-8" d="M219.38,216.71l.92,17.87s36.6,1.88,36.42.93,0-20.09,0-20.09Z" transform="translate(-9.78 -28.71)"/><polygon class="cls-8" points="211.97 205.87 214.97 263.31 242.91 263.31 246.14 206.8 211.97 205.87"/><path class="cls-2" d="M234.45,235.51s2.77,16.85-7.39,28.4l6.24,26.2h-6.24l-5.31-55.53Z" transform="translate(-9.78 -28.71)"/><path class="cls-2" d="M243.92,236.89s.05,21.36,7.65,24.65L246.46,287l6.46,2.07,3-53.56Z" transform="translate(-9.78 -28.71)"/><polygon class="cls-4" points="212.09 261.4 207.93 204.26 248.8 204.26 245.33 261.4 240.83 261.4 243.12 209.45 213.96 208.76 217.28 261.4 212.09 261.4"/><polygon class="cls-4" points="225.82 188.18 226.98 261.4 230.21 261.4 230.21 188.18 225.82 188.18"/><polygon class="cls-4" points="211.97 228.73 213.35 234.1 243.83 235.2 243.83 231.04 211.97 228.73"/><path class="cls-11" d="M235.61,235.51" transform="translate(-9.78 -28.71)"/><polygon class="cls-12" points="206.2 258.29 250.53 258.29 250.53 268.33 206.2 266.95 206.2 258.29"/><polygon class="cls-4" points="207.93 204.81 207.93 186.16 248.8 185.14 248.8 204.81 245.1 204.92 244.73 188.92 211.97 188.92 211.97 204.81 207.93 204.81"/><path class="cls-8" d="M61.94,216.71l.92,17.87s36.61,1.88,36.43.93,0-20.09,0-20.09Z" transform="translate(-9.78 -28.71)"/><polygon class="cls-8" points="54.54 205.87 57.54 263.31 85.48 263.31 88.71 206.8 54.54 205.87"/><path class="cls-2" d="M77,235.51s2.77,16.85-7.39,28.4l6.23,26.2H69.63l-5.31-55.53Z" transform="translate(-9.78 -28.71)"/><path class="cls-2" d="M86.48,236.89s.06,21.36,7.65,24.65L89,287l6.47,2.07,3-53.56Z" transform="translate(-9.78 -28.71)"/><polygon class="cls-4" points="54.65 261.4 50.49 204.26 91.36 204.26 87.9 261.4 83.4 261.4 85.68 209.45 56.52 208.76 59.85 261.4 54.65 261.4"/><polygon class="cls-4" points="68.39 188.18 69.54 261.4 72.78 261.4 72.78 188.18 68.39 188.18"/><polygon class="cls-4" points="54.54 228.73 55.92 234.1 86.4 235.2 86.4 231.04 54.54 228.73"/><path class="cls-11" d="M78.17,235.51" transform="translate(-9.78 -28.71)"/><polygon class="cls-12" points="48.76 258.29 93.09 258.29 93.09 268.33 48.76 266.95 48.76 258.29"/><polygon class="cls-4" points="50.49 204.81 50.49 186.16 91.36 185.14 91.36 204.81 87.67 204.92 87.3 188.92 54.54 188.92 54.54 204.81 50.49 204.81"/><ellipse class="cls-4" cx="153.67" cy="144.47" rx="20.13" ry="17.58"/><ellipse class="cls-8" cx="153.67" cy="144.47" rx="15.89" ry="13.88"/><path class="cls-4" d="M161.43,159.3l2,29.92h3.15V159.3A9.66,9.66,0,0,0,161.43,159.3Z" transform="translate(-9.78 -28.71)"/><polygon class="cls-4" points="133.82 141.56 171.37 141.56 171.37 145.39 133.82 147.38 133.82 141.56"/><polygon class="cls-13" points="324.88 109.82 287.92 219.62 324.88 268.33 361.84 216.43 324.88 109.82"/><polygon class="cls-12" points="324.88 160.62 318.1 333.5 331.66 333.5 324.88 160.62"/><polygon class="cls-12" points="324.88 246.95 348.29 212.56 324.88 237.45 324.88 246.95"/><polygon class="cls-12" points="324.88 208.43 308.86 195.03 324.88 216.02 324.88 208.43"/><polygon class="cls-14" points="357.04 175.06 330.86 252.83 357.04 287.34 383.22 250.57 357.04 175.06"/><polygon class="cls-12" points="357.04 211.04 352.24 333.5 361.84 333.5 357.04 211.04"/><polygon class="cls-12" points="357.04 272.19 373.62 247.83 357.04 265.46 357.04 272.19"/><polygon class="cls-12" points="357.04 244.91 345.69 235.42 357.04 250.29 357.04 244.91"/></g></svg>