<svg xmlns="http://www.w3.org/2000/svg" viewBox="0 0 332.4 356.8"><defs><style>.cls-1{isolation:isolate;}.cls-2{fill:#579b43;}.cls-3{fill:#fff;mix-blend-mode:soft-light;}.cls-4{fill:#c6d290;mix-blend-mode:multiply;}.cls-5{fill:#94c847;}</style></defs><g class="cls-1"><g id="Layer_2" data-name="Layer 2"><path class="cls-2" d="M182.92,282.76s-10.3-25.34-32.54-40.76c-30.85-21.4-16.49-71.35,8.5-85.18,20.89-11.58,14-36.71,22.28-54.83s19.71-42.38,48.37-40.64,25.35-10.29,44.18-23.27c26.19-18.07,66,5.8,71.1,30.45s-12.25,36.76,9.78,52.2,6.82,37.57-1.33,51.75-8.47,36.59-6,55.4c3.22,24.2-14.75,49.26-52.6,60-33.89,9.59-58.26,2-69.92,11.92Z" transform="translate(-33.6 -22.2)"/><path class="cls-3" d="M205.8,109.59c2.8,9.87,16.2,8.16,23.91,6.11a37.59,37.59,0,0,0,11.1-4.42c3.64-2.38,6.88-5.27,10.63-7.52C259.29,99,267.66,95.44,276.11,92c7-2.89,12.42-5.45,16.39-12.19a48.59,48.59,0,0,0,6.22-18,44,44,0,0,0-.62-16.18,29.39,29.39,0,0,0-17.73,5.06c-15.12,10.43-12.46,20.09-35.49,18.69S212.72,87.44,206,102c-.38.84-.72,1.71-1,2.58A25.9,25.9,0,0,0,205.8,109.59Z" transform="translate(-33.6 -22.2)"/><path class="cls-4" d="M354.59,120.73c-22-15.44-4.64-27.55-9.78-52.2-2.25-10.75-11.08-21.35-22.5-28.39a48.87,48.87,0,0,1,1.59,15c-.59,10.87-3.32,21.46-4.76,32.22-1,7.6-2.59,15.79-.69,23.37,3.93,15.69,18.39,27.38,20.37,43.77,1.31,10.76-4.57,19.31-8.84,28.64-5.42,11.84-3.33,25-6.3,37.45-4.59,19.28-17.67,35.61-36.63,42.27-10.74,3.76-21.9,4.27-33.17,4.79-13.85.64-27.81.87-41.62-.58-11.51-1.2-22.21-3.08-32.06-9.48-8.34-5.41-16-12.08-25-16.21a.82.82,0,0,1-.86,1l-3.69-.16c22.07,15.44,32.31,40.59,32.31,40.59l41.85,17c11.66-10,36-2.33,69.92-11.92,37.85-10.71,55.82-35.77,52.6-60-2.5-18.81-2.17-41.21,6-55.4S376.62,136.17,354.59,120.73Z" transform="translate(-33.6 -22.2)"/><path class="cls-2" d="M216.69,282.76S227,257.42,249.21,242c30.86-21.4,16.51-71.35-8.48-85.18-20.9-11.58-14-36.71-22.29-54.83s-19.72-42.38-48.37-40.64S144.73,51.06,125.9,38.08c-26.21-18.07-66,5.8-71.1,30.45s12.25,36.76-9.79,52.2-6.81,37.57,1.33,51.75,8.48,36.59,6,55.4c-3.21,24.2,14.76,49.26,52.6,60,33.89,9.59,59.59,2,71.25,11.92Z" transform="translate(-33.6 -22.2)"/><path class="cls-3" d="M201.88,115.14c-2.8,9.87-16.2,8.16-23.91,6.1a38.1,38.1,0,0,1-11.1-4.4c-3.63-2.39-6.88-5.28-10.63-7.53-7.85-4.72-16.23-8.32-24.68-11.79-7-2.89-12.41-5.45-16.39-12.19a48.38,48.38,0,0,1-6.2-18,44,44,0,0,1,.6-16.18,29.4,29.4,0,0,1,17.74,5.06c15.12,10.43,12.46,20.1,35.48,18.7S195,93,201.65,107.54c.39.84.73,1.7,1,2.58A26.82,26.82,0,0,1,201.88,115.14Z" transform="translate(-33.6 -22.2)"/><path class="cls-4" d="M169.44,261c-16-2.61-32.32-.64-48.39.24a156.39,156.39,0,0,1-23,0c-6.6-.62-13.57-1.61-18.83-6C67.89,245.8,66.7,228.83,67,215.15,67.16,204.09,69.4,193,69,182a41.67,41.67,0,0,0-5.89-19.87C60.81,158,58,153.7,57,149c-3.75-18.86,16.27-29.53,24.1-43.84,5.13-9.4,3.43-20.4,6.23-30.53a80.19,80.19,0,0,1,13.56-27.27,116.79,116.79,0,0,1,13.22-14.52c-25-6.06-54.92,14.5-59.34,35.68-5.14,24.65,12.25,36.76-9.79,52.2s-6.81,37.57,1.33,51.75,8.48,36.59,6,55.4c-3.21,24.2,14.76,49.26,52.6,60,33.89,9.59,59.59,2,71.25,11.92L205,287.67C198.18,272.88,185.75,263.64,169.44,261Z" transform="translate(-33.6 -22.2)"/><path class="cls-5" d="M306.18,189.35c-9.12-16.65-16.89-37.66-14.4-53.83s8.7-42.29-17.41-48.75-14.26-24-27.94-45.17-59.37-29.08-77.3-2.78c-12.88,18.89-5.45,28.92-32.82,37.62s-29.22,35.45-30.46,55.35,14.29,40.84-1,59.17c-18.32,21.91-13.71,73.67,22.78,82.52,22.94,5.56,44.34,20.11,47.5,25.39,18.21,30.48,3,80.13,3,80.13h45s-11.45-49.7,5.63-83c5.1-9.92,25.21-13.13,50-31.76C310.16,240.61,317.9,210.76,306.18,189.35Z" transform="translate(-33.6 -22.2)"/><path class="cls-4" d="M306.18,189.35c-9.12-16.65-16.89-37.66-14.4-53.83s8.7-42.29-17.41-48.75-14.26-24-27.94-45.17c-11.18-17.27-43.71-25.72-65-13.9a37.35,37.35,0,0,1,4.73-.2c4.42.11,8.77.89,12.34,3.65,3.41,2.62,6,6.52,8.4,10.05,3.16,4.69,6.48,9.27,9.2,14.24,2.9,5.33,5.55,11,9.19,15.83,6.46,8.64,15.73,14.46,23.88,21.34,6.66,5.63,15,13.27,16.91,22.27,1.09,5.26-.9,9.46-1.7,14.57-1.27,8.07,3.9,12.72,7.58,19.08A83.4,83.4,0,0,1,282.1,180a147.7,147.7,0,0,1-.1,36.45c-1.26,10.41-3.2,20.51-9.24,29.33S258.52,261.16,249.54,267c-5.74,3.75-11.77,7.59-16.2,12.91a91.17,91.17,0,0,0-9.18,14.1c-4.55,8.15-20.3,39.19-32.73,24.31-4.43-5.28-5.63-12.5-8.58-18.55-5.2-10.64-14.67-18.63-24.41-25C140.37,263,120.87,249.09,99,248c5.09,12.13,14.43,22.07,28.62,25.51,22.94,5.56,44.34,20.11,47.5,25.39,18.21,30.48,3,80.13,3,80.13h45s-11.45-49.7,5.63-83c5.1-9.92,25.21-13.13,50-31.76C310.16,240.61,317.9,210.76,306.18,189.35Z" transform="translate(-33.6 -22.2)"/><path class="cls-2" d="M197.46,276.61c-7.09-5.1-13.31-10.39-19.48-15.66s-12.08-10.58-18-15.83-11.87-10.46-17.92-15.68-12.24-10.39-18.7-16.31c8.79.35,17.13,3.14,24.87,6.87a95.37,95.37,0,0,1,21.24,14.39,105.87,105.87,0,0,1,16.92,19.09,91.89,91.89,0,0,1,6.49,11A59.06,59.06,0,0,1,197.46,276.61Z" transform="translate(-33.6 -22.2)"/><path class="cls-2" d="M197.46,276.61a58.41,58.41,0,0,1,4.64-12.12,92.32,92.32,0,0,1,6.55-11,107.37,107.37,0,0,1,17-19.08A96.17,96.17,0,0,1,247,220c7.76-3.75,16.11-6.53,24.92-6.89-6.47,5.93-12.69,11-18.76,16.33s-12,10.45-18,15.7S223.19,255.69,217,261,204.57,271.53,197.46,276.61Z" transform="translate(-33.6 -22.2)"/><path class="cls-2" d="M200.55,224.1a230.18,230.18,0,0,1-18.26-14.3c-5.68-4.85-11.18-9.73-16.63-14.6l-16.37-14.62c-5.5-5-11.15-9.78-17-15.46,8.22.11,16,2.62,23.23,6a85.24,85.24,0,0,1,19.72,13.34,94.66,94.66,0,0,1,15.51,17.87,81.69,81.69,0,0,1,5.84,10.33A51.38,51.38,0,0,1,200.55,224.1Z" transform="translate(-33.6 -22.2)"/><path class="cls-2" d="M200.55,224.1a51.9,51.9,0,0,1,4-11.39,80.54,80.54,0,0,1,5.85-10.33,94.3,94.3,0,0,1,15.51-17.87,85,85,0,0,1,19.72-13.34c7.22-3.43,15-5.94,23.23-6-5.88,5.68-11.53,10.5-17,15.46L235.44,195.2c-5.44,4.87-10.94,9.75-16.62,14.6A228.58,228.58,0,0,1,200.55,224.1Z" transform="translate(-33.6 -22.2)"/><path class="cls-2" d="M200.55,172.63A213.06,213.06,0,0,1,184,158.38c-5.1-4.8-10-9.58-14.87-14.34s-9.69-9.48-14.67-14.23-10.08-9.48-15.52-15c7.78-.06,15.2,2.36,22,5.73a73.85,73.85,0,0,1,18.25,13.23,82,82,0,0,1,13.68,17.66,74.08,74.08,0,0,1,4.83,10.13A46.59,46.59,0,0,1,200.55,172.63Z" transform="translate(-33.6 -22.2)"/><path class="cls-2" d="M200.55,172.63a51.83,51.83,0,0,1,3.85-11.12A78.77,78.77,0,0,1,210,151.43,92.33,92.33,0,0,1,225,133.94a82.84,82.84,0,0,1,19.09-13.18c7-3.38,14.62-5.89,22.66-5.93-5.69,5.61-11.07,10.38-16.35,15.28l-15.75,14.43c-5.26,4.79-10.59,9.56-16.14,14.29A192.83,192.83,0,0,1,200.55,172.63Z" transform="translate(-33.6 -22.2)"/><path class="cls-3" d="M121,196.49c.55.2,1.13.4,1.71.57,6,1.83,13.25,1.07,19.25-.55,8.85-2.39,16.1-7.72,18.53-16.91,2.6-9.85,1.12-20.14.78-30.15-.27-7.88-.47-17,4-23.88,4.82-7.45,12.51-12.36,17.18-20,5.55-9.07,7.74-19.78,7.75-30.37,0-7-.67-14.06-3.21-20.36a29.12,29.12,0,0,0-8,7.87c-10.65,15.62-4.5,23.91-27.12,31.11s-24.18,29.3-25.21,45.76,11.82,33.77-.85,48.93A32.49,32.49,0,0,0,121,196.49Z" transform="translate(-33.6 -22.2)"/></g></g></svg>