<svg xmlns="http://www.w3.org/2000/svg" viewBox="0 0 253.34 392"><defs><style>.cls-1{fill:#f0afb6;}.cls-2{fill:#fff;}.cls-3{fill:#26192a;}.cls-4{fill:#db6362;}.cls-5{fill:#fffaf0;}</style></defs><g id="Layer_2" data-name="Layer 2"><path class="cls-1" d="M195.33,387.68s-65.32,12-74.1-.33c-6.93-9.71,50.54-5.45,50.54-5.45s-34.54-4-37.94-47.42c-4.17-53.09,50.44-58.42,50.44-58.42S197.91,374.92,195.33,387.68Z" transform="translate(-108.04 -3)"/><path class="cls-2" d="M318.18,294.85s-1.57-12.27,12.1-11.44,21.23,13.28,13.51,15-3-25.87,9.51-15,4.16,39.68-8.92,33,9.92-19.17,15.07-4.31-8.27,23.89-22.8,20.67-6.44-15.32,2.72-10-8.55,20-22.58,10.62" transform="translate(-108.04 -3)"/><path class="cls-3" d="M326.88,337.33a18.84,18.84,0,0,1-10.54-3.24.82.82,0,0,1-.22-1.13.81.81,0,0,1,1.12-.22,17.54,17.54,0,0,0,17.87.92l.56-.3c-5.91-1.52-7.36-4.38-7.69-6A5.32,5.32,0,0,1,330.3,322c2-1.45,5.57-2.19,9.48.09a5.16,5.16,0,0,1,2.93,4.7,8.55,8.55,0,0,1-3,5.65c6.75.72,13.14-1.25,16.82-5.37,3.38-3.8,4.15-9,2.18-14.71a11.54,11.54,0,0,0-.84-1.9,20.84,20.84,0,0,1-1.52,2.71c-3.27,4.84-7.75,6.28-12.31,3.95s-4.61-5-4.32-6.45c.68-3.25,4.86-6,9.53-6.34a10.26,10.26,0,0,1,8.17,2.89c2.54-7.75,1.47-17.9-4.63-23.19-2.94-2.56-5.55-3-7.75-1.36a9.63,9.63,0,0,0-2.87,4c3.35,2.42,5.34,5.47,5.54,7.9s-1.2,4.06-3.72,4.63a3.36,3.36,0,0,1-4-2.12c-1.1-2.37-1-6.3.18-9.78a21.26,21.26,0,0,0-9.93-3.11c-4-.24-7,.67-8.93,2.7-2.89,3.09-2.32,7.78-2.32,7.83a.82.82,0,0,1-.7.91.83.83,0,0,1-.91-.7c0-.23-.66-5.51,2.75-9.15,2.25-2.4,5.68-3.49,10.21-3.2a22.74,22.74,0,0,1,10.43,3.18,11.08,11.08,0,0,1,3.27-4.42c1.63-1.23,5.07-2.67,9.8,1.43,6.82,5.93,7.86,17.42,4.77,25.84a12.92,12.92,0,0,1,1.62,3.19c2.17,6.27,1.28,12.07-2.51,16.32-4.37,4.9-11.85,7-19.76,5.69a18.67,18.67,0,0,1-2.09,1.26A19.53,19.53,0,0,1,326.88,337.33Zm7.86-15.07a6.06,6.06,0,0,0-3.5,1.06,3.68,3.68,0,0,0-1.67,3.72c.45,2.21,3.1,4,7.26,4.93l.72.15c2.14-1.65,3.49-3.64,3.53-5.38A3.58,3.58,0,0,0,339,323.5,8.3,8.3,0,0,0,334.74,322.26ZM350,305.93c-.24,0-.46,0-.66,0-3.84.25-7.52,2.56-8,5.05-.45,2.17,1.64,3.74,3.47,4.68,5.11,2.62,8.6-1,10.22-3.42a18.84,18.84,0,0,0,1.79-3.36A8.73,8.73,0,0,0,350,305.93Zm-8.41-17.63c-.89,3-1,6.22-.12,8.12.65,1.4,1.54,1.37,2.16,1.23,1.75-.4,2.58-1.38,2.45-2.92C345.9,292.8,344.28,290.35,341.57,288.3Z" transform="translate(-108.04 -3)"/><path class="cls-4" d="M177,181.27s-12.08,47.92.57,90.38C177.54,271.65,222,230.91,177,181.27Z" transform="translate(-108.04 -3)"/><path class="cls-4" d="M225.17,160.22s41.83-28.55,77.22,3.54c31,28.13,22.4,92.62,4.72,95.62S201.67,174,225.17,160.22Z" transform="translate(-108.04 -3)"/><path class="cls-1" d="M220.6,101.49s-16.92-42-52.93-39.8-22.25,40.57-50.49,44.75,14.17,74.18,56.37,63.88S225.44,125.74,220.6,101.49Z" transform="translate(-108.04 -3)"/><path class="cls-1" d="M195.33,89.23s36.85-39.13,89.38-21.55,67.22,94.46,41.85,96.06S267,60.66,201.08,110.44Z" transform="translate(-108.04 -3)"/><path class="cls-1" d="M173.78,81.62S177,28,228.54,7.76s112.15,29.37,93.72,46.87S210.43,13.75,191.8,94.21Z" transform="translate(-108.04 -3)"/><path class="cls-3" d="M323.43,144.09a5.44,5.44,0,0,1-.57,0c-3.58-.31-8.6-5.23-15.54-12.05C290,115,260.88,86.4,218.18,94.21a.81.81,0,1,1-.3-1.6c43.54-8,73,21,90.58,38.24,6.45,6.33,11.54,11.34,14.54,11.6,2.67.23,3.82-1.7,4.33-3.35,2.84-9.18-6.6-33.75-35.5-50-36.87-20.77-73-1.65-73.41-1.45a.82.82,0,0,1-1.1-.33.8.8,0,0,1,.32-1.1c.37-.2,37.34-19.73,75,1.46,31.09,17.51,39.05,42.86,36.25,51.92C328,142.47,326,144.09,323.43,144.09Z" transform="translate(-108.04 -3)"/><path class="cls-3" d="M195.33,69.47a.8.8,0,0,1-.62-1.33C223.35,34.58,261.89,39,284.92,41.65c8.68,1,15.54,1.78,18.73.23,2.16-1.06,3-2.63,2.5-4.68-1.83-7.43-22.28-21.35-53.3-20.4-37,1.15-62.52,46.28-62.77,46.73a.82.82,0,0,1-1.1.32.83.83,0,0,1-.32-1.11c.26-.46,26.25-46.38,64.14-47.56,13.41-.42,26.84,2.06,37.79,7,9.38,4.22,16,9.83,17.14,14.64.69,2.81-.51,5.13-3.37,6.53-3.62,1.76-10.33,1-19.63-.08-22.7-2.61-60.7-7-88.79,25.93A.78.78,0,0,1,195.33,69.47Z" transform="translate(-108.04 -3)"/><path class="cls-3" d="M116.71,123.09h0a.81.81,0,0,1-.71-.5l-3.58-8.83a.8.8,0,0,1,.45-1,.82.82,0,0,1,1.06.44l2.93,7.23,5.32-9.85a.81.81,0,0,1,1.43.78l-6.14,11.36A.82.82,0,0,1,116.71,123.09Z" transform="translate(-108.04 -3)"/><path class="cls-3" d="M130.29,144.1H130c-7.45-.51-13.64-8.69-13.9-9a.81.81,0,1,1,1.3-1c.06.07,6,7.92,12.71,8.38a1.73,1.73,0,0,0,1.68-.66c2-2.74-1.12-12.23-2.49-15.65a.81.81,0,1,1,1.5-.61c.54,1.35,5.18,13.27,2.3,17.22A3.25,3.25,0,0,1,130.29,144.1Z" transform="translate(-108.04 -3)"/><path class="cls-3" d="M130,144.09a.78.78,0,0,1-.68-.38l-13.31-21a.81.81,0,0,1,.25-1.12.8.8,0,0,1,1.12.25l13.31,21a.82.82,0,0,1-.25,1.12A.8.8,0,0,1,130,144.09Z" transform="translate(-108.04 -3)"/><path class="cls-3" d="M165.07,117.41h-.24a2.88,2.88,0,0,1-2.26-1.3c-2.64-3.88,1.11-15.93,1.54-17.29a.81.81,0,1,1,1.55.49c-1.12,3.49-3.61,13.15-1.75,15.88a1.25,1.25,0,0,0,1,.6c3.45.22,7.65-9.08,9.42-15a.81.81,0,0,1,1.56.46C175.42,102.91,170.92,117.41,165.07,117.41Z" transform="translate(-108.04 -3)"/><path class="cls-3" d="M148.51,111.72h-.24a2.88,2.88,0,0,1-2.26-1.3c-2.64-3.88,1.11-15.93,1.54-17.29a.82.82,0,0,1,1-.53.81.81,0,0,1,.53,1c-1.12,3.49-3.61,13.15-1.75,15.89a1.23,1.23,0,0,0,1,.59h.13c3.5,0,7.54-9.16,9.29-15a.81.81,0,0,1,1-.55.83.83,0,0,1,.55,1C158.86,97.23,154.36,111.72,148.51,111.72Z" transform="translate(-108.04 -3)"/><path class="cls-1" d="M173.55,170.32s17.69,46.05,5.76,94.22-52.16,129,61.41,130c157.77,1.37,85.18-177.4-29.93-243.25S173.55,170.32,173.55,170.32Z" transform="translate(-108.04 -3)"/><path class="cls-4" d="M239.84,163.76s-24.85,38-6.32,75.56,73.59,0,73.59,0l5.59,16.81s-56.52,36.65-86-6.77.45-87.81.45-87.81S233.49,151.37,239.84,163.76Z" transform="translate(-108.04 -3)"/><path class="cls-3" d="M229.12,395c-12.94,0-24.35-1.19-27.92-4.18a3,3,0,0,1-.78-4.12c2.81-4.75,36.77-9,51.09-10.55-10.07-2.71-29.64-12.69-30.71-49.25-.47-15.91,3.89-28.18,13-36.48,15.73-14.41,40.51-11.68,40.76-11.65a.81.81,0,0,1,.71.9.8.8,0,0,1-.9.71c-.24,0-24.31-2.67-39.48,11.24-8.7,8-12.88,19.82-12.43,35.24.58,19.72,6.83,34.39,18.09,42.42a33.21,33.21,0,0,0,16.89,6.25.82.82,0,0,1,.8.78.8.8,0,0,1-.73.84c-20.34,2-53.44,6.63-55.66,10.38a1.4,1.4,0,0,0,.43,2.05c4,3.39,22,4.7,43.72,3.19,22.76-1.58,41.06-5.71,46.62-10.51a.83.83,0,0,1,1.15.09.81.81,0,0,1-.08,1.14c-7.06,6.09-29.2,9.62-47.57,10.9C240.48,394.78,234.66,395,229.12,395Z" transform="translate(-108.04 -3)"/><path class="cls-3" d="M145.24,393.71c-11.61,0-21.51-1.46-24.67-5.89a2.88,2.88,0,0,1-.4-3.25c3-5.35,30.11-4.67,44-3.95-10.45-4-28.41-15.33-31.14-46.07-1.47-16.49,2-29.85,10.3-39.68,12.19-14.44,30.82-16.09,31-16.1a.79.79,0,0,1,.87.74.81.81,0,0,1-.74.88c-.18,0-18.17,1.61-29.92,15.54-8,9.49-11.33,22.44-9.91,38.48,3.76,42.2,36.9,46.64,37.23,46.68a.81.81,0,0,1,.71.89.8.8,0,0,1-.86.73c-18.05-1.34-47.61-1.8-50.12,2.66-.1.16-.34.6.3,1.51,8.39,11.75,72.64.12,73.29,0a.81.81,0,1,1,.29,1.6C193.73,388.8,166.59,393.71,145.24,393.71Z" transform="translate(-108.04 -3)"/><path class="cls-1" d="M272.59,203.59s-48.21-6.66-58.4,13.86,113.35,33.81,111.45-7.93-85.18-37.83-85.18-37.83" transform="translate(-108.04 -3)"/><path class="cls-3" d="M270.45,237.68c-4.72,0-9.56-.21-14.44-.63-19.47-1.7-35.57-6.53-41-12.33-2.28-2.42-2.81-5.06-1.53-7.64,10.33-20.8,57.25-14.57,59.24-14.3a.81.81,0,1,1-.23,1.61c-.47-.06-47.74-6.34-57.56,13.42-1,2-.56,3.86,1.27,5.8,10.37,11,64.11,18.35,92.68,6.26,11-4.66,16.37-11.49,16-20.31a27.25,27.25,0,0,0-9.35-19.42c-21.8-19.88-74.46-17.67-75-17.63a.87.87,0,0,1-.85-.78.81.81,0,0,1,.77-.85c2.19-.1,53.85-2.27,76.15,18.06a28.78,28.78,0,0,1,9.88,20.55c.43,9.43-5.43,17-17,21.87C299.78,235.47,285.79,237.68,270.45,237.68Z" transform="translate(-108.04 -3)"/><path class="cls-1" d="M175.14,190.22c-17.42,5.64-48.18,33.57-32.93,47.89s50.64-5.68,48.11-14c-3.9-12.85-18.26-6.9-18.26-6.9Z" transform="translate(-108.04 -3)"/><path class="cls-3" d="M214.19,218.26a.81.81,0,0,1-.53-1.43c7.28-6.14,25.24-6.73,26-6.75a.8.8,0,0,1,.83.78.81.81,0,0,1-.79.84c-.18,0-18.15.59-25,6.37A.85.85,0,0,1,214.19,218.26Z" transform="translate(-108.04 -3)"/><path class="cls-3" d="M213.59,222.38a.82.82,0,0,1-.13-1.62c16.45-2.66,26-.09,26.44,0a.81.81,0,0,1-.43,1.57c-.1,0-9.69-2.59-25.75,0Z" transform="translate(-108.04 -3)"/><path class="cls-3" d="M205.19,391.49a.81.81,0,0,1-.19-1.6C216.82,387,234.71,387,234.89,387a.81.81,0,0,1,0,1.62h0c-.68,0-18,0-29.48,2.82Z" transform="translate(-108.04 -3)"/><path class="cls-3" d="M181.58,381.41a.84.84,0,0,1-.52-.18c-43.29-35.72-6-104.87-5.6-105.56a.8.8,0,0,1,1.11-.32.81.81,0,0,1,.32,1.1c-.38.68-37,68.67,5.21,103.53a.82.82,0,0,1,.11,1.14A.83.83,0,0,1,181.58,381.41Z" transform="translate(-108.04 -3)"/><path class="cls-3" d="M121.23,388.16a.8.8,0,0,1-.8-.7.81.81,0,0,1,.68-.92c8.14-1.16,22-2.42,22.14-2.43a.81.81,0,0,1,.15,1.61c-.14,0-14,1.28-22.06,2.43Z" transform="translate(-108.04 -3)"/><path class="cls-5" d="M194.94,368s-24.69-2.38-26.15-31.52,20.19-55.71,20.58-76.12,27.17-34.18,24.82,34.52C213,330.38,229.19,376.8,194.94,368Z" transform="translate(-108.04 -3)"/><path class="cls-3" d="M317.71,299.67a1.18,1.18,0,0,1-.25,0,.82.82,0,0,1-.53-1c.39-1.23-.53-5.07-1.2-7.21a.81.81,0,0,1,.53-1,.8.8,0,0,1,1,.53c.19.61,1.87,6.06,1.2,8.18A.82.82,0,0,1,317.71,299.67Z" transform="translate(-108.04 -3)"/><path class="cls-3" d="M309,290.7a.73.73,0,0,1-.25,0,.81.81,0,0,1-.53-1c.39-1.23-.53-5.07-1.2-7.21a.81.81,0,1,1,1.55-.49c.19.62,1.87,6.07,1.2,8.18A.81.81,0,0,1,309,290.7Z" transform="translate(-108.04 -3)"/><path class="cls-3" d="M312.48,280.72a1,1,0,0,1-.24,0,.82.82,0,0,1-.54-1c.39-1.23-.53-5.07-1.2-7.21a.81.81,0,0,1,1.55-.48c.19.61,1.87,6.06,1.2,8.18A.82.82,0,0,1,312.48,280.72Z" transform="translate(-108.04 -3)"/><path class="cls-3" d="M295.23,232.15H295a.8.8,0,0,1-.75-.87.82.82,0,0,1,.87-.75c1.2.07,4.81-1.67,6.74-2.82a.81.81,0,1,1,.82,1.4C302.19,229.42,297.52,232.15,295.23,232.15Z" transform="translate(-108.04 -3)"/><path class="cls-3" d="M281.58,230.5a5.11,5.11,0,0,1-1.68-.22.81.81,0,0,1,.56-1.53c1.21.45,5.09-.3,7.26-.87a.81.81,0,0,1,.41,1.57A31.32,31.32,0,0,1,281.58,230.5Z" transform="translate(-108.04 -3)"/><path class="cls-3" d="M293.19,222a5,5,0,0,1-1.67-.22.81.81,0,1,1,.55-1.53c1.21.45,5.09-.29,7.26-.86a.8.8,0,0,1,1,.57.8.8,0,0,1-.58,1A30.65,30.65,0,0,1,293.19,222Z" transform="translate(-108.04 -3)"/><path class="cls-3" d="M278.09,223.71a5.32,5.32,0,0,1-1.67-.22.83.83,0,0,1-.49-1.05.81.81,0,0,1,1-.48c1.21.45,5.1-.3,7.26-.87a.81.81,0,1,1,.41,1.57A31.32,31.32,0,0,1,278.09,223.71Z" transform="translate(-108.04 -3)"/><path class="cls-3" d="M151.42,237.21a.68.68,0,0,1-.2,0c-.62-.15-6.16-1.53-7.62-3.19a.81.81,0,1,1,1.21-1.07c.86,1,4.62,2.16,6.8,2.68a.81.81,0,0,1-.19,1.6Z" transform="translate(-108.04 -3)"/><path class="cls-3" d="M147.81,230.68a.62.62,0,0,1-.19,0c-.63-.15-6.16-1.53-7.63-3.19a.82.82,0,0,1,.07-1.15.83.83,0,0,1,1.15.07c.85,1,4.62,2.17,6.79,2.69a.81.81,0,0,1-.19,1.6Z" transform="translate(-108.04 -3)"/><path class="cls-3" d="M269,230.52a5,5,0,0,1-1.68-.23.81.81,0,1,1,.56-1.52c1.21.45,5.09-.3,7.25-.87a.81.81,0,0,1,.42,1.57A31.58,31.58,0,0,1,269,230.52Z" transform="translate(-108.04 -3)"/><path class="cls-3" d="M304.36,216.2l-.35,0a.81.81,0,1,1,.2-1.61c1.27.16,4.89-1.44,6.87-2.48a.82.82,0,0,1,1.1.34.81.81,0,0,1-.34,1.1C311.3,213.81,306.7,216.2,304.36,216.2Z" transform="translate(-108.04 -3)"/><path class="cls-3" d="M316.63,216.79a.81.81,0,0,1-.3-1.57c1.21-.46,3.63-3.58,4.88-5.44a.81.81,0,0,1,1.35.9c-.36.54-3.57,5.25-5.64,6.06A.93.93,0,0,1,316.63,216.79Z" transform="translate(-108.04 -3)"/><path class="cls-3" d="M307.14,224.13h-.21a.81.81,0,1,1,.13-1.62c1.27.15,4.83-1.64,6.76-2.76a.81.81,0,0,1,.82,1.4C314.1,221.45,309.44,224.13,307.14,224.13Z" transform="translate(-108.04 -3)"/><path class="cls-3" d="M314,360.78a.8.8,0,0,1-.63-.3.81.81,0,0,1,.12-1.14c1-.81,2.36-4.52,3-6.67a.81.81,0,0,1,1.56.45c-.18.62-1.8,6.09-3.52,7.48A.76.76,0,0,1,314,360.78Z" transform="translate(-108.04 -3)"/><path class="cls-3" d="M311.81,307l-.24,0a.82.82,0,0,1-.53-1c.39-1.23-.53-5.07-1.2-7.21a.81.81,0,0,1,.53-1,.83.83,0,0,1,1,.53c.19.62,1.86,6.07,1.2,8.19A.82.82,0,0,1,311.81,307Z" transform="translate(-108.04 -3)"/><path class="cls-3" d="M142.29,308.76a.71.71,0,0,1-.29-.05.81.81,0,0,1-.47-1c.23-.6,2.3-5.91,4.13-7.16a.82.82,0,0,1,.92,1.35c-1.07.72-2.73,4.3-3.53,6.39A.81.81,0,0,1,142.29,308.76Z" transform="translate(-108.04 -3)"/><path class="cls-3" d="M149.5,302.73a.93.93,0,0,1-.29-.05.82.82,0,0,1-.47-1.05c.23-.61,2.3-5.92,4.14-7.16a.8.8,0,0,1,1.12.21.82.82,0,0,1-.21,1.13c-1.07.72-2.73,4.31-3.53,6.4A.82.82,0,0,1,149.5,302.73Z" transform="translate(-108.04 -3)"/><path class="cls-3" d="M145.89,317.52a1,1,0,0,1-.29,0,.82.82,0,0,1-.46-1.05c.23-.61,2.3-5.92,4.13-7.16a.81.81,0,0,1,1.13.21.82.82,0,0,1-.22,1.13c-1.06.72-2.73,4.31-3.53,6.4A.81.81,0,0,1,145.89,317.52Z" transform="translate(-108.04 -3)"/><path class="cls-3" d="M146.3,333a.81.81,0,0,1-.8-.69c-.1-.64-.89-6.29.1-8.27a.81.81,0,1,1,1.45.73c-.57,1.15-.27,5.09,0,7.3a.8.8,0,0,1-.68.92Z" transform="translate(-108.04 -3)"/><path class="cls-3" d="M146.3,348.58a.81.81,0,0,1-.8-.69c-.1-.64-.89-6.29.1-8.27a.81.81,0,1,1,1.45.73c-.57,1.15-.27,5.09,0,7.3a.81.81,0,0,1-.68.93Z" transform="translate(-108.04 -3)"/><path class="cls-3" d="M228,316.42h0a.81.81,0,0,1-.76-.86c0-.64.4-6.33,1.76-8.07a.82.82,0,0,1,1.14-.14.8.8,0,0,1,.14,1.14c-.79,1-1.29,4.93-1.42,7.17A.81.81,0,0,1,228,316.42Z" transform="translate(-108.04 -3)"/><path class="cls-3" d="M232.91,305.34a.81.81,0,0,1-.75-1.11c.24-.6,2.4-5.88,4.26-7.09a.8.8,0,0,1,1.12.24.81.81,0,0,1-.24,1.12c-1.07.7-2.8,4.26-3.64,6.33A.8.8,0,0,1,232.91,305.34Z" transform="translate(-108.04 -3)"/><path class="cls-3" d="M234.89,312.16a.82.82,0,0,1-.76-1.12c.24-.6,2.41-5.87,4.26-7.08a.81.81,0,0,1,.89,1.35c-1.08.71-2.81,4.26-3.64,6.34A.82.82,0,0,1,234.89,312.16Z" transform="translate(-108.04 -3)"/><path class="cls-3" d="M178.55,316.38h-.09a.81.81,0,0,1-.72-.9c.06-.64.69-6.31,2.14-8a.81.81,0,0,1,1.23,1.06c-.84,1-1.53,4.87-1.76,7.09A.8.8,0,0,1,178.55,316.38Z" transform="translate(-108.04 -3)"/><path class="cls-3" d="M180.61,303.43h-.09a.81.81,0,0,1-.72-.89c.06-.64.69-6.31,2.14-8a.82.82,0,1,1,1.23,1.07c-.84,1-1.53,4.86-1.76,7.09A.8.8,0,0,1,180.61,303.43Z" transform="translate(-108.04 -3)"/><path class="cls-3" d="M187.12,311H187a.81.81,0,0,1-.72-.89c.07-.64.7-6.31,2.15-8a.81.81,0,0,1,1.23,1.06c-.85,1-1.53,4.87-1.76,7.09A.82.82,0,0,1,187.12,311Z" transform="translate(-108.04 -3)"/><path class="cls-3" d="M183.8,341.19a.82.82,0,0,1-.81-.75c0-.65-.41-6.34.72-8.24a.81.81,0,0,1,1.11-.28.8.8,0,0,1,.28,1.11c-.66,1.11-.65,5.06-.49,7.29a.81.81,0,0,1-.75.87Z" transform="translate(-108.04 -3)"/><path class="cls-3" d="M184.2,327.09a.8.8,0,0,1-.81-.75c0-.65-.42-6.34.71-8.24a.81.81,0,0,1,1.4.83c-.66,1.11-.65,5.06-.49,7.29a.82.82,0,0,1-.76.87Z" transform="translate(-108.04 -3)"/><path class="cls-3" d="M191.69,357.37a.8.8,0,0,1-.71-.43c-.31-.56-3-5.6-2.75-7.8a.82.82,0,0,1,1.62.19c-.15,1.27,1.49,4.87,2.55,6.84a.81.81,0,0,1-.71,1.2Z" transform="translate(-108.04 -3)"/><path class="cls-3" d="M183.11,357.31a.8.8,0,0,1-.7-.4c-.33-.55-3.23-5.46-3.08-7.67a.79.79,0,0,1,.87-.75.81.81,0,0,1,.75.86c-.09,1.29,1.7,4.81,2.86,6.73a.82.82,0,0,1-.7,1.23Z" transform="translate(-108.04 -3)"/><path class="cls-3" d="M176.26,344.69a.8.8,0,0,1-.8-.73c-.07-.64-.64-6.31.43-8.26a.8.8,0,0,1,1.1-.31.8.8,0,0,1,.32,1.1c-.62,1.13-.47,5.08-.24,7.3a.8.8,0,0,1-.72.89Z" transform="translate(-108.04 -3)"/><path class="cls-3" d="M187.12,296.36H187a.81.81,0,0,1-.72-.89c.07-.64.7-6.31,2.15-8a.81.81,0,0,1,1.23,1.06c-.85,1-1.53,4.87-1.76,7.1A.82.82,0,0,1,187.12,296.36Z" transform="translate(-108.04 -3)"/><path class="cls-3" d="M189.39,283.92h-.08a.83.83,0,0,1-.73-.9c.07-.64.7-6.31,2.15-8A.81.81,0,0,1,192,276.1c-.85,1-1.53,4.87-1.76,7.09A.81.81,0,0,1,189.39,283.92Z" transform="translate(-108.04 -3)"/><path class="cls-3" d="M194.35,295.74h-.08a.82.82,0,0,1-.73-.89c.07-.64.7-6.31,2.15-8a.81.81,0,0,1,1.23,1.06c-.85,1-1.53,4.87-1.76,7.09A.81.81,0,0,1,194.35,295.74Z" transform="translate(-108.04 -3)"/><path class="cls-3" d="M209.46,139.08a.82.82,0,0,1-.57-1.39c.91-.91,1.86-4.75,2.24-6.95a.83.83,0,0,1,.94-.66.81.81,0,0,1,.66.94c-.11.63-1.13,6.24-2.69,7.82A.82.82,0,0,1,209.46,139.08Z" transform="translate(-108.04 -3)"/><path class="cls-3" d="M199.49,141a.81.81,0,0,1-.58-1.38c.91-.91,1.86-4.75,2.25-7a.81.81,0,0,1,1.6.27c-.12.64-1.13,6.25-2.7,7.82A.78.78,0,0,1,199.49,141Z" transform="translate(-108.04 -3)"/><path class="cls-3" d="M207,126.78a.82.82,0,0,1-.58-1.39c.91-.91,1.86-4.75,2.24-7a.83.83,0,0,1,.94-.66.81.81,0,0,1,.66.94c-.11.64-1.13,6.24-2.69,7.82A.81.81,0,0,1,207,126.78Z" transform="translate(-108.04 -3)"/><path class="cls-3" d="M216.48,121.15A.84.84,0,0,1,216,121a.82.82,0,0,1-.22-1.13c.71-1.07.9-5,.85-7.26a.83.83,0,0,1,.8-.83.76.76,0,0,1,.83.8c0,.64.1,6.35-1.13,8.19A.82.82,0,0,1,216.48,121.15Z" transform="translate(-108.04 -3)"/><path class="cls-3" d="M198,153.25a.8.8,0,0,1-.77-.55.81.81,0,0,1,.52-1c1.22-.4,3.8-3.4,5.14-5.19a.81.81,0,1,1,1.3,1c-.38.51-3.83,5.06-5.93,5.75A.78.78,0,0,1,198,153.25Z" transform="translate(-108.04 -3)"/><path class="cls-3" d="M177.57,331.55a.81.81,0,0,1-.78-.58c-.18-.62-1.73-6.11-1-8.21a.81.81,0,1,1,1.53.52c-.41,1.22.43,5.09,1,7.23a.82.82,0,0,1-.56,1A.83.83,0,0,1,177.57,331.55Z" transform="translate(-108.04 -3)"/><path class="cls-3" d="M243,299.31a.82.82,0,0,1-.75-1.12c.24-.6,2.4-5.87,4.26-7.09a.81.81,0,0,1,.88,1.36c-1.08.71-2.8,4.26-3.64,6.34A.81.81,0,0,1,243,299.31Z" transform="translate(-108.04 -3)"/><path class="cls-3" d="M229.06,333a.82.82,0,0,1-.79-.65c-.13-.63-1.27-6.22-.41-8.25a.81.81,0,0,1,1.5.63c-.51,1.19,0,5.1.5,7.29a.81.81,0,0,1-.63,1Z" transform="translate(-108.04 -3)"/><path class="cls-3" d="M235.24,325.71a.81.81,0,0,1-.79-.65c-.13-.63-1.27-6.21-.41-8.25a.81.81,0,0,1,1.5.63c-.51,1.19,0,5.1.5,7.29a.81.81,0,0,1-.63,1Z" transform="translate(-108.04 -3)"/><path class="cls-3" d="M230.9,348.41a.8.8,0,0,1-.73-.46c-.28-.58-2.7-5.74-2.34-7.92a.8.8,0,0,1,.93-.67.81.81,0,0,1,.67.93c-.21,1.27,1.24,4.94,2.2,7a.8.8,0,0,1-.38,1.08A.72.72,0,0,1,230.9,348.41Z" transform="translate(-108.04 -3)"/><path class="cls-3" d="M234.89,339.18a.8.8,0,0,1-.79-.64c-.14-.63-1.28-6.22-.42-8.26a.81.81,0,0,1,1.06-.43.8.8,0,0,1,.43,1.06c-.5,1.19.05,5.1.51,7.29a.8.8,0,0,1-.62,1Z" transform="translate(-108.04 -3)"/><path class="cls-3" d="M141.24,344.77a.8.8,0,0,1-.8-.69c-.1-.64-.89-6.29.1-8.27a.83.83,0,0,1,1.09-.37.82.82,0,0,1,.36,1.09c-.58,1.16-.27,5.1,0,7.31a.81.81,0,0,1-.68.92Z" transform="translate(-108.04 -3)"/><path class="cls-3" d="M145.44,357.1a.81.81,0,0,1-.64-.31c-.4-.51-3.89-5-4-7.24a.81.81,0,0,1,1.62-.09c.07,1.29,2.29,4.56,3.66,6.32a.82.82,0,0,1-.63,1.32Z" transform="translate(-108.04 -3)"/><path class="cls-3" d="M140.14,327.71a.81.81,0,0,1-.81-.79c0-.64-.16-6.34,1-8.2a.81.81,0,0,1,1.36.89c-.71,1.08-.86,5-.79,7.26a.82.82,0,0,1-.79.84Z" transform="translate(-108.04 -3)"/><path class="cls-3" d="M310.31,321.82a.67.67,0,0,1-.24,0,.81.81,0,0,1-.53-1c.39-1.23-.53-5.08-1.2-7.21a.81.81,0,1,1,1.55-.49c.19.62,1.86,6.07,1.2,8.18A.81.81,0,0,1,310.31,321.82Z" transform="translate(-108.04 -3)"/><path class="cls-3" d="M324.43,330.9a.67.67,0,0,1-.24,0,.81.81,0,0,1-.53-1c.39-1.23-.53-5.08-1.2-7.21a.81.81,0,0,1,.53-1,.82.82,0,0,1,1,.53c.19.62,1.86,6.07,1.2,8.18A.81.81,0,0,1,324.43,330.9Z" transform="translate(-108.04 -3)"/><path class="cls-3" d="M316.24,331.54a.67.67,0,0,1-.24,0,.81.81,0,0,1-.53-1c.39-1.23-.53-5.07-1.2-7.2a.8.8,0,0,1,.53-1,.81.81,0,0,1,1,.53c.19.61,1.86,6.07,1.2,8.18A.81.81,0,0,1,316.24,331.54Z" transform="translate(-108.04 -3)"/><path class="cls-3" d="M314.78,345.61a.73.73,0,0,1-.25,0,.81.81,0,0,1-.53-1c.39-1.23-.53-5.08-1.2-7.21a.81.81,0,1,1,1.55-.49c.19.62,1.87,6.07,1.2,8.18A.81.81,0,0,1,314.78,345.61Z" transform="translate(-108.04 -3)"/><path class="cls-3" d="M320.52,348.51a.76.76,0,0,1-.49-.18.8.8,0,0,1-.15-1.13c.8-1,1.28-4.94,1.4-7.18a.76.76,0,0,1,.85-.76.81.81,0,0,1,.77.85c0,.64-.37,6.33-1.74,8.08A.78.78,0,0,1,320.52,348.51Z" transform="translate(-108.04 -3)"/><path class="cls-3" d="M320.46,316.46a.77.77,0,0,1-.25,0,.82.82,0,0,1-.53-1c.39-1.23-.53-5.07-1.2-7.2a.82.82,0,0,1,.53-1,.8.8,0,0,1,1,.53c.19.62,1.87,6.07,1.2,8.18A.81.81,0,0,1,320.46,316.46Z" transform="translate(-108.04 -3)"/><path class="cls-3" d="M156.46,245c-5.68,0-11-1.49-14.8-5.1s-5.18-8.32-3.92-14c3.43-15.3,24.57-32.42,37.15-36.49a.81.81,0,0,1,.5,1.54c-13.38,4.33-33,21.83-36.06,35.31-1.13,5,0,9.22,3.44,12.43,10.1,9.48,31.82,2.71,41.75-5.94,2.18-1.9,7-6.74,4.19-10.66-7.26-10.26-29.86,1.47-30.09,1.59a.81.81,0,0,1-.75-1.44c1-.52,24.09-12.5,32.16-1.09,2.5,3.52.87,8.2-4.44,12.83C178.71,240,166.9,245,156.46,245Z" transform="translate(-108.04 -3)"/><path class="cls-3" d="M166,227.27a.81.81,0,0,1-.27-1.58c.61-.21,15-5.28,22.24-6.29a.79.79,0,0,1,.92.69.81.81,0,0,1-.69.91c-7.1,1-21.78,6.17-21.93,6.22A.65.65,0,0,1,166,227.27Z" transform="translate(-108.04 -3)"/><path class="cls-3" d="M168.72,235.32a.82.82,0,0,1-.72-.44.81.81,0,0,1,.35-1.09c.63-.33,15.63-8.18,21.68-10.47a.81.81,0,0,1,.58,1.52c-6,2.26-21.36,10.31-21.51,10.39A.85.85,0,0,1,168.72,235.32Z" transform="translate(-108.04 -3)"/></g></svg>